%TF.GenerationSoftware,KiCad,Pcbnew,7.0.7*%
%TF.CreationDate,2023-12-04T17:40:57-05:00*%
%TF.ProjectId,PEEKbot_APS,5045454b-626f-4745-9f41-50532e6b6963,rev?*%
%TF.SameCoordinates,Original*%
%TF.FileFunction,Paste,Bot*%
%TF.FilePolarity,Positive*%
%FSLAX46Y46*%
G04 Gerber Fmt 4.6, Leading zero omitted, Abs format (unit mm)*
G04 Created by KiCad (PCBNEW 7.0.7) date 2023-12-04 17:40:57*
%MOMM*%
%LPD*%
G01*
G04 APERTURE LIST*
G04 Aperture macros list*
%AMRoundRect*
0 Rectangle with rounded corners*
0 $1 Rounding radius*
0 $2 $3 $4 $5 $6 $7 $8 $9 X,Y pos of 4 corners*
0 Add a 4 corners polygon primitive as box body*
4,1,4,$2,$3,$4,$5,$6,$7,$8,$9,$2,$3,0*
0 Add four circle primitives for the rounded corners*
1,1,$1+$1,$2,$3*
1,1,$1+$1,$4,$5*
1,1,$1+$1,$6,$7*
1,1,$1+$1,$8,$9*
0 Add four rect primitives between the rounded corners*
20,1,$1+$1,$2,$3,$4,$5,0*
20,1,$1+$1,$4,$5,$6,$7,0*
20,1,$1+$1,$6,$7,$8,$9,0*
20,1,$1+$1,$8,$9,$2,$3,0*%
%AMRotRect*
0 Rectangle, with rotation*
0 The origin of the aperture is its center*
0 $1 length*
0 $2 width*
0 $3 Rotation angle, in degrees counterclockwise*
0 Add horizontal line*
21,1,$1,$2,0,0,$3*%
G04 Aperture macros list end*
%ADD10RoundRect,0.250000X-0.097227X0.574524X-0.574524X0.097227X0.097227X-0.574524X0.574524X-0.097227X0*%
%ADD11RoundRect,0.237500X0.380070X-0.044194X-0.044194X0.380070X-0.380070X0.044194X0.044194X-0.380070X0*%
%ADD12RoundRect,0.150000X0.512500X0.150000X-0.512500X0.150000X-0.512500X-0.150000X0.512500X-0.150000X0*%
%ADD13RoundRect,0.237500X0.250000X0.237500X-0.250000X0.237500X-0.250000X-0.237500X0.250000X-0.237500X0*%
%ADD14RoundRect,0.050000X0.272236X-0.130815X-0.130815X0.272236X-0.272236X0.130815X0.130815X-0.272236X0*%
%ADD15RoundRect,0.237500X0.237500X-0.300000X0.237500X0.300000X-0.237500X0.300000X-0.237500X-0.300000X0*%
%ADD16RoundRect,0.237500X0.344715X-0.008839X-0.008839X0.344715X-0.344715X0.008839X0.008839X-0.344715X0*%
%ADD17R,0.750000X0.650000*%
%ADD18R,0.500000X0.250000*%
%ADD19RoundRect,0.237500X-0.008839X-0.344715X0.344715X0.008839X0.008839X0.344715X-0.344715X-0.008839X0*%
%ADD20RoundRect,0.155000X0.212500X0.155000X-0.212500X0.155000X-0.212500X-0.155000X0.212500X-0.155000X0*%
%ADD21RoundRect,0.237500X-0.300000X-0.237500X0.300000X-0.237500X0.300000X0.237500X-0.300000X0.237500X0*%
%ADD22RotRect,1.900000X0.800000X30.000000*%
%ADD23RoundRect,0.240000X0.015346X0.453420X-0.400346X0.213420X-0.015346X-0.453420X0.400346X-0.213420X0*%
%ADD24RoundRect,0.150000X0.639471X0.542404X-0.789471X-0.282596X-0.639471X-0.542404X0.789471X0.282596X0*%
%ADD25RoundRect,0.250000X-0.337500X-0.475000X0.337500X-0.475000X0.337500X0.475000X-0.337500X0.475000X0*%
%ADD26RoundRect,0.237500X-0.097756X-0.330681X0.335256X-0.080681X0.097756X0.330681X-0.335256X0.080681X0*%
%ADD27RoundRect,0.237500X0.330681X-0.097756X0.080681X0.335256X-0.330681X0.097756X-0.080681X-0.335256X0*%
%ADD28RoundRect,0.237500X-0.237500X0.250000X-0.237500X-0.250000X0.237500X-0.250000X0.237500X0.250000X0*%
%ADD29RoundRect,0.155000X-0.212500X-0.155000X0.212500X-0.155000X0.212500X0.155000X-0.212500X0.155000X0*%
%ADD30RoundRect,0.237500X-0.141058X-0.355681X0.378558X-0.055681X0.141058X0.355681X-0.378558X0.055681X0*%
%ADD31RoundRect,0.075000X-0.075000X0.662500X-0.075000X-0.662500X0.075000X-0.662500X0.075000X0.662500X0*%
%ADD32RoundRect,0.075000X-0.662500X0.075000X-0.662500X-0.075000X0.662500X-0.075000X0.662500X0.075000X0*%
%ADD33R,1.200000X1.050000*%
%ADD34RoundRect,0.237500X0.300000X0.237500X-0.300000X0.237500X-0.300000X-0.237500X0.300000X-0.237500X0*%
%ADD35RoundRect,0.182500X-0.182500X-0.182500X0.182500X-0.182500X0.182500X0.182500X-0.182500X0.182500X0*%
%ADD36RoundRect,0.062500X-0.355000X-0.062500X0.355000X-0.062500X0.355000X0.062500X-0.355000X0.062500X0*%
%ADD37RoundRect,0.062500X-0.062500X-0.355000X0.062500X-0.355000X0.062500X0.355000X-0.062500X0.355000X0*%
G04 APERTURE END LIST*
D10*
%TO.C,C17*%
X34008939Y-161514573D03*
X32541693Y-162981819D03*
%TD*%
D11*
%TO.C,C16*%
X31752322Y-164902111D03*
X30532562Y-163682351D03*
%TD*%
D12*
%TO.C,Q4*%
X34876414Y-177758700D03*
X34876414Y-179658700D03*
X32601414Y-178708700D03*
%TD*%
D13*
%TO.C,R14*%
X34529911Y-172678696D03*
X32704911Y-172678696D03*
%TD*%
D14*
%TO.C,U7*%
X33895128Y-167016542D03*
X33541575Y-167370095D03*
X33188021Y-167723649D03*
X32834468Y-168077202D03*
X31787950Y-167030684D03*
X32141503Y-166677131D03*
X32495057Y-166323577D03*
X32848610Y-165970024D03*
%TD*%
D15*
%TO.C,C9*%
X44308102Y-157100991D03*
X44308102Y-155375991D03*
%TD*%
D16*
%TO.C,R19*%
X32078788Y-169333096D03*
X30788318Y-168042626D03*
%TD*%
D17*
%TO.C,U8*%
X22787916Y-184196304D03*
X22787916Y-184996304D03*
D18*
X21837916Y-185346304D03*
X21837916Y-184846304D03*
X21837916Y-184346304D03*
X21837916Y-183846304D03*
X23737916Y-183846304D03*
X23737916Y-184346304D03*
X23737916Y-184846304D03*
X23737916Y-185346304D03*
%TD*%
D12*
%TO.C,Q3*%
X34887407Y-174283896D03*
X34887407Y-176183896D03*
X32612407Y-175233896D03*
%TD*%
D10*
%TO.C,C15*%
X35481716Y-162987324D03*
X34014470Y-164454570D03*
%TD*%
D11*
%TO.C,C14*%
X29624925Y-166876549D03*
X28405165Y-165656789D03*
%TD*%
D19*
%TO.C,R21*%
X36642113Y-166640350D03*
X37932583Y-165349880D03*
%TD*%
D20*
%TO.C,C1*%
X41351603Y-159108543D03*
X40216603Y-159108543D03*
%TD*%
D21*
%TO.C,C7*%
X45884002Y-154408603D03*
X47609002Y-154408603D03*
%TD*%
D22*
%TO.C,ESD1*%
X36253240Y-151105064D03*
X35303240Y-149459616D03*
X38376316Y-148782340D03*
%TD*%
D23*
%TO.C,U1*%
X43950736Y-146507109D03*
X43200736Y-145208071D03*
X42963468Y-147077109D03*
X42213468Y-145778071D03*
D24*
X44273015Y-143255312D03*
X44908015Y-144355164D03*
X45543015Y-145455016D03*
X46178015Y-146554868D03*
X41891189Y-149029868D03*
X41256189Y-147930016D03*
X40621189Y-146830164D03*
X39986189Y-145730312D03*
%TD*%
D25*
%TO.C,C12*%
X25513907Y-179211496D03*
X27588907Y-179211496D03*
%TD*%
D13*
%TO.C,R17*%
X38441502Y-179943100D03*
X36616502Y-179943100D03*
%TD*%
D26*
%TO.C,R2*%
X42256365Y-142477186D03*
X43836861Y-141564686D03*
%TD*%
%TO.C,R4*%
X36116811Y-146902696D03*
X37697307Y-145990196D03*
%TD*%
D19*
%TO.C,R22*%
X32520024Y-158769345D03*
X33810494Y-157478875D03*
%TD*%
D27*
%TO.C,R1*%
X47316854Y-144419806D03*
X46404354Y-142839310D03*
%TD*%
D28*
%TO.C,R10*%
X39949798Y-172728193D03*
X39949798Y-174553193D03*
%TD*%
D21*
%TO.C,C5*%
X45885105Y-155932609D03*
X47610105Y-155932609D03*
%TD*%
D29*
%TO.C,C3*%
X40927805Y-154485748D03*
X42062805Y-154485748D03*
%TD*%
D30*
%TO.C,C4*%
X38780834Y-144483805D03*
X40274728Y-143621305D03*
%TD*%
D21*
%TO.C,C6*%
X45885118Y-157456607D03*
X47610118Y-157456607D03*
%TD*%
D19*
%TO.C,R20*%
X35539633Y-165515662D03*
X36830103Y-164225192D03*
%TD*%
%TO.C,R23*%
X30292921Y-156542241D03*
X31583391Y-155251771D03*
%TD*%
D31*
%TO.C,U3*%
X42957705Y-159596410D03*
X43457705Y-159596410D03*
X43957705Y-159596410D03*
X44457705Y-159596410D03*
X44957705Y-159596410D03*
X45457705Y-159596410D03*
X45957705Y-159596410D03*
X46457705Y-159596410D03*
X46957705Y-159596410D03*
X47457705Y-159596410D03*
X47957705Y-159596410D03*
X48457705Y-159596410D03*
D32*
X49870205Y-161008910D03*
X49870205Y-161508910D03*
X49870205Y-162008910D03*
X49870205Y-162508910D03*
X49870205Y-163008910D03*
X49870205Y-163508910D03*
X49870205Y-164008910D03*
X49870205Y-164508910D03*
X49870205Y-165008910D03*
X49870205Y-165508910D03*
X49870205Y-166008910D03*
X49870205Y-166508910D03*
D31*
X48457705Y-167921410D03*
X47957705Y-167921410D03*
X47457705Y-167921410D03*
X46957705Y-167921410D03*
X46457705Y-167921410D03*
X45957705Y-167921410D03*
X45457705Y-167921410D03*
X44957705Y-167921410D03*
X44457705Y-167921410D03*
X43957705Y-167921410D03*
X43457705Y-167921410D03*
X42957705Y-167921410D03*
D32*
X41545205Y-166508910D03*
X41545205Y-166008910D03*
X41545205Y-165508910D03*
X41545205Y-165008910D03*
X41545205Y-164508910D03*
X41545205Y-164008910D03*
X41545205Y-163508910D03*
X41545205Y-163008910D03*
X41545205Y-162508910D03*
X41545205Y-162008910D03*
X41545205Y-161508910D03*
X41545205Y-161008910D03*
%TD*%
D33*
%TO.C,LSE1*%
X40939301Y-157628004D03*
X40939301Y-155978004D03*
%TD*%
D34*
%TO.C,C19*%
X23653599Y-186577508D03*
X21928599Y-186577508D03*
%TD*%
D26*
%TO.C,R3*%
X38785682Y-151526449D03*
X40366178Y-150613949D03*
%TD*%
D35*
%TO.C,U6*%
X22386501Y-175383900D03*
X22386501Y-176223900D03*
X23226501Y-175383900D03*
X23226501Y-176223900D03*
D36*
X21349001Y-176553900D03*
X21349001Y-176053900D03*
X21349001Y-175553900D03*
X21349001Y-175053900D03*
D37*
X22056501Y-174346400D03*
X22556501Y-174346400D03*
X23056501Y-174346400D03*
X23556501Y-174346400D03*
D36*
X24264001Y-175053900D03*
X24264001Y-175553900D03*
X24264001Y-176053900D03*
X24264001Y-176553900D03*
D37*
X23556501Y-177261400D03*
X23056501Y-177261400D03*
X22556501Y-177261400D03*
X22056501Y-177261400D03*
%TD*%
D19*
%TO.C,R24*%
X31406465Y-157655786D03*
X32696935Y-156365316D03*
%TD*%
M02*
