%TF.GenerationSoftware,KiCad,Pcbnew,7.0.7*%
%TF.CreationDate,2023-12-04T17:40:57-05:00*%
%TF.ProjectId,PEEKbot_APS,5045454b-626f-4745-9f41-50532e6b6963,rev?*%
%TF.SameCoordinates,Original*%
%TF.FileFunction,Legend,Top*%
%TF.FilePolarity,Positive*%
%FSLAX46Y46*%
G04 Gerber Fmt 4.6, Leading zero omitted, Abs format (unit mm)*
G04 Created by KiCad (PCBNEW 7.0.7) date 2023-12-04 17:40:57*
%MOMM*%
%LPD*%
G01*
G04 APERTURE LIST*
%ADD10C,0.150000*%
%ADD11C,0.125000*%
%ADD12C,0.120000*%
G04 APERTURE END LIST*
D10*
X19656664Y-177313323D02*
X20037617Y-177313323D01*
X19580474Y-177541895D02*
X19847141Y-176741895D01*
X19847141Y-176741895D02*
X20113807Y-177541895D01*
X20342378Y-176818085D02*
X20380474Y-176779990D01*
X20380474Y-176779990D02*
X20456664Y-176741895D01*
X20456664Y-176741895D02*
X20647140Y-176741895D01*
X20647140Y-176741895D02*
X20723331Y-176779990D01*
X20723331Y-176779990D02*
X20761426Y-176818085D01*
X20761426Y-176818085D02*
X20799521Y-176894276D01*
X20799521Y-176894276D02*
X20799521Y-176970466D01*
X20799521Y-176970466D02*
X20761426Y-177084752D01*
X20761426Y-177084752D02*
X20304283Y-177541895D01*
X20304283Y-177541895D02*
X20799521Y-177541895D01*
X43329464Y-174366923D02*
X43710417Y-174366923D01*
X43253274Y-174595495D02*
X43519941Y-173795495D01*
X43519941Y-173795495D02*
X43786607Y-174595495D01*
X44434226Y-174595495D02*
X44053274Y-174595495D01*
X44053274Y-174595495D02*
X44053274Y-173795495D01*
X44586607Y-173795495D02*
X45043750Y-173795495D01*
X44815178Y-174595495D02*
X44815178Y-173795495D01*
X45119941Y-174671685D02*
X45729464Y-174671685D01*
X45881845Y-174366923D02*
X46262798Y-174366923D01*
X45805655Y-174595495D02*
X46072322Y-173795495D01*
X46072322Y-173795495D02*
X46338988Y-174595495D01*
X33969560Y-185009495D02*
X33969560Y-184209495D01*
X33969560Y-184209495D02*
X34426703Y-185009495D01*
X34426703Y-185009495D02*
X34426703Y-184209495D01*
X35264798Y-185009495D02*
X34998131Y-184628542D01*
X34807655Y-185009495D02*
X34807655Y-184209495D01*
X34807655Y-184209495D02*
X35112417Y-184209495D01*
X35112417Y-184209495D02*
X35188607Y-184247590D01*
X35188607Y-184247590D02*
X35226702Y-184285685D01*
X35226702Y-184285685D02*
X35264798Y-184361876D01*
X35264798Y-184361876D02*
X35264798Y-184476161D01*
X35264798Y-184476161D02*
X35226702Y-184552352D01*
X35226702Y-184552352D02*
X35188607Y-184590447D01*
X35188607Y-184590447D02*
X35112417Y-184628542D01*
X35112417Y-184628542D02*
X34807655Y-184628542D01*
X35569559Y-184971400D02*
X35683845Y-185009495D01*
X35683845Y-185009495D02*
X35874321Y-185009495D01*
X35874321Y-185009495D02*
X35950512Y-184971400D01*
X35950512Y-184971400D02*
X35988607Y-184933304D01*
X35988607Y-184933304D02*
X36026702Y-184857114D01*
X36026702Y-184857114D02*
X36026702Y-184780923D01*
X36026702Y-184780923D02*
X35988607Y-184704733D01*
X35988607Y-184704733D02*
X35950512Y-184666638D01*
X35950512Y-184666638D02*
X35874321Y-184628542D01*
X35874321Y-184628542D02*
X35721940Y-184590447D01*
X35721940Y-184590447D02*
X35645750Y-184552352D01*
X35645750Y-184552352D02*
X35607655Y-184514257D01*
X35607655Y-184514257D02*
X35569559Y-184438066D01*
X35569559Y-184438066D02*
X35569559Y-184361876D01*
X35569559Y-184361876D02*
X35607655Y-184285685D01*
X35607655Y-184285685D02*
X35645750Y-184247590D01*
X35645750Y-184247590D02*
X35721940Y-184209495D01*
X35721940Y-184209495D02*
X35912417Y-184209495D01*
X35912417Y-184209495D02*
X36026702Y-184247590D01*
X36255274Y-184209495D02*
X36712417Y-184209495D01*
X36483845Y-185009495D02*
X36483845Y-184209495D01*
D11*
X39496674Y-179773852D02*
X39734769Y-179773852D01*
X39449055Y-179916709D02*
X39615721Y-179416709D01*
X39615721Y-179416709D02*
X39782388Y-179916709D01*
X40187149Y-179916709D02*
X39949054Y-179916709D01*
X39949054Y-179916709D02*
X39949054Y-179416709D01*
X40282388Y-179416709D02*
X40568102Y-179416709D01*
X40425245Y-179916709D02*
X40425245Y-179416709D01*
X40615721Y-179964328D02*
X40996673Y-179964328D01*
X41115720Y-179654804D02*
X41282387Y-179654804D01*
X41353815Y-179916709D02*
X41115720Y-179916709D01*
X41115720Y-179916709D02*
X41115720Y-179416709D01*
X41115720Y-179416709D02*
X41353815Y-179416709D01*
X41568101Y-179916709D02*
X41568101Y-179416709D01*
X41568101Y-179416709D02*
X41853815Y-179916709D01*
X41853815Y-179916709D02*
X41853815Y-179416709D01*
X42091911Y-179916709D02*
X42091911Y-179416709D01*
X42091911Y-179416709D02*
X42210959Y-179416709D01*
X42210959Y-179416709D02*
X42282387Y-179440519D01*
X42282387Y-179440519D02*
X42330006Y-179488138D01*
X42330006Y-179488138D02*
X42353816Y-179535757D01*
X42353816Y-179535757D02*
X42377625Y-179630995D01*
X42377625Y-179630995D02*
X42377625Y-179702423D01*
X42377625Y-179702423D02*
X42353816Y-179797661D01*
X42353816Y-179797661D02*
X42330006Y-179845280D01*
X42330006Y-179845280D02*
X42282387Y-179892900D01*
X42282387Y-179892900D02*
X42210959Y-179916709D01*
X42210959Y-179916709D02*
X42091911Y-179916709D01*
D10*
X19809026Y-170722047D02*
X19923312Y-170760142D01*
X19923312Y-170760142D02*
X19961407Y-170798238D01*
X19961407Y-170798238D02*
X19999503Y-170874428D01*
X19999503Y-170874428D02*
X19999503Y-170988714D01*
X19999503Y-170988714D02*
X19961407Y-171064904D01*
X19961407Y-171064904D02*
X19923312Y-171103000D01*
X19923312Y-171103000D02*
X19847122Y-171141095D01*
X19847122Y-171141095D02*
X19542360Y-171141095D01*
X19542360Y-171141095D02*
X19542360Y-170341095D01*
X19542360Y-170341095D02*
X19809026Y-170341095D01*
X19809026Y-170341095D02*
X19885217Y-170379190D01*
X19885217Y-170379190D02*
X19923312Y-170417285D01*
X19923312Y-170417285D02*
X19961407Y-170493476D01*
X19961407Y-170493476D02*
X19961407Y-170569666D01*
X19961407Y-170569666D02*
X19923312Y-170645857D01*
X19923312Y-170645857D02*
X19885217Y-170683952D01*
X19885217Y-170683952D02*
X19809026Y-170722047D01*
X19809026Y-170722047D02*
X19542360Y-170722047D01*
X20761407Y-171141095D02*
X20304264Y-171141095D01*
X20532836Y-171141095D02*
X20532836Y-170341095D01*
X20532836Y-170341095D02*
X20456645Y-170455380D01*
X20456645Y-170455380D02*
X20380455Y-170531571D01*
X20380455Y-170531571D02*
X20304264Y-170569666D01*
X46079979Y-169498333D02*
X46460932Y-169498333D01*
X46003789Y-169726905D02*
X46270456Y-168926905D01*
X46270456Y-168926905D02*
X46537122Y-169726905D01*
X47184741Y-169726905D02*
X46803789Y-169726905D01*
X46803789Y-169726905D02*
X46803789Y-168926905D01*
X47337122Y-168926905D02*
X47794265Y-168926905D01*
X47565693Y-169726905D02*
X47565693Y-168926905D01*
X47870456Y-169803095D02*
X48479979Y-169803095D01*
X48937122Y-169307857D02*
X49051408Y-169345952D01*
X49051408Y-169345952D02*
X49089503Y-169384048D01*
X49089503Y-169384048D02*
X49127599Y-169460238D01*
X49127599Y-169460238D02*
X49127599Y-169574524D01*
X49127599Y-169574524D02*
X49089503Y-169650714D01*
X49089503Y-169650714D02*
X49051408Y-169688810D01*
X49051408Y-169688810D02*
X48975218Y-169726905D01*
X48975218Y-169726905D02*
X48670456Y-169726905D01*
X48670456Y-169726905D02*
X48670456Y-168926905D01*
X48670456Y-168926905D02*
X48937122Y-168926905D01*
X48937122Y-168926905D02*
X49013313Y-168965000D01*
X49013313Y-168965000D02*
X49051408Y-169003095D01*
X49051408Y-169003095D02*
X49089503Y-169079286D01*
X49089503Y-169079286D02*
X49089503Y-169155476D01*
X49089503Y-169155476D02*
X49051408Y-169231667D01*
X49051408Y-169231667D02*
X49013313Y-169269762D01*
X49013313Y-169269762D02*
X48937122Y-169307857D01*
X48937122Y-169307857D02*
X48670456Y-169307857D01*
X27632207Y-161082790D02*
X27556017Y-161044695D01*
X27556017Y-161044695D02*
X27441731Y-161044695D01*
X27441731Y-161044695D02*
X27327445Y-161082790D01*
X27327445Y-161082790D02*
X27251255Y-161158980D01*
X27251255Y-161158980D02*
X27213160Y-161235171D01*
X27213160Y-161235171D02*
X27175064Y-161387552D01*
X27175064Y-161387552D02*
X27175064Y-161501838D01*
X27175064Y-161501838D02*
X27213160Y-161654219D01*
X27213160Y-161654219D02*
X27251255Y-161730409D01*
X27251255Y-161730409D02*
X27327445Y-161806600D01*
X27327445Y-161806600D02*
X27441731Y-161844695D01*
X27441731Y-161844695D02*
X27517922Y-161844695D01*
X27517922Y-161844695D02*
X27632207Y-161806600D01*
X27632207Y-161806600D02*
X27670303Y-161768504D01*
X27670303Y-161768504D02*
X27670303Y-161501838D01*
X27670303Y-161501838D02*
X27517922Y-161501838D01*
X28013160Y-161844695D02*
X28013160Y-161044695D01*
X28013160Y-161044695D02*
X28470303Y-161844695D01*
X28470303Y-161844695D02*
X28470303Y-161044695D01*
X28851255Y-161844695D02*
X28851255Y-161044695D01*
X28851255Y-161044695D02*
X29041731Y-161044695D01*
X29041731Y-161044695D02*
X29156017Y-161082790D01*
X29156017Y-161082790D02*
X29232207Y-161158980D01*
X29232207Y-161158980D02*
X29270302Y-161235171D01*
X29270302Y-161235171D02*
X29308398Y-161387552D01*
X29308398Y-161387552D02*
X29308398Y-161501838D01*
X29308398Y-161501838D02*
X29270302Y-161654219D01*
X29270302Y-161654219D02*
X29232207Y-161730409D01*
X29232207Y-161730409D02*
X29156017Y-161806600D01*
X29156017Y-161806600D02*
X29041731Y-161844695D01*
X29041731Y-161844695D02*
X28851255Y-161844695D01*
D11*
X23647074Y-189273452D02*
X23885169Y-189273452D01*
X23599455Y-189416309D02*
X23766121Y-188916309D01*
X23766121Y-188916309D02*
X23932788Y-189416309D01*
X24051835Y-188916309D02*
X24385168Y-188916309D01*
X24385168Y-188916309D02*
X24051835Y-189416309D01*
X24051835Y-189416309D02*
X24385168Y-189416309D01*
X24575644Y-189416309D02*
X24575644Y-188916309D01*
X24575644Y-188916309D02*
X24742311Y-189273452D01*
X24742311Y-189273452D02*
X24908977Y-188916309D01*
X24908977Y-188916309D02*
X24908977Y-189416309D01*
X25028026Y-189463928D02*
X25408978Y-189463928D01*
X25528025Y-189154404D02*
X25694692Y-189154404D01*
X25766120Y-189416309D02*
X25528025Y-189416309D01*
X25528025Y-189416309D02*
X25528025Y-188916309D01*
X25528025Y-188916309D02*
X25766120Y-188916309D01*
X25980406Y-189416309D02*
X25980406Y-188916309D01*
X25980406Y-188916309D02*
X26266120Y-189416309D01*
X26266120Y-189416309D02*
X26266120Y-188916309D01*
X26504216Y-189416309D02*
X26504216Y-188916309D01*
X26504216Y-188916309D02*
X26623264Y-188916309D01*
X26623264Y-188916309D02*
X26694692Y-188940119D01*
X26694692Y-188940119D02*
X26742311Y-188987738D01*
X26742311Y-188987738D02*
X26766121Y-189035357D01*
X26766121Y-189035357D02*
X26789930Y-189130595D01*
X26789930Y-189130595D02*
X26789930Y-189202023D01*
X26789930Y-189202023D02*
X26766121Y-189297261D01*
X26766121Y-189297261D02*
X26742311Y-189344880D01*
X26742311Y-189344880D02*
X26694692Y-189392500D01*
X26694692Y-189392500D02*
X26623264Y-189416309D01*
X26623264Y-189416309D02*
X26504216Y-189416309D01*
D10*
X48866664Y-154504123D02*
X49247617Y-154504123D01*
X48790474Y-154732695D02*
X49057141Y-153932695D01*
X49057141Y-153932695D02*
X49323807Y-154732695D01*
X49514283Y-153932695D02*
X50047617Y-153932695D01*
X50047617Y-153932695D02*
X49514283Y-154732695D01*
X49514283Y-154732695D02*
X50047617Y-154732695D01*
X50352379Y-154732695D02*
X50352379Y-153932695D01*
X50352379Y-153932695D02*
X50619045Y-154504123D01*
X50619045Y-154504123D02*
X50885712Y-153932695D01*
X50885712Y-153932695D02*
X50885712Y-154732695D01*
X51076189Y-154808885D02*
X51685712Y-154808885D01*
X51838093Y-154504123D02*
X52219046Y-154504123D01*
X51761903Y-154732695D02*
X52028570Y-153932695D01*
X52028570Y-153932695D02*
X52295236Y-154732695D01*
X49615903Y-142439095D02*
X49349236Y-142058142D01*
X49158760Y-142439095D02*
X49158760Y-141639095D01*
X49158760Y-141639095D02*
X49463522Y-141639095D01*
X49463522Y-141639095D02*
X49539712Y-141677190D01*
X49539712Y-141677190D02*
X49577807Y-141715285D01*
X49577807Y-141715285D02*
X49615903Y-141791476D01*
X49615903Y-141791476D02*
X49615903Y-141905761D01*
X49615903Y-141905761D02*
X49577807Y-141981952D01*
X49577807Y-141981952D02*
X49539712Y-142020047D01*
X49539712Y-142020047D02*
X49463522Y-142058142D01*
X49463522Y-142058142D02*
X49158760Y-142058142D01*
X49882569Y-142439095D02*
X50301617Y-141905761D01*
X49882569Y-141905761D02*
X50301617Y-142439095D01*
X50606379Y-142439095D02*
X50606379Y-141639095D01*
X50606379Y-141639095D02*
X50796855Y-141639095D01*
X50796855Y-141639095D02*
X50911141Y-141677190D01*
X50911141Y-141677190D02*
X50987331Y-141753380D01*
X50987331Y-141753380D02*
X51025426Y-141829571D01*
X51025426Y-141829571D02*
X51063522Y-141981952D01*
X51063522Y-141981952D02*
X51063522Y-142096238D01*
X51063522Y-142096238D02*
X51025426Y-142248619D01*
X51025426Y-142248619D02*
X50987331Y-142324809D01*
X50987331Y-142324809D02*
X50911141Y-142401000D01*
X50911141Y-142401000D02*
X50796855Y-142439095D01*
X50796855Y-142439095D02*
X50606379Y-142439095D01*
X19859826Y-173871647D02*
X19974112Y-173909742D01*
X19974112Y-173909742D02*
X20012207Y-173947838D01*
X20012207Y-173947838D02*
X20050303Y-174024028D01*
X20050303Y-174024028D02*
X20050303Y-174138314D01*
X20050303Y-174138314D02*
X20012207Y-174214504D01*
X20012207Y-174214504D02*
X19974112Y-174252600D01*
X19974112Y-174252600D02*
X19897922Y-174290695D01*
X19897922Y-174290695D02*
X19593160Y-174290695D01*
X19593160Y-174290695D02*
X19593160Y-173490695D01*
X19593160Y-173490695D02*
X19859826Y-173490695D01*
X19859826Y-173490695D02*
X19936017Y-173528790D01*
X19936017Y-173528790D02*
X19974112Y-173566885D01*
X19974112Y-173566885D02*
X20012207Y-173643076D01*
X20012207Y-173643076D02*
X20012207Y-173719266D01*
X20012207Y-173719266D02*
X19974112Y-173795457D01*
X19974112Y-173795457D02*
X19936017Y-173833552D01*
X19936017Y-173833552D02*
X19859826Y-173871647D01*
X19859826Y-173871647D02*
X19593160Y-173871647D01*
X20355064Y-173566885D02*
X20393160Y-173528790D01*
X20393160Y-173528790D02*
X20469350Y-173490695D01*
X20469350Y-173490695D02*
X20659826Y-173490695D01*
X20659826Y-173490695D02*
X20736017Y-173528790D01*
X20736017Y-173528790D02*
X20774112Y-173566885D01*
X20774112Y-173566885D02*
X20812207Y-173643076D01*
X20812207Y-173643076D02*
X20812207Y-173719266D01*
X20812207Y-173719266D02*
X20774112Y-173833552D01*
X20774112Y-173833552D02*
X20316969Y-174290695D01*
X20316969Y-174290695D02*
X20812207Y-174290695D01*
X19859826Y-183930047D02*
X19974112Y-183968142D01*
X19974112Y-183968142D02*
X20012207Y-184006238D01*
X20012207Y-184006238D02*
X20050303Y-184082428D01*
X20050303Y-184082428D02*
X20050303Y-184196714D01*
X20050303Y-184196714D02*
X20012207Y-184272904D01*
X20012207Y-184272904D02*
X19974112Y-184311000D01*
X19974112Y-184311000D02*
X19897922Y-184349095D01*
X19897922Y-184349095D02*
X19593160Y-184349095D01*
X19593160Y-184349095D02*
X19593160Y-183549095D01*
X19593160Y-183549095D02*
X19859826Y-183549095D01*
X19859826Y-183549095D02*
X19936017Y-183587190D01*
X19936017Y-183587190D02*
X19974112Y-183625285D01*
X19974112Y-183625285D02*
X20012207Y-183701476D01*
X20012207Y-183701476D02*
X20012207Y-183777666D01*
X20012207Y-183777666D02*
X19974112Y-183853857D01*
X19974112Y-183853857D02*
X19936017Y-183891952D01*
X19936017Y-183891952D02*
X19859826Y-183930047D01*
X19859826Y-183930047D02*
X19593160Y-183930047D01*
X20393160Y-184349095D02*
X20393160Y-183549095D01*
X20393160Y-183549095D02*
X20583636Y-183549095D01*
X20583636Y-183549095D02*
X20697922Y-183587190D01*
X20697922Y-183587190D02*
X20774112Y-183663380D01*
X20774112Y-183663380D02*
X20812207Y-183739571D01*
X20812207Y-183739571D02*
X20850303Y-183891952D01*
X20850303Y-183891952D02*
X20850303Y-184006238D01*
X20850303Y-184006238D02*
X20812207Y-184158619D01*
X20812207Y-184158619D02*
X20774112Y-184234809D01*
X20774112Y-184234809D02*
X20697922Y-184311000D01*
X20697922Y-184311000D02*
X20583636Y-184349095D01*
X20583636Y-184349095D02*
X20393160Y-184349095D01*
X21650303Y-184272904D02*
X21612207Y-184311000D01*
X21612207Y-184311000D02*
X21497922Y-184349095D01*
X21497922Y-184349095D02*
X21421731Y-184349095D01*
X21421731Y-184349095D02*
X21307445Y-184311000D01*
X21307445Y-184311000D02*
X21231255Y-184234809D01*
X21231255Y-184234809D02*
X21193160Y-184158619D01*
X21193160Y-184158619D02*
X21155064Y-184006238D01*
X21155064Y-184006238D02*
X21155064Y-183891952D01*
X21155064Y-183891952D02*
X21193160Y-183739571D01*
X21193160Y-183739571D02*
X21231255Y-183663380D01*
X21231255Y-183663380D02*
X21307445Y-183587190D01*
X21307445Y-183587190D02*
X21421731Y-183549095D01*
X21421731Y-183549095D02*
X21497922Y-183549095D01*
X21497922Y-183549095D02*
X21612207Y-183587190D01*
X21612207Y-183587190D02*
X21650303Y-183625285D01*
X21955064Y-183625285D02*
X21993160Y-183587190D01*
X21993160Y-183587190D02*
X22069350Y-183549095D01*
X22069350Y-183549095D02*
X22259826Y-183549095D01*
X22259826Y-183549095D02*
X22336017Y-183587190D01*
X22336017Y-183587190D02*
X22374112Y-183625285D01*
X22374112Y-183625285D02*
X22412207Y-183701476D01*
X22412207Y-183701476D02*
X22412207Y-183777666D01*
X22412207Y-183777666D02*
X22374112Y-183891952D01*
X22374112Y-183891952D02*
X21916969Y-184349095D01*
X21916969Y-184349095D02*
X22412207Y-184349095D01*
X19656664Y-180615323D02*
X20037617Y-180615323D01*
X19580474Y-180843895D02*
X19847141Y-180043895D01*
X19847141Y-180043895D02*
X20113807Y-180843895D01*
X20799521Y-180843895D02*
X20342378Y-180843895D01*
X20570950Y-180843895D02*
X20570950Y-180043895D01*
X20570950Y-180043895D02*
X20494759Y-180158180D01*
X20494759Y-180158180D02*
X20418569Y-180234371D01*
X20418569Y-180234371D02*
X20342378Y-180272466D01*
X30934264Y-186190600D02*
X31048550Y-186228695D01*
X31048550Y-186228695D02*
X31239026Y-186228695D01*
X31239026Y-186228695D02*
X31315217Y-186190600D01*
X31315217Y-186190600D02*
X31353312Y-186152504D01*
X31353312Y-186152504D02*
X31391407Y-186076314D01*
X31391407Y-186076314D02*
X31391407Y-186000123D01*
X31391407Y-186000123D02*
X31353312Y-185923933D01*
X31353312Y-185923933D02*
X31315217Y-185885838D01*
X31315217Y-185885838D02*
X31239026Y-185847742D01*
X31239026Y-185847742D02*
X31086645Y-185809647D01*
X31086645Y-185809647D02*
X31010455Y-185771552D01*
X31010455Y-185771552D02*
X30972360Y-185733457D01*
X30972360Y-185733457D02*
X30934264Y-185657266D01*
X30934264Y-185657266D02*
X30934264Y-185581076D01*
X30934264Y-185581076D02*
X30972360Y-185504885D01*
X30972360Y-185504885D02*
X31010455Y-185466790D01*
X31010455Y-185466790D02*
X31086645Y-185428695D01*
X31086645Y-185428695D02*
X31277122Y-185428695D01*
X31277122Y-185428695D02*
X31391407Y-185466790D01*
X31658074Y-185428695D02*
X31848550Y-186228695D01*
X31848550Y-186228695D02*
X32000931Y-185657266D01*
X32000931Y-185657266D02*
X32153312Y-186228695D01*
X32153312Y-186228695D02*
X32343789Y-185428695D01*
X32648551Y-186228695D02*
X32648551Y-185428695D01*
X32648551Y-185428695D02*
X32839027Y-185428695D01*
X32839027Y-185428695D02*
X32953313Y-185466790D01*
X32953313Y-185466790D02*
X33029503Y-185542980D01*
X33029503Y-185542980D02*
X33067598Y-185619171D01*
X33067598Y-185619171D02*
X33105694Y-185771552D01*
X33105694Y-185771552D02*
X33105694Y-185885838D01*
X33105694Y-185885838D02*
X33067598Y-186038219D01*
X33067598Y-186038219D02*
X33029503Y-186114409D01*
X33029503Y-186114409D02*
X32953313Y-186190600D01*
X32953313Y-186190600D02*
X32839027Y-186228695D01*
X32839027Y-186228695D02*
X32648551Y-186228695D01*
X33448551Y-186228695D02*
X33448551Y-185428695D01*
X33981884Y-185428695D02*
X34134265Y-185428695D01*
X34134265Y-185428695D02*
X34210455Y-185466790D01*
X34210455Y-185466790D02*
X34286646Y-185542980D01*
X34286646Y-185542980D02*
X34324741Y-185695361D01*
X34324741Y-185695361D02*
X34324741Y-185962028D01*
X34324741Y-185962028D02*
X34286646Y-186114409D01*
X34286646Y-186114409D02*
X34210455Y-186190600D01*
X34210455Y-186190600D02*
X34134265Y-186228695D01*
X34134265Y-186228695D02*
X33981884Y-186228695D01*
X33981884Y-186228695D02*
X33905693Y-186190600D01*
X33905693Y-186190600D02*
X33829503Y-186114409D01*
X33829503Y-186114409D02*
X33791407Y-185962028D01*
X33791407Y-185962028D02*
X33791407Y-185695361D01*
X33791407Y-185695361D02*
X33829503Y-185542980D01*
X33829503Y-185542980D02*
X33905693Y-185466790D01*
X33905693Y-185466790D02*
X33981884Y-185428695D01*
X50162074Y-146566695D02*
X50619217Y-146566695D01*
X50390645Y-147366695D02*
X50390645Y-146566695D01*
X50809693Y-147366695D02*
X51228741Y-146833361D01*
X50809693Y-146833361D02*
X51228741Y-147366695D01*
X51533503Y-147366695D02*
X51533503Y-146566695D01*
X51533503Y-146566695D02*
X51723979Y-146566695D01*
X51723979Y-146566695D02*
X51838265Y-146604790D01*
X51838265Y-146604790D02*
X51914455Y-146680980D01*
X51914455Y-146680980D02*
X51952550Y-146757171D01*
X51952550Y-146757171D02*
X51990646Y-146909552D01*
X51990646Y-146909552D02*
X51990646Y-147023838D01*
X51990646Y-147023838D02*
X51952550Y-147176219D01*
X51952550Y-147176219D02*
X51914455Y-147252409D01*
X51914455Y-147252409D02*
X51838265Y-147328600D01*
X51838265Y-147328600D02*
X51723979Y-147366695D01*
X51723979Y-147366695D02*
X51533503Y-147366695D01*
X42669064Y-176297323D02*
X43050017Y-176297323D01*
X42592874Y-176525895D02*
X42859541Y-175725895D01*
X42859541Y-175725895D02*
X43126207Y-176525895D01*
X43773826Y-176525895D02*
X43392874Y-176525895D01*
X43392874Y-176525895D02*
X43392874Y-175725895D01*
X43926207Y-175725895D02*
X44383350Y-175725895D01*
X44154778Y-176525895D02*
X44154778Y-175725895D01*
X44459541Y-176602085D02*
X45069064Y-176602085D01*
X45259541Y-176525895D02*
X45259541Y-175725895D01*
X25066874Y-163076695D02*
X25333541Y-163876695D01*
X25333541Y-163876695D02*
X25600207Y-163076695D01*
X26324017Y-163800504D02*
X26285921Y-163838600D01*
X26285921Y-163838600D02*
X26171636Y-163876695D01*
X26171636Y-163876695D02*
X26095445Y-163876695D01*
X26095445Y-163876695D02*
X25981159Y-163838600D01*
X25981159Y-163838600D02*
X25904969Y-163762409D01*
X25904969Y-163762409D02*
X25866874Y-163686219D01*
X25866874Y-163686219D02*
X25828778Y-163533838D01*
X25828778Y-163533838D02*
X25828778Y-163419552D01*
X25828778Y-163419552D02*
X25866874Y-163267171D01*
X25866874Y-163267171D02*
X25904969Y-163190980D01*
X25904969Y-163190980D02*
X25981159Y-163114790D01*
X25981159Y-163114790D02*
X26095445Y-163076695D01*
X26095445Y-163076695D02*
X26171636Y-163076695D01*
X26171636Y-163076695D02*
X26285921Y-163114790D01*
X26285921Y-163114790D02*
X26324017Y-163152885D01*
X27124017Y-163800504D02*
X27085921Y-163838600D01*
X27085921Y-163838600D02*
X26971636Y-163876695D01*
X26971636Y-163876695D02*
X26895445Y-163876695D01*
X26895445Y-163876695D02*
X26781159Y-163838600D01*
X26781159Y-163838600D02*
X26704969Y-163762409D01*
X26704969Y-163762409D02*
X26666874Y-163686219D01*
X26666874Y-163686219D02*
X26628778Y-163533838D01*
X26628778Y-163533838D02*
X26628778Y-163419552D01*
X26628778Y-163419552D02*
X26666874Y-163267171D01*
X26666874Y-163267171D02*
X26704969Y-163190980D01*
X26704969Y-163190980D02*
X26781159Y-163114790D01*
X26781159Y-163114790D02*
X26895445Y-163076695D01*
X26895445Y-163076695D02*
X26971636Y-163076695D01*
X26971636Y-163076695D02*
X27085921Y-163114790D01*
X27085921Y-163114790D02*
X27124017Y-163152885D01*
X48663464Y-159584123D02*
X49044417Y-159584123D01*
X48587274Y-159812695D02*
X48853941Y-159012695D01*
X48853941Y-159012695D02*
X49120607Y-159812695D01*
X49311083Y-159012695D02*
X49844417Y-159012695D01*
X49844417Y-159012695D02*
X49311083Y-159812695D01*
X49311083Y-159812695D02*
X49844417Y-159812695D01*
X50149179Y-159812695D02*
X50149179Y-159012695D01*
X50149179Y-159012695D02*
X50415845Y-159584123D01*
X50415845Y-159584123D02*
X50682512Y-159012695D01*
X50682512Y-159012695D02*
X50682512Y-159812695D01*
X50872989Y-159888885D02*
X51482512Y-159888885D01*
X51939655Y-159393647D02*
X52053941Y-159431742D01*
X52053941Y-159431742D02*
X52092036Y-159469838D01*
X52092036Y-159469838D02*
X52130132Y-159546028D01*
X52130132Y-159546028D02*
X52130132Y-159660314D01*
X52130132Y-159660314D02*
X52092036Y-159736504D01*
X52092036Y-159736504D02*
X52053941Y-159774600D01*
X52053941Y-159774600D02*
X51977751Y-159812695D01*
X51977751Y-159812695D02*
X51672989Y-159812695D01*
X51672989Y-159812695D02*
X51672989Y-159012695D01*
X51672989Y-159012695D02*
X51939655Y-159012695D01*
X51939655Y-159012695D02*
X52015846Y-159050790D01*
X52015846Y-159050790D02*
X52053941Y-159088885D01*
X52053941Y-159088885D02*
X52092036Y-159165076D01*
X52092036Y-159165076D02*
X52092036Y-159241266D01*
X52092036Y-159241266D02*
X52053941Y-159317457D01*
X52053941Y-159317457D02*
X52015846Y-159355552D01*
X52015846Y-159355552D02*
X51939655Y-159393647D01*
X51939655Y-159393647D02*
X51672989Y-159393647D01*
X49120664Y-151659323D02*
X49501617Y-151659323D01*
X49044474Y-151887895D02*
X49311141Y-151087895D01*
X49311141Y-151087895D02*
X49577807Y-151887895D01*
X49768283Y-151087895D02*
X50301617Y-151087895D01*
X50301617Y-151087895D02*
X49768283Y-151887895D01*
X49768283Y-151887895D02*
X50301617Y-151887895D01*
X50606379Y-151887895D02*
X50606379Y-151087895D01*
X50606379Y-151087895D02*
X50873045Y-151659323D01*
X50873045Y-151659323D02*
X51139712Y-151087895D01*
X51139712Y-151087895D02*
X51139712Y-151887895D01*
X51330189Y-151964085D02*
X51939712Y-151964085D01*
X52130189Y-151887895D02*
X52130189Y-151087895D01*
X19859826Y-187130447D02*
X19974112Y-187168542D01*
X19974112Y-187168542D02*
X20012207Y-187206638D01*
X20012207Y-187206638D02*
X20050303Y-187282828D01*
X20050303Y-187282828D02*
X20050303Y-187397114D01*
X20050303Y-187397114D02*
X20012207Y-187473304D01*
X20012207Y-187473304D02*
X19974112Y-187511400D01*
X19974112Y-187511400D02*
X19897922Y-187549495D01*
X19897922Y-187549495D02*
X19593160Y-187549495D01*
X19593160Y-187549495D02*
X19593160Y-186749495D01*
X19593160Y-186749495D02*
X19859826Y-186749495D01*
X19859826Y-186749495D02*
X19936017Y-186787590D01*
X19936017Y-186787590D02*
X19974112Y-186825685D01*
X19974112Y-186825685D02*
X20012207Y-186901876D01*
X20012207Y-186901876D02*
X20012207Y-186978066D01*
X20012207Y-186978066D02*
X19974112Y-187054257D01*
X19974112Y-187054257D02*
X19936017Y-187092352D01*
X19936017Y-187092352D02*
X19859826Y-187130447D01*
X19859826Y-187130447D02*
X19593160Y-187130447D01*
X20393160Y-187549495D02*
X20393160Y-186749495D01*
X20393160Y-186749495D02*
X20583636Y-186749495D01*
X20583636Y-186749495D02*
X20697922Y-186787590D01*
X20697922Y-186787590D02*
X20774112Y-186863780D01*
X20774112Y-186863780D02*
X20812207Y-186939971D01*
X20812207Y-186939971D02*
X20850303Y-187092352D01*
X20850303Y-187092352D02*
X20850303Y-187206638D01*
X20850303Y-187206638D02*
X20812207Y-187359019D01*
X20812207Y-187359019D02*
X20774112Y-187435209D01*
X20774112Y-187435209D02*
X20697922Y-187511400D01*
X20697922Y-187511400D02*
X20583636Y-187549495D01*
X20583636Y-187549495D02*
X20393160Y-187549495D01*
X21650303Y-187473304D02*
X21612207Y-187511400D01*
X21612207Y-187511400D02*
X21497922Y-187549495D01*
X21497922Y-187549495D02*
X21421731Y-187549495D01*
X21421731Y-187549495D02*
X21307445Y-187511400D01*
X21307445Y-187511400D02*
X21231255Y-187435209D01*
X21231255Y-187435209D02*
X21193160Y-187359019D01*
X21193160Y-187359019D02*
X21155064Y-187206638D01*
X21155064Y-187206638D02*
X21155064Y-187092352D01*
X21155064Y-187092352D02*
X21193160Y-186939971D01*
X21193160Y-186939971D02*
X21231255Y-186863780D01*
X21231255Y-186863780D02*
X21307445Y-186787590D01*
X21307445Y-186787590D02*
X21421731Y-186749495D01*
X21421731Y-186749495D02*
X21497922Y-186749495D01*
X21497922Y-186749495D02*
X21612207Y-186787590D01*
X21612207Y-186787590D02*
X21650303Y-186825685D01*
X22412207Y-187549495D02*
X21955064Y-187549495D01*
X22183636Y-187549495D02*
X22183636Y-186749495D01*
X22183636Y-186749495D02*
X22107445Y-186863780D01*
X22107445Y-186863780D02*
X22031255Y-186939971D01*
X22031255Y-186939971D02*
X21955064Y-186978066D01*
X39049560Y-165603895D02*
X39049560Y-164803895D01*
X39049560Y-164803895D02*
X39506703Y-165603895D01*
X39506703Y-165603895D02*
X39506703Y-164803895D01*
X40344798Y-165603895D02*
X40078131Y-165222942D01*
X39887655Y-165603895D02*
X39887655Y-164803895D01*
X39887655Y-164803895D02*
X40192417Y-164803895D01*
X40192417Y-164803895D02*
X40268607Y-164841990D01*
X40268607Y-164841990D02*
X40306702Y-164880085D01*
X40306702Y-164880085D02*
X40344798Y-164956276D01*
X40344798Y-164956276D02*
X40344798Y-165070561D01*
X40344798Y-165070561D02*
X40306702Y-165146752D01*
X40306702Y-165146752D02*
X40268607Y-165184847D01*
X40268607Y-165184847D02*
X40192417Y-165222942D01*
X40192417Y-165222942D02*
X39887655Y-165222942D01*
X40649559Y-165565800D02*
X40763845Y-165603895D01*
X40763845Y-165603895D02*
X40954321Y-165603895D01*
X40954321Y-165603895D02*
X41030512Y-165565800D01*
X41030512Y-165565800D02*
X41068607Y-165527704D01*
X41068607Y-165527704D02*
X41106702Y-165451514D01*
X41106702Y-165451514D02*
X41106702Y-165375323D01*
X41106702Y-165375323D02*
X41068607Y-165299133D01*
X41068607Y-165299133D02*
X41030512Y-165261038D01*
X41030512Y-165261038D02*
X40954321Y-165222942D01*
X40954321Y-165222942D02*
X40801940Y-165184847D01*
X40801940Y-165184847D02*
X40725750Y-165146752D01*
X40725750Y-165146752D02*
X40687655Y-165108657D01*
X40687655Y-165108657D02*
X40649559Y-165032466D01*
X40649559Y-165032466D02*
X40649559Y-164956276D01*
X40649559Y-164956276D02*
X40687655Y-164880085D01*
X40687655Y-164880085D02*
X40725750Y-164841990D01*
X40725750Y-164841990D02*
X40801940Y-164803895D01*
X40801940Y-164803895D02*
X40992417Y-164803895D01*
X40992417Y-164803895D02*
X41106702Y-164841990D01*
X41335274Y-164803895D02*
X41792417Y-164803895D01*
X41563845Y-165603895D02*
X41563845Y-164803895D01*
X28445064Y-187460600D02*
X28559350Y-187498695D01*
X28559350Y-187498695D02*
X28749826Y-187498695D01*
X28749826Y-187498695D02*
X28826017Y-187460600D01*
X28826017Y-187460600D02*
X28864112Y-187422504D01*
X28864112Y-187422504D02*
X28902207Y-187346314D01*
X28902207Y-187346314D02*
X28902207Y-187270123D01*
X28902207Y-187270123D02*
X28864112Y-187193933D01*
X28864112Y-187193933D02*
X28826017Y-187155838D01*
X28826017Y-187155838D02*
X28749826Y-187117742D01*
X28749826Y-187117742D02*
X28597445Y-187079647D01*
X28597445Y-187079647D02*
X28521255Y-187041552D01*
X28521255Y-187041552D02*
X28483160Y-187003457D01*
X28483160Y-187003457D02*
X28445064Y-186927266D01*
X28445064Y-186927266D02*
X28445064Y-186851076D01*
X28445064Y-186851076D02*
X28483160Y-186774885D01*
X28483160Y-186774885D02*
X28521255Y-186736790D01*
X28521255Y-186736790D02*
X28597445Y-186698695D01*
X28597445Y-186698695D02*
X28787922Y-186698695D01*
X28787922Y-186698695D02*
X28902207Y-186736790D01*
X29168874Y-186698695D02*
X29359350Y-187498695D01*
X29359350Y-187498695D02*
X29511731Y-186927266D01*
X29511731Y-186927266D02*
X29664112Y-187498695D01*
X29664112Y-187498695D02*
X29854589Y-186698695D01*
X30159351Y-187498695D02*
X30159351Y-186698695D01*
X30159351Y-186698695D02*
X30349827Y-186698695D01*
X30349827Y-186698695D02*
X30464113Y-186736790D01*
X30464113Y-186736790D02*
X30540303Y-186812980D01*
X30540303Y-186812980D02*
X30578398Y-186889171D01*
X30578398Y-186889171D02*
X30616494Y-187041552D01*
X30616494Y-187041552D02*
X30616494Y-187155838D01*
X30616494Y-187155838D02*
X30578398Y-187308219D01*
X30578398Y-187308219D02*
X30540303Y-187384409D01*
X30540303Y-187384409D02*
X30464113Y-187460600D01*
X30464113Y-187460600D02*
X30349827Y-187498695D01*
X30349827Y-187498695D02*
X30159351Y-187498695D01*
X31416494Y-187422504D02*
X31378398Y-187460600D01*
X31378398Y-187460600D02*
X31264113Y-187498695D01*
X31264113Y-187498695D02*
X31187922Y-187498695D01*
X31187922Y-187498695D02*
X31073636Y-187460600D01*
X31073636Y-187460600D02*
X30997446Y-187384409D01*
X30997446Y-187384409D02*
X30959351Y-187308219D01*
X30959351Y-187308219D02*
X30921255Y-187155838D01*
X30921255Y-187155838D02*
X30921255Y-187041552D01*
X30921255Y-187041552D02*
X30959351Y-186889171D01*
X30959351Y-186889171D02*
X30997446Y-186812980D01*
X30997446Y-186812980D02*
X31073636Y-186736790D01*
X31073636Y-186736790D02*
X31187922Y-186698695D01*
X31187922Y-186698695D02*
X31264113Y-186698695D01*
X31264113Y-186698695D02*
X31378398Y-186736790D01*
X31378398Y-186736790D02*
X31416494Y-186774885D01*
X31759351Y-187498695D02*
X31759351Y-186698695D01*
X32216494Y-187498695D02*
X31873636Y-187041552D01*
X32216494Y-186698695D02*
X31759351Y-187155838D01*
D12*
%TO.C,JP3*%
X28774588Y-174187102D02*
X28774588Y-174787102D01*
X28074588Y-175487102D02*
X26674588Y-175487102D01*
X26674588Y-173487102D02*
X28074588Y-173487102D01*
X25974588Y-174787102D02*
X25974588Y-174187102D01*
X28074588Y-175487102D02*
G75*
G03*
X28774588Y-174787102I1J699999D01*
G01*
X28774588Y-174187102D02*
G75*
G03*
X28074588Y-173487102I-699999J1D01*
G01*
X25974588Y-174787102D02*
G75*
G03*
X26674588Y-175487102I700000J0D01*
G01*
X26674588Y-173487102D02*
G75*
G03*
X25974588Y-174187102I0J-700000D01*
G01*
%TO.C,C10*%
X41171287Y-181026978D02*
X41378140Y-180820125D01*
X41892536Y-181748227D02*
X42099389Y-181541374D01*
%TO.C,R9*%
X39427298Y-173895417D02*
X39427298Y-173385969D01*
X40472298Y-173895417D02*
X40472298Y-173385969D01*
%TO.C,R11*%
X37783716Y-172896400D02*
X37274268Y-172896400D01*
X37783716Y-171851400D02*
X37274268Y-171851400D01*
%TO.C,J1*%
X33948607Y-145718387D02*
X34613607Y-146870201D01*
X32796793Y-146383387D02*
X33948607Y-145718387D01*
X31696941Y-147018387D02*
X29445275Y-148318387D01*
X31696941Y-147018387D02*
X33026941Y-149322015D01*
X29445275Y-148318387D02*
X30775275Y-150622015D01*
X33026941Y-149322015D02*
X30775275Y-150622015D01*
%TO.C,SW1*%
X43247399Y-150841486D02*
X42404399Y-149381367D01*
X41697723Y-149789367D02*
X42404399Y-149381367D01*
X41697723Y-149789367D02*
X38937723Y-145008907D01*
X46345681Y-147105867D02*
X47588427Y-146388367D01*
X47588427Y-146388367D02*
X44828427Y-141607907D01*
X38937723Y-145008907D02*
X40180469Y-144291407D01*
X43585681Y-142325407D02*
X44828427Y-141607907D01*
%TO.C,C8*%
X25266342Y-190032044D02*
X25548908Y-189956330D01*
X25530338Y-191017288D02*
X25812904Y-190941574D01*
%TO.C,R7*%
X39134338Y-146624059D02*
X39389062Y-147065253D01*
X38229342Y-147146559D02*
X38484066Y-147587753D01*
%TO.C,R8*%
X36576099Y-145349195D02*
X36134905Y-145603919D01*
X36053599Y-144444199D02*
X35612405Y-144698923D01*
%TO.C,Q2*%
X33800714Y-173658693D02*
X32000714Y-173658693D01*
X33800714Y-173658693D02*
X34600714Y-173658693D01*
X33800714Y-176778693D02*
X33000714Y-176778693D01*
X33800714Y-176778693D02*
X34600714Y-176778693D01*
%TO.C,C13*%
X31176355Y-169151912D02*
X30969502Y-168945059D01*
X31897604Y-168430663D02*
X31690751Y-168223810D01*
%TO.C,R12*%
X37836415Y-177316011D02*
X37326967Y-177316011D01*
X37836415Y-176271011D02*
X37326967Y-176271011D01*
%TO.C,R13*%
X35919813Y-177582487D02*
X35919813Y-179052487D01*
X35919813Y-179052487D02*
X38379813Y-179052487D01*
X38379813Y-177582487D02*
X35919813Y-177582487D01*
%TO.C,VR1*%
X20514211Y-173757492D02*
X21214211Y-173757492D01*
X22114211Y-173257492D02*
X22514211Y-173257492D01*
X20514211Y-173057492D02*
X20514211Y-173757492D01*
X20714211Y-172157492D02*
X20714211Y-169257492D01*
X23914211Y-172157492D02*
X23914211Y-169257492D01*
X20714211Y-169257492D02*
X21314211Y-169257492D01*
X23914211Y-169257492D02*
X23314211Y-169257492D01*
%TO.C,TP2*%
X37994158Y-168712087D02*
G75*
G03*
X37994158Y-168712087I-949999J0D01*
G01*
%TO.C,C2*%
X46560970Y-163418021D02*
X46307628Y-163271754D01*
X47070970Y-162534676D02*
X46817628Y-162388409D01*
%TO.C,R15*%
X33362687Y-172156196D02*
X33872135Y-172156196D01*
X33362687Y-173201196D02*
X33872135Y-173201196D01*
%TO.C,R6*%
X48584099Y-144817800D02*
X48838823Y-145258994D01*
X47679103Y-145340300D02*
X47933827Y-145781494D01*
%TO.C,C11*%
X26239371Y-173015899D02*
X25946837Y-173015899D01*
X26239371Y-171995899D02*
X25946837Y-171995899D01*
%TO.C,U4*%
X41526737Y-184259682D02*
X40854986Y-183587930D01*
X41738869Y-184259682D02*
X41526737Y-184259682D01*
X42693463Y-184224327D02*
X42339910Y-184224327D01*
X42693463Y-184224327D02*
X44531941Y-182385849D01*
X44531941Y-182385849D02*
X44531941Y-182032296D01*
X44531941Y-181466610D02*
X44531941Y-181254478D01*
X43860190Y-180582727D02*
X44531941Y-181254478D01*
%TO.C,R16*%
X31396707Y-173287570D02*
X31396707Y-173797018D01*
X30351707Y-173287570D02*
X30351707Y-173797018D01*
%TO.C,R25*%
X33170889Y-150108937D02*
X33612083Y-149854213D01*
X33693389Y-151013933D02*
X34134583Y-150759209D01*
%TO.C,C18*%
X23049161Y-187566509D02*
X22526657Y-187566509D01*
X23049161Y-186096509D02*
X22526657Y-186096509D01*
%TO.C,JP4*%
X28774627Y-176727092D02*
X28774627Y-177327092D01*
X28074627Y-178027092D02*
X26674627Y-178027092D01*
X26674627Y-176027092D02*
X28074627Y-176027092D01*
X25974627Y-177327092D02*
X25974627Y-176727092D01*
X28074627Y-178027092D02*
G75*
G03*
X28774627Y-177327092I1J699999D01*
G01*
X28774627Y-176727092D02*
G75*
G03*
X28074627Y-176027092I-699999J1D01*
G01*
X25974627Y-177327092D02*
G75*
G03*
X26674627Y-178027092I700000J0D01*
G01*
X26674627Y-176027092D02*
G75*
G03*
X25974627Y-176727092I0J-700000D01*
G01*
%TO.C,L1*%
X29199226Y-164526522D02*
X29517424Y-164844720D01*
X29199226Y-164526522D02*
X33583288Y-160142460D01*
X33583288Y-168910584D02*
X33265090Y-168592386D01*
X33583288Y-160142460D02*
X33901486Y-160460658D01*
X37967350Y-164526522D02*
X33583288Y-168910584D01*
X37967350Y-164526522D02*
X37649152Y-164208324D01*
%TO.C,S1*%
X46313370Y-165493508D02*
X44581320Y-164493508D01*
X46914203Y-167052835D02*
X47078915Y-167667546D01*
X42930487Y-164752835D02*
X42315775Y-164917546D01*
X47078915Y-167667546D02*
X45828915Y-169832610D01*
X42315775Y-164917546D02*
X41065775Y-167082610D01*
X45214203Y-169997321D02*
X45828915Y-169832610D01*
X41230487Y-167697321D02*
X41065775Y-167082610D01*
X43563370Y-170256648D02*
X41831320Y-169256648D01*
%TO.C,L2*%
X27272414Y-156687388D02*
X27590612Y-157005586D01*
X27272414Y-156687388D02*
X31656476Y-152303326D01*
X31656476Y-161071450D02*
X31338278Y-160753252D01*
X31656476Y-152303326D02*
X31974674Y-152621524D01*
X36040538Y-156687388D02*
X31656476Y-161071450D01*
X36040538Y-156687388D02*
X35722340Y-156369190D01*
%TO.C,J3*%
X54972826Y-161085108D02*
X53642826Y-161085108D01*
X54972826Y-159755108D02*
X54972826Y-161085108D01*
X54972826Y-158485108D02*
X54972826Y-148265108D01*
X54972826Y-158485108D02*
X52312826Y-158485108D01*
X54972826Y-148265108D02*
X52312826Y-148265108D01*
X52312826Y-158485108D02*
X52312826Y-148265108D01*
%TO.C,R5*%
X49903945Y-144055803D02*
X50158669Y-144496997D01*
X48998949Y-144578303D02*
X49253673Y-145019497D01*
%TO.C,TP3*%
X53932402Y-145785099D02*
G75*
G03*
X53932402Y-145785099I-950000J0D01*
G01*
%TO.C,Q1*%
X33738914Y-177148700D02*
X31938914Y-177148700D01*
X33738914Y-177148700D02*
X34538914Y-177148700D01*
X33738914Y-180268700D02*
X32938914Y-180268700D01*
X33738914Y-180268700D02*
X34538914Y-180268700D01*
%TO.C,F1*%
X25723735Y-165914016D02*
X25354268Y-166283483D01*
X24684288Y-164874569D02*
X24314821Y-165244036D01*
%TO.C,TP4*%
X53068813Y-143041899D02*
G75*
G03*
X53068813Y-143041899I-950000J0D01*
G01*
%TO.C,R18*%
X37783726Y-180465600D02*
X37274278Y-180465600D01*
X37783726Y-179420600D02*
X37274278Y-179420600D01*
%TO.C,J4*%
X50156290Y-168122805D02*
X51308104Y-168787805D01*
X49491290Y-169274619D02*
X50156290Y-168122805D01*
X48856290Y-170374471D02*
X43746290Y-179225251D01*
X48856290Y-170374471D02*
X51159918Y-171704471D01*
X43746290Y-179225251D02*
X46049918Y-180555251D01*
X51159918Y-171704471D02*
X46049918Y-180555251D01*
%TO.C,J5*%
X23601238Y-164582381D02*
X22660786Y-163641929D01*
X24541690Y-163641929D02*
X23601238Y-164582381D01*
X25439716Y-162743903D02*
X27278193Y-160905426D01*
X25439716Y-162743903D02*
X23558812Y-160862999D01*
X27278193Y-160905426D02*
X25397289Y-159024522D01*
X23558812Y-160862999D02*
X25397289Y-159024522D01*
%TO.C,U5*%
X36844221Y-175718303D02*
X38244221Y-175718303D01*
X38244221Y-173398303D02*
X36344221Y-173398303D01*
%TO.C,U2*%
X24007941Y-192995927D02*
X23762062Y-192078298D01*
X24191652Y-193101993D02*
X24007941Y-192995927D01*
X25036033Y-193548672D02*
X24729846Y-193371895D01*
X25036033Y-193548672D02*
X27547440Y-192875742D01*
X27547440Y-192875742D02*
X27724217Y-192569556D01*
X28007059Y-192079658D02*
X28113125Y-191895946D01*
X27867247Y-190978317D02*
X28113125Y-191895946D01*
%TO.C,C20*%
X35147603Y-158455504D02*
X35517070Y-158086037D01*
X36187050Y-159494951D02*
X36556517Y-159125484D01*
%TO.C,J2*%
X29823496Y-191950302D02*
X29158496Y-190798488D01*
X30975310Y-191285302D02*
X29823496Y-191950302D01*
X32075162Y-190650302D02*
X40925942Y-185540302D01*
X32075162Y-190650302D02*
X30745162Y-188346674D01*
X40925942Y-185540302D02*
X39595942Y-183236674D01*
X30745162Y-188346674D02*
X39595942Y-183236674D01*
%TO.C,JP5*%
X28292293Y-185558296D02*
X28292293Y-186158296D01*
X27592293Y-186858296D02*
X26192293Y-186858296D01*
X26192293Y-184858296D02*
X27592293Y-184858296D01*
X25492293Y-186158296D02*
X25492293Y-185558296D01*
X27592293Y-186858296D02*
G75*
G03*
X28292293Y-186158296I1J699999D01*
G01*
X28292293Y-185558296D02*
G75*
G03*
X27592293Y-184858296I-699999J1D01*
G01*
X25492293Y-186158296D02*
G75*
G03*
X26192293Y-186858296I700000J0D01*
G01*
X26192293Y-184858296D02*
G75*
G03*
X25492293Y-185558296I0J-700000D01*
G01*
%TD*%
M02*
