%TF.GenerationSoftware,KiCad,Pcbnew,7.0.7*%
%TF.CreationDate,2023-12-04T17:40:57-05:00*%
%TF.ProjectId,PEEKbot_APS,5045454b-626f-4745-9f41-50532e6b6963,rev?*%
%TF.SameCoordinates,Original*%
%TF.FileFunction,Paste,Top*%
%TF.FilePolarity,Positive*%
%FSLAX46Y46*%
G04 Gerber Fmt 4.6, Leading zero omitted, Abs format (unit mm)*
G04 Created by KiCad (PCBNEW 7.0.7) date 2023-12-04 17:40:57*
%MOMM*%
%LPD*%
G01*
G04 APERTURE LIST*
G04 Aperture macros list*
%AMRoundRect*
0 Rectangle with rounded corners*
0 $1 Rounding radius*
0 $2 $3 $4 $5 $6 $7 $8 $9 X,Y pos of 4 corners*
0 Add a 4 corners polygon primitive as box body*
4,1,4,$2,$3,$4,$5,$6,$7,$8,$9,$2,$3,0*
0 Add four circle primitives for the rounded corners*
1,1,$1+$1,$2,$3*
1,1,$1+$1,$4,$5*
1,1,$1+$1,$6,$7*
1,1,$1+$1,$8,$9*
0 Add four rect primitives between the rounded corners*
20,1,$1+$1,$2,$3,$4,$5,0*
20,1,$1+$1,$4,$5,$6,$7,0*
20,1,$1+$1,$6,$7,$8,$9,0*
20,1,$1+$1,$8,$9,$2,$3,0*%
%AMRotRect*
0 Rectangle, with rotation*
0 The origin of the aperture is its center*
0 $1 length*
0 $2 width*
0 $3 Rotation angle, in degrees counterclockwise*
0 Add horizontal line*
21,1,$1,$2,0,0,$3*%
G04 Aperture macros list end*
%ADD10RoundRect,0.237500X-0.044194X-0.380070X0.380070X0.044194X0.044194X0.380070X-0.380070X-0.044194X0*%
%ADD11RoundRect,0.237500X0.237500X-0.250000X0.237500X0.250000X-0.237500X0.250000X-0.237500X-0.250000X0*%
%ADD12RoundRect,0.237500X0.250000X0.237500X-0.250000X0.237500X-0.250000X-0.237500X0.250000X-0.237500X0*%
%ADD13RotRect,1.270000X0.760000X120.000000*%
%ADD14RoundRect,0.237500X-0.228308X-0.307053X0.351247X-0.151762X0.228308X0.307053X-0.351247X0.151762X0*%
%ADD15RoundRect,0.237500X-0.330681X0.097756X-0.080681X-0.335256X0.330681X-0.097756X0.080681X0.335256X0*%
%ADD16RoundRect,0.237500X0.097756X0.330681X-0.335256X0.080681X-0.097756X-0.330681X0.335256X-0.080681X0*%
%ADD17RoundRect,0.150000X-0.512500X-0.150000X0.512500X-0.150000X0.512500X0.150000X-0.512500X0.150000X0*%
%ADD18RoundRect,0.237500X0.380070X-0.044194X-0.044194X0.380070X-0.380070X0.044194X0.044194X-0.380070X0*%
%ADD19RoundRect,0.237500X-0.287500X-0.237500X0.287500X-0.237500X0.287500X0.237500X-0.287500X0.237500X0*%
%ADD20R,1.200000X1.200000*%
%ADD21R,1.600000X1.500000*%
%ADD22RoundRect,0.237500X0.378558X0.055681X-0.141058X0.355681X-0.378558X-0.055681X0.141058X-0.355681X0*%
%ADD23RoundRect,0.237500X-0.250000X-0.237500X0.250000X-0.237500X0.250000X0.237500X-0.250000X0.237500X0*%
%ADD24RoundRect,0.237500X0.300000X0.237500X-0.300000X0.237500X-0.300000X-0.237500X0.300000X-0.237500X0*%
%ADD25RoundRect,0.237500X-0.237500X0.250000X-0.237500X-0.250000X0.237500X-0.250000X0.237500X0.250000X0*%
%ADD26RoundRect,0.237500X-0.097756X-0.330681X0.335256X-0.080681X0.097756X0.330681X-0.335256X0.080681X0*%
%ADD27RoundRect,0.250000X0.337500X0.475000X-0.337500X0.475000X-0.337500X-0.475000X0.337500X-0.475000X0*%
%ADD28RotRect,2.350000X5.100000X45.000000*%
%ADD29RotRect,1.700000X1.000000X240.000000*%
%ADD30RoundRect,0.250000X-0.097227X0.574524X-0.574524X0.097227X0.097227X-0.574524X0.574524X-0.097227X0*%
%ADD31R,0.650000X0.400000*%
%ADD32RoundRect,0.250000X0.097227X-0.574524X0.574524X-0.097227X-0.097227X0.574524X-0.574524X0.097227X0*%
G04 APERTURE END LIST*
D10*
%TO.C,C10*%
X41025458Y-181894056D03*
X42245218Y-180674296D03*
%TD*%
D11*
%TO.C,R9*%
X39949798Y-174553193D03*
X39949798Y-172728193D03*
%TD*%
D12*
%TO.C,R11*%
X38441492Y-172373900D03*
X36616492Y-172373900D03*
%TD*%
D13*
%TO.C,SW1*%
X43518297Y-149950694D03*
X44618149Y-149315694D03*
X45718001Y-148680694D03*
X46817853Y-148045694D03*
X43007853Y-141446580D03*
X41908001Y-142081580D03*
X40808149Y-142716580D03*
X39708297Y-143351580D03*
%TD*%
D14*
%TO.C,C8*%
X24706512Y-190710040D03*
X26372734Y-190263578D03*
%TD*%
D15*
%TO.C,R7*%
X38352952Y-146315658D03*
X39265452Y-147896154D03*
%TD*%
D16*
%TO.C,R8*%
X36884500Y-144567809D03*
X35304004Y-145480309D03*
%TD*%
D17*
%TO.C,Q2*%
X32663214Y-174268693D03*
X32663214Y-176168693D03*
X34938214Y-175218693D03*
%TD*%
D18*
%TO.C,C13*%
X32043433Y-169297741D03*
X30823673Y-168077981D03*
%TD*%
D12*
%TO.C,R12*%
X38494191Y-176793511D03*
X36669191Y-176793511D03*
%TD*%
D19*
%TO.C,R13*%
X36704813Y-178317487D03*
X38454813Y-178317487D03*
%TD*%
D20*
%TO.C,VR1*%
X21314211Y-172957492D03*
D21*
X22314211Y-169707492D03*
D20*
X23314211Y-172957492D03*
%TD*%
D22*
%TO.C,C2*%
X47436246Y-163334465D03*
X45942352Y-162471965D03*
%TD*%
D23*
%TO.C,R15*%
X32704911Y-172678696D03*
X34529911Y-172678696D03*
%TD*%
D15*
%TO.C,R6*%
X47802713Y-144509399D03*
X48715213Y-146089895D03*
%TD*%
D24*
%TO.C,C11*%
X26955604Y-172505899D03*
X25230604Y-172505899D03*
%TD*%
D25*
%TO.C,R16*%
X30874207Y-172629794D03*
X30874207Y-174454794D03*
%TD*%
D26*
%TO.C,R25*%
X32862488Y-150890323D03*
X34442984Y-149977823D03*
%TD*%
D27*
%TO.C,C18*%
X23825409Y-186831509D03*
X21750409Y-186831509D03*
%TD*%
D28*
%TO.C,L1*%
X32116041Y-165993769D03*
X35050535Y-163059275D03*
%TD*%
D29*
%TO.C,S1*%
X47292793Y-165597098D03*
X44142793Y-171053058D03*
X44001897Y-163697098D03*
X40851897Y-169153058D03*
%TD*%
D28*
%TO.C,L2*%
X30189229Y-158154635D03*
X33123723Y-155220141D03*
%TD*%
D15*
%TO.C,R5*%
X49122559Y-143747402D03*
X50035059Y-145327898D03*
%TD*%
D17*
%TO.C,Q1*%
X32601414Y-177758700D03*
X32601414Y-179658700D03*
X34876414Y-178708700D03*
%TD*%
D30*
%TO.C,F1*%
X25752901Y-164845403D03*
X24285655Y-166312649D03*
%TD*%
D12*
%TO.C,R18*%
X38441502Y-179943100D03*
X36616502Y-179943100D03*
%TD*%
D31*
%TO.C,U5*%
X36594221Y-173908303D03*
X36594221Y-174558303D03*
X36594221Y-175208303D03*
X38494221Y-175208303D03*
X38494221Y-174558303D03*
X38494221Y-173908303D03*
%TD*%
D32*
%TO.C,C20*%
X35118437Y-159524117D03*
X36585683Y-158056871D03*
%TD*%
M02*
