%TF.GenerationSoftware,KiCad,Pcbnew,7.0.7*%
%TF.CreationDate,2023-12-04T17:40:57-05:00*%
%TF.ProjectId,PEEKbot_APS,5045454b-626f-4745-9f41-50532e6b6963,rev?*%
%TF.SameCoordinates,Original*%
%TF.FileFunction,Copper,L2,Inr*%
%TF.FilePolarity,Positive*%
%FSLAX46Y46*%
G04 Gerber Fmt 4.6, Leading zero omitted, Abs format (unit mm)*
G04 Created by KiCad (PCBNEW 7.0.7) date 2023-12-04 17:40:57*
%MOMM*%
%LPD*%
G01*
G04 APERTURE LIST*
G04 Aperture macros list*
%AMRoundRect*
0 Rectangle with rounded corners*
0 $1 Rounding radius*
0 $2 $3 $4 $5 $6 $7 $8 $9 X,Y pos of 4 corners*
0 Add a 4 corners polygon primitive as box body*
4,1,4,$2,$3,$4,$5,$6,$7,$8,$9,$2,$3,0*
0 Add four circle primitives for the rounded corners*
1,1,$1+$1,$2,$3*
1,1,$1+$1,$4,$5*
1,1,$1+$1,$6,$7*
1,1,$1+$1,$8,$9*
0 Add four rect primitives between the rounded corners*
20,1,$1+$1,$2,$3,$4,$5,0*
20,1,$1+$1,$4,$5,$6,$7,0*
20,1,$1+$1,$6,$7,$8,$9,0*
20,1,$1+$1,$8,$9,$2,$3,0*%
%AMHorizOval*
0 Thick line with rounded ends*
0 $1 width*
0 $2 $3 position (X,Y) of the first rounded end (center of the circle)*
0 $4 $5 position (X,Y) of the second rounded end (center of the circle)*
0 Add line between two ends*
20,1,$1,$2,$3,$4,$5,0*
0 Add two circle primitives to create the rounded ends*
1,1,$1,$2,$3*
1,1,$1,$4,$5*%
%AMRotRect*
0 Rectangle, with rotation*
0 The origin of the aperture is its center*
0 $1 length*
0 $2 width*
0 $3 Rotation angle, in degrees counterclockwise*
0 Add horizontal line*
21,1,$1,$2,0,0,$3*%
G04 Aperture macros list end*
%TA.AperFunction,ComponentPad*%
%ADD10RoundRect,0.250001X0.899999X0.899999X-0.899999X0.899999X-0.899999X-0.899999X0.899999X-0.899999X0*%
%TD*%
%TA.AperFunction,ComponentPad*%
%ADD11RotRect,1.700000X1.700000X300.000000*%
%TD*%
%TA.AperFunction,ComponentPad*%
%ADD12HorizOval,1.700000X0.000000X0.000000X0.000000X0.000000X0*%
%TD*%
%TA.AperFunction,ComponentPad*%
%ADD13RoundRect,0.249900X0.088388X-0.477438X0.477438X-0.088388X-0.088388X0.477438X-0.477438X0.088388X0*%
%TD*%
%TA.AperFunction,ComponentPad*%
%ADD14HorizOval,1.050000X-0.088388X0.088388X0.088388X-0.088388X0*%
%TD*%
%TA.AperFunction,ComponentPad*%
%ADD15R,1.700000X1.700000*%
%TD*%
%TA.AperFunction,ComponentPad*%
%ADD16O,1.700000X1.700000*%
%TD*%
%TA.AperFunction,ComponentPad*%
%ADD17RotRect,1.700000X1.700000X330.000000*%
%TD*%
%TA.AperFunction,ComponentPad*%
%ADD18HorizOval,1.700000X0.000000X0.000000X0.000000X0.000000X0*%
%TD*%
%TA.AperFunction,ComponentPad*%
%ADD19RotRect,1.700000X1.700000X135.000000*%
%TD*%
%TA.AperFunction,ComponentPad*%
%ADD20HorizOval,1.700000X0.000000X0.000000X0.000000X0.000000X0*%
%TD*%
%TA.AperFunction,ComponentPad*%
%ADD21RoundRect,0.249900X-0.162173X-0.457668X0.369280X-0.315266X0.162173X0.457668X-0.369280X0.315266X0*%
%TD*%
%TA.AperFunction,ComponentPad*%
%ADD22HorizOval,1.050000X-0.032352X0.120741X0.032352X-0.120741X0*%
%TD*%
%TA.AperFunction,ComponentPad*%
%ADD23RotRect,1.700000X1.700000X120.000000*%
%TD*%
%TA.AperFunction,ComponentPad*%
%ADD24HorizOval,1.700000X0.000000X0.000000X0.000000X0.000000X0*%
%TD*%
%TA.AperFunction,ComponentPad*%
%ADD25C,0.600000*%
%TD*%
%TA.AperFunction,ComponentPad*%
%ADD26C,0.500000*%
%TD*%
%TA.AperFunction,ViaPad*%
%ADD27C,0.800000*%
%TD*%
%TA.AperFunction,ViaPad*%
%ADD28C,0.500000*%
%TD*%
%TA.AperFunction,Conductor*%
%ADD29C,0.250000*%
%TD*%
%TA.AperFunction,Conductor*%
%ADD30C,0.500000*%
%TD*%
G04 APERTURE END LIST*
D10*
%TO.N,Net-(U6-BOUT2)*%
%TO.C,H2*%
X18148613Y-173979091D03*
%TD*%
D11*
%TO.N,OUT_B*%
%TO.C,J1*%
X33461793Y-147535201D03*
D12*
%TO.N,OUT_A*%
X31262088Y-148805201D03*
%TD*%
D10*
%TO.N,Net-(U6-BOUT1)*%
%TO.C,H4*%
X18148607Y-170677104D03*
%TD*%
%TO.N,Net-(U8-OUT1)*%
%TO.C,H5*%
X18118597Y-187187097D03*
%TD*%
%TO.N,Net-(U6-AOUT2)*%
%TO.C,H3*%
X18148617Y-177281105D03*
%TD*%
D13*
%TO.N,+3V3*%
%TO.C,U4*%
X41922717Y-183439438D03*
D14*
%TO.N,END_ALT*%
X42820743Y-182541412D03*
%TO.N,GND*%
X43718768Y-181643387D03*
%TD*%
D15*
%TO.N,ENC_B_AZM*%
%TO.C,J3*%
X53642826Y-159755108D03*
D16*
%TO.N,+3V3*%
X53642826Y-157215108D03*
%TO.N,ENC_A_AZM*%
X53642826Y-154675108D03*
%TO.N,ENC_I_AZM*%
X53642826Y-152135108D03*
%TO.N,GND*%
X53642826Y-149595108D03*
%TD*%
D10*
%TO.N,Net-(U8-OUT2)*%
%TO.C,H6*%
X18148593Y-183885098D03*
%TD*%
D17*
%TO.N,ENC_B_ALT*%
%TO.C,J4*%
X50643104Y-169939619D03*
D18*
%TO.N,+3V3*%
X49373104Y-172139324D03*
%TO.N,ENC_A_ALT*%
X48103104Y-174339028D03*
%TO.N,ENC_I_ALT*%
X46833104Y-176538733D03*
%TO.N,GND*%
X45563104Y-178738437D03*
%TD*%
D19*
%TO.N,VCC*%
%TO.C,J5*%
X23601238Y-162701477D03*
D20*
%TO.N,GND*%
X25397289Y-160905426D03*
%TD*%
D21*
%TO.N,+3V3*%
%TO.C,U2*%
X24760991Y-192483565D03*
D22*
%TO.N,END_AZM*%
X25987717Y-192154865D03*
%TO.N,GND*%
X27214443Y-191826165D03*
%TD*%
D23*
%TO.N,GND*%
%TO.C,J2*%
X30310310Y-190133488D03*
D24*
%TO.N,SWDCLK*%
X32510015Y-188863488D03*
%TO.N,SWDIO*%
X34709719Y-187593488D03*
%TO.N,NRST*%
X36909424Y-186323488D03*
%TO.N,+3V3*%
X39109128Y-185053488D03*
%TD*%
D10*
%TO.N,Net-(U6-AOUT1)*%
%TO.C,H1*%
X18148596Y-180583103D03*
%TD*%
D25*
%TO.N,GND*%
%TO.C,U8*%
X22787916Y-184096304D03*
X22787916Y-185096304D03*
%TD*%
D26*
%TO.N,GND*%
%TO.C,U1*%
X44145019Y-146683615D03*
X43645019Y-145817590D03*
X43145019Y-144951565D03*
X43019185Y-147333615D03*
X42519185Y-146467590D03*
X42019185Y-145601565D03*
%TD*%
%TO.N,GND*%
%TO.C,U6*%
X22216501Y-175213900D03*
X22216501Y-176393900D03*
X23396501Y-175213900D03*
X23396501Y-176393900D03*
%TD*%
D27*
%TO.N,+3V3*%
X44127535Y-160970167D03*
X45870395Y-153303498D03*
X38184491Y-143411937D03*
X28134418Y-158732321D03*
X44752794Y-158231094D03*
X29212056Y-159809947D03*
X44956017Y-160970162D03*
X30325606Y-160923508D03*
%TO.N,GND*%
X28024599Y-172505897D03*
D28*
X42834918Y-154510191D03*
X40193308Y-159844198D03*
D27*
X44308115Y-154154598D03*
X51050068Y-144724160D03*
D28*
X25073917Y-186831489D03*
X23854699Y-188050688D03*
X37478214Y-175218702D03*
D27*
X28837418Y-178754291D03*
X28837409Y-179668693D03*
X35751011Y-181060703D03*
X32601409Y-180806694D03*
X33450737Y-169867839D03*
X43139707Y-155373806D03*
X47452224Y-142251884D03*
D28*
X42072915Y-153748197D03*
D27*
X41579850Y-167872234D03*
D28*
X45972013Y-160809401D03*
D27*
X31544810Y-176671507D03*
X48829288Y-155932599D03*
X29679026Y-162791402D03*
X49314317Y-147134111D03*
X37509833Y-157115879D03*
X43256252Y-164968619D03*
X36614600Y-181060707D03*
X34061390Y-169257181D03*
X31280593Y-179638307D03*
X48829305Y-157456604D03*
X33160217Y-171561110D03*
D28*
X37498116Y-173948690D03*
X21837397Y-183427903D03*
D27*
X29966409Y-168897974D03*
D28*
X39431314Y-159133007D03*
X40180804Y-175503101D03*
D27*
X26957805Y-171489902D03*
X31646412Y-162091890D03*
D28*
X40983403Y-174558307D03*
D27*
X20876797Y-174131493D03*
X38884322Y-149662223D03*
X38802978Y-164515613D03*
D28*
X35293796Y-176895104D03*
D27*
X38758418Y-166155897D03*
D28*
X34481008Y-176895094D03*
D27*
X47610119Y-153240205D03*
D28*
X24367006Y-174436304D03*
X21892807Y-178652696D03*
D27*
X37581664Y-159055610D03*
X32296601Y-171561116D03*
X48829304Y-154408599D03*
X34887410Y-180806697D03*
D28*
%TO.N,NRST*%
X47445210Y-161486893D03*
%TO.N,EN*%
X31280611Y-175421904D03*
D27*
X31223645Y-170155204D03*
%TO.N,+12V*%
X25093204Y-180633909D03*
D28*
X39510204Y-178622295D03*
D27*
X22553207Y-179567100D03*
X23359851Y-167258293D03*
D28*
X39510187Y-177098303D03*
D27*
X34815746Y-168502848D03*
D28*
X31179011Y-171611893D03*
D27*
X25956809Y-180633892D03*
X24320167Y-167629081D03*
X25299591Y-167330139D03*
D28*
X39053011Y-173237488D03*
D27*
X22999359Y-166308280D03*
X35426402Y-167892185D03*
X23252080Y-165282651D03*
D28*
X30569409Y-171611903D03*
X39510214Y-176539499D03*
D27*
X22197606Y-188203096D03*
X21334011Y-188203107D03*
D28*
X39510207Y-178012704D03*
%TO.N,STEP_DVDD*%
X24519405Y-173521906D03*
X22435931Y-171790562D03*
%TO.N,ENC_A_AZM*%
X49817128Y-159090561D03*
%TO.N,ENC_I_AZM*%
X49410734Y-152588163D03*
%TO.N,ENC_I_ALT*%
X49563138Y-167828162D03*
%TO.N,CFG_PWR*%
X39556930Y-156843068D03*
%TO.N,LP_TxD*%
X50237740Y-147755642D03*
%TO.N,LP_RxD*%
X49901103Y-142905347D03*
%TO.N,BDC_nSLEEP*%
X46870733Y-171688962D03*
X29101814Y-184378043D03*
%TO.N,STEP_FAULT*%
X43416332Y-162240163D03*
X28938331Y-175448159D03*
%TO.N,STEP_nSLEEP*%
X41181125Y-175803769D03*
X51442736Y-166507372D03*
%TO.N,Net-(Q1-G)*%
X33820610Y-174863106D03*
%TO.N,LPUART_DE*%
X49239232Y-148666856D03*
X48070841Y-143028065D03*
%TO.N,CFG1*%
X38631133Y-160949672D03*
%TO.N,CFG2*%
X38021534Y-161457672D03*
%TO.N,CFG3*%
X39099728Y-153236261D03*
X38693332Y-162634257D03*
%TO.N,CFG4*%
X39658521Y-163447060D03*
X37053749Y-152947803D03*
%TO.N,FB-3.3V*%
X37330221Y-167353362D03*
%TO.N,MOFF*%
X35547813Y-172678697D03*
%TO.N,HEAT*%
X38004874Y-180834950D03*
%TO.N,TEMP*%
X41408481Y-170370153D03*
X51407604Y-165495500D03*
%TO.N,STEP_PWM*%
X45397536Y-164780161D03*
X32291135Y-170622167D03*
%TO.N,STEP_DIR*%
X39453934Y-170418961D03*
X44635532Y-165440567D03*
%TO.N,END_AZM*%
X44330733Y-166608967D03*
%TO.N,END_ALT*%
X45549923Y-166304163D03*
%TO.N,BDC_PWM*%
X44940332Y-173212957D03*
X28096020Y-182222770D03*
%TO.N,BDC_DIR*%
X28850369Y-182833434D03*
X45956336Y-173162158D03*
D27*
%TO.N,Net-(U7-SW)*%
X28781006Y-167712587D03*
%TO.N,Net-(C15-Pad1)*%
X36446732Y-161965675D03*
X37767532Y-163184869D03*
X37107134Y-162575271D03*
X35837134Y-161305274D03*
D28*
%TO.N,Net-(U6-AOUT1)*%
X21319016Y-177382698D03*
%TO.N,Net-(U6-BOUT2)*%
X19947411Y-175960309D03*
%TO.N,Net-(U6-AOUT2)*%
X20303016Y-176925495D03*
D27*
%TO.N,Net-(U6-BOUT1)*%
X20150606Y-174995097D03*
D28*
%TO.N,Net-(U8-OUT1)*%
X20857524Y-185053494D03*
%TO.N,Net-(U8-OUT2)*%
X20857511Y-184139112D03*
%TO.N,Net-(JP3-B)*%
X25585534Y-177124562D03*
%TO.N,Net-(JP4-B)*%
X25636333Y-177886558D03*
%TO.N,Net-(JP5-B)*%
X25175514Y-185866295D03*
%TO.N,Net-(Q1-D)*%
X33738914Y-178708700D03*
%TO.N,Net-(U6-VREF)*%
X23655798Y-171642308D03*
%TD*%
D29*
%TO.N,BDC_nSLEEP*%
X39153885Y-183336455D02*
X30143398Y-183336457D01*
X42151077Y-178002454D02*
X42151087Y-180339248D01*
X42151087Y-180339248D02*
X39153885Y-183336455D01*
X30143398Y-183336457D02*
X29101814Y-184378043D01*
X46875491Y-171652456D02*
X46875486Y-173278055D01*
X46875486Y-173278055D02*
X42151077Y-178002454D01*
%TO.N,STEP_FAULT*%
X34627935Y-172450964D02*
X34627930Y-171130163D01*
X28938331Y-175448159D02*
X29700324Y-175448165D01*
X40266731Y-163814967D02*
X41841531Y-162240166D01*
X34627930Y-171130163D02*
X35847131Y-169910963D01*
X35847131Y-169910963D02*
X37675938Y-169910964D01*
X40266734Y-167320159D02*
X40266731Y-163814967D01*
X33916731Y-173162168D02*
X34627935Y-172450964D01*
X41841531Y-162240166D02*
X43416332Y-162240163D01*
X31986321Y-173162165D02*
X33916731Y-173162168D01*
X29700324Y-175448165D02*
X31986321Y-173162165D01*
X37675938Y-169910964D02*
X40266734Y-167320159D01*
%TO.N,STEP_nSLEEP*%
X47429523Y-170825366D02*
X51442724Y-166812161D01*
X41181125Y-175803769D02*
X44686335Y-172298559D01*
X46718331Y-170825362D02*
X47429523Y-170825366D01*
X45245139Y-172298564D02*
X46718331Y-170825362D01*
X51442724Y-166812161D02*
X51442736Y-166507372D01*
X44686335Y-172298559D02*
X45245139Y-172298564D01*
%TO.N,LPUART_DE*%
X49239229Y-148657457D02*
X46413529Y-145831764D01*
X47540835Y-143028068D02*
X48070841Y-143028065D01*
X46413529Y-145831764D02*
X46413531Y-144155359D01*
X49239232Y-148666856D02*
X49239229Y-148657457D01*
X46413531Y-144155359D02*
X47540835Y-143028068D01*
%TO.N,CFG3*%
X35329540Y-158335956D02*
X35329545Y-157402009D01*
X39099726Y-153631824D02*
X39099728Y-153236261D01*
X38131382Y-162430954D02*
X36443095Y-160742665D01*
X36443095Y-160742665D02*
X36443096Y-159449506D01*
X38693332Y-162634257D02*
X38490024Y-162430950D01*
X35329545Y-157402009D02*
X39099726Y-153631824D01*
X38490024Y-162430950D02*
X38131382Y-162430954D01*
X36443096Y-159449506D02*
X35329540Y-158335956D01*
%TO.N,CFG4*%
X30156913Y-155318587D02*
X30156915Y-153522537D01*
X32635467Y-161892136D02*
X32635466Y-161604768D01*
X35616908Y-152947803D02*
X37053749Y-152947803D01*
X34826649Y-152157540D02*
X35473225Y-152804116D01*
X37700331Y-164442529D02*
X36191646Y-165951213D01*
X32635468Y-163328977D02*
X32635467Y-161892136D01*
X36191646Y-165951213D02*
X35545069Y-165951213D01*
X35545069Y-165951213D02*
X35257702Y-165951212D01*
X32635466Y-161604768D02*
X32635466Y-160096084D01*
X35473225Y-152804116D02*
X35616908Y-152947803D01*
X30156915Y-153522537D02*
X31521913Y-152157541D01*
X32635466Y-160096084D02*
X33353887Y-159377665D01*
X33353885Y-158515561D02*
X30156913Y-155318587D01*
X31521913Y-152157541D02*
X34826649Y-152157540D01*
X39658521Y-163447060D02*
X38695798Y-163447061D01*
X38695798Y-163447061D02*
X37700331Y-164442529D01*
X35257702Y-165951212D02*
X32635468Y-163328977D01*
X33353887Y-159377665D02*
X33353885Y-158515561D01*
%TO.N,TEMP*%
X51058335Y-165495496D02*
X51407604Y-165495500D01*
X41408481Y-170370153D02*
X46183686Y-170370151D01*
X46183686Y-170370151D02*
X51058335Y-165495496D01*
%TO.N,BDC_PWM*%
X40627080Y-180136055D02*
X38540356Y-182222777D01*
X38540356Y-182222777D02*
X28096020Y-182222770D01*
X40627092Y-177545254D02*
X40627080Y-180136055D01*
X44942978Y-173229360D02*
X40627092Y-177545254D01*
%TO.N,BDC_DIR*%
X38899878Y-182828458D02*
X28855343Y-182828448D01*
X28855343Y-182828448D02*
X28850369Y-182833434D01*
X41439877Y-180288456D02*
X38899878Y-182828458D01*
X45984696Y-173203645D02*
X41439885Y-177748457D01*
X41439885Y-177748457D02*
X41439877Y-180288456D01*
D30*
%TO.N,Net-(U6-AOUT1)*%
X20657930Y-179613764D02*
X20657926Y-178800964D01*
X21319013Y-178139875D02*
X21319016Y-177382698D01*
X20657926Y-178800964D02*
X21319013Y-178139875D01*
X18148596Y-180583103D02*
X19688595Y-180583098D01*
X19688595Y-180583098D02*
X20657930Y-179613764D01*
%TO.N,Net-(U6-BOUT2)*%
X18152686Y-173684443D02*
X18152687Y-173900529D01*
X18148613Y-173979091D02*
X18148613Y-174195192D01*
X18148613Y-174195192D02*
X19913724Y-175960307D01*
X19913724Y-175960307D02*
X19947411Y-175960309D01*
%TO.N,Net-(U6-AOUT2)*%
X19947404Y-177281099D02*
X20303016Y-176925495D01*
X18148617Y-177281105D02*
X19947404Y-177281099D01*
%TO.N,Net-(U6-BOUT1)*%
X18148607Y-170677104D02*
X19544462Y-170677104D01*
X19946733Y-171079365D02*
X19946729Y-174791231D01*
X19544462Y-170677104D02*
X19946733Y-171079365D01*
X19946729Y-174791231D02*
X20150606Y-174995097D01*
%TO.N,Net-(U8-OUT1)*%
X20048335Y-186624162D02*
X20048332Y-185912958D01*
X18118597Y-187187097D02*
X19485397Y-187187100D01*
X20048332Y-185912958D02*
X20857514Y-185103780D01*
X20857514Y-185103780D02*
X20857524Y-185053494D01*
X19485397Y-187187100D02*
X20048335Y-186624162D01*
%TO.N,Net-(U8-OUT2)*%
X20603515Y-183885092D02*
X20857511Y-184139112D01*
X18148593Y-183885098D02*
X20603515Y-183885092D01*
%TD*%
%TA.AperFunction,Conductor*%
%TO.N,+3V3*%
G36*
X49998809Y-136018586D02*
G01*
X50239557Y-136039145D01*
X50247845Y-136040421D01*
X50483638Y-136093269D01*
X50491648Y-136095644D01*
X50718157Y-136179813D01*
X50725789Y-136183254D01*
X50938863Y-136297202D01*
X50945974Y-136301648D01*
X51141714Y-136443284D01*
X51148164Y-136448652D01*
X51323021Y-136615406D01*
X51328688Y-136621595D01*
X51479447Y-136810401D01*
X51484228Y-136817298D01*
X51609105Y-137026325D01*
X51611557Y-137030846D01*
X52155024Y-138140558D01*
X52664899Y-139269178D01*
X53139456Y-140413098D01*
X53578238Y-141571212D01*
X53980820Y-142742401D01*
X54346814Y-143925535D01*
X54675866Y-145119471D01*
X54967658Y-146323055D01*
X55221908Y-147535125D01*
X55438372Y-148754510D01*
X55616839Y-149980033D01*
X55757137Y-151210510D01*
X55859132Y-152444753D01*
X55922723Y-153681568D01*
X55947851Y-154919763D01*
X55934491Y-156158140D01*
X55882655Y-157395505D01*
X55792393Y-158630661D01*
X55663794Y-159862415D01*
X55496980Y-161089579D01*
X55292114Y-162310966D01*
X55049393Y-163525397D01*
X54782838Y-164672375D01*
X54769051Y-164731700D01*
X54451360Y-165928708D01*
X54096625Y-167115267D01*
X53705190Y-168290229D01*
X53277433Y-169452460D01*
X52813767Y-170600837D01*
X52314640Y-171734252D01*
X51780533Y-172851610D01*
X51211964Y-173951830D01*
X50609480Y-175033852D01*
X49973664Y-176096629D01*
X49305129Y-177139135D01*
X48604523Y-178160363D01*
X47872520Y-179159328D01*
X47109829Y-180135063D01*
X46317186Y-181086627D01*
X45495356Y-182013100D01*
X44645134Y-182913588D01*
X43767340Y-183787221D01*
X42862822Y-184633156D01*
X41932454Y-185450574D01*
X40977135Y-186238687D01*
X39997787Y-186996734D01*
X38995356Y-187723981D01*
X37970809Y-188419728D01*
X37034624Y-189013823D01*
X36925139Y-189083301D01*
X35859353Y-189714060D01*
X34774481Y-190311396D01*
X33671571Y-190874732D01*
X32551689Y-191403523D01*
X31415915Y-191897260D01*
X30265347Y-192355464D01*
X29101097Y-192777694D01*
X27924288Y-193163542D01*
X26736058Y-193512634D01*
X25537553Y-193824635D01*
X24329933Y-194099242D01*
X23114362Y-194336190D01*
X21892015Y-194535250D01*
X20664072Y-194696231D01*
X19431721Y-194818977D01*
X18198707Y-194903193D01*
X18193564Y-194903330D01*
X17950359Y-194899685D01*
X17941997Y-194898993D01*
X17703102Y-194862822D01*
X17694909Y-194861007D01*
X17463072Y-194792945D01*
X17455204Y-194790044D01*
X17348641Y-194742348D01*
X17234673Y-194691337D01*
X17227264Y-194687400D01*
X17022051Y-194559847D01*
X17015250Y-194554953D01*
X16855557Y-194422771D01*
X16829121Y-194400889D01*
X16823034Y-194395115D01*
X16659382Y-194217353D01*
X16654129Y-194210810D01*
X16649800Y-194204600D01*
X16515947Y-194012600D01*
X16511637Y-194005429D01*
X16401446Y-193790381D01*
X16398135Y-193782678D01*
X16317958Y-193554740D01*
X16315719Y-193546666D01*
X16297414Y-193457716D01*
X16267014Y-193309987D01*
X16265888Y-193301712D01*
X16249455Y-193059220D01*
X16249314Y-193055033D01*
X16249314Y-191359104D01*
X17693501Y-191359104D01*
X17712667Y-191590400D01*
X17766850Y-191804369D01*
X17769644Y-191815400D01*
X17862877Y-192027950D01*
X17989823Y-192222255D01*
X18147018Y-192393015D01*
X18330177Y-192535572D01*
X18534301Y-192646039D01*
X18648291Y-192685171D01*
X18753819Y-192721400D01*
X18753821Y-192721400D01*
X18753823Y-192721401D01*
X18982756Y-192759603D01*
X18982757Y-192759603D01*
X19214853Y-192759603D01*
X19214854Y-192759603D01*
X19443787Y-192721401D01*
X19663309Y-192646039D01*
X19867433Y-192535572D01*
X20050592Y-192393015D01*
X20207787Y-192222255D01*
X20334733Y-192027950D01*
X20359952Y-191970456D01*
X25227705Y-191970456D01*
X25232637Y-192139984D01*
X25306323Y-192414984D01*
X25330226Y-192504193D01*
X25355810Y-192568594D01*
X25377132Y-192622266D01*
X25377135Y-192622271D01*
X25474408Y-192761193D01*
X25474410Y-192761195D01*
X25474411Y-192761196D01*
X25601104Y-192873945D01*
X25750384Y-192954436D01*
X25914203Y-192998332D01*
X26083729Y-193003265D01*
X26249822Y-192968970D01*
X26249824Y-192968968D01*
X26249827Y-192968968D01*
X26335371Y-192929078D01*
X26403530Y-192897296D01*
X26536565Y-192792106D01*
X26641757Y-192659071D01*
X26666009Y-192607061D01*
X26712182Y-192554621D01*
X26779376Y-192535469D01*
X26837241Y-192550319D01*
X26977110Y-192625736D01*
X27140929Y-192669632D01*
X27310455Y-192674565D01*
X27476548Y-192640270D01*
X27476550Y-192640268D01*
X27476553Y-192640268D01*
X27562097Y-192600378D01*
X27630256Y-192568596D01*
X27763291Y-192463406D01*
X27868483Y-192330371D01*
X27940158Y-192176664D01*
X27956023Y-192099830D01*
X27974454Y-192010572D01*
X27969522Y-191841045D01*
X27969521Y-191841045D01*
X27871934Y-191476837D01*
X27825026Y-191358759D01*
X27727749Y-191219834D01*
X27601056Y-191107085D01*
X27451776Y-191026593D01*
X27287959Y-190982697D01*
X27220146Y-190980723D01*
X27118431Y-190977764D01*
X27118430Y-190977764D01*
X27118428Y-190977764D01*
X26952340Y-191012058D01*
X26952339Y-191012058D01*
X26798634Y-191083731D01*
X26798629Y-191083734D01*
X26665594Y-191188922D01*
X26665593Y-191188923D01*
X26560407Y-191321952D01*
X26560401Y-191321962D01*
X26536150Y-191373969D01*
X26489977Y-191426408D01*
X26422784Y-191445560D01*
X26364918Y-191430709D01*
X26225052Y-191355294D01*
X26225051Y-191355293D01*
X26225050Y-191355293D01*
X26149024Y-191334921D01*
X26061233Y-191311397D01*
X25993420Y-191309423D01*
X25891705Y-191306464D01*
X25891704Y-191306464D01*
X25891702Y-191306464D01*
X25725614Y-191340758D01*
X25725613Y-191340758D01*
X25571908Y-191412431D01*
X25571903Y-191412434D01*
X25438868Y-191517622D01*
X25438867Y-191517623D01*
X25333681Y-191650652D01*
X25333675Y-191650662D01*
X25262000Y-191804369D01*
X25227705Y-191970456D01*
X20359952Y-191970456D01*
X20427966Y-191815400D01*
X20484942Y-191590404D01*
X20496014Y-191456791D01*
X20504109Y-191359104D01*
X20504109Y-191359093D01*
X20490007Y-191188922D01*
X20484942Y-191127794D01*
X20427966Y-190902798D01*
X20334733Y-190690248D01*
X20207787Y-190495943D01*
X20050592Y-190325183D01*
X19867433Y-190182626D01*
X19663309Y-190072159D01*
X19663301Y-190072156D01*
X19443790Y-189996797D01*
X19272087Y-189968145D01*
X19214854Y-189958595D01*
X18982756Y-189958595D01*
X18936969Y-189966235D01*
X18753819Y-189996797D01*
X18534308Y-190072156D01*
X18534300Y-190072159D01*
X18330175Y-190182627D01*
X18147020Y-190325181D01*
X17989820Y-190495946D01*
X17862875Y-190690251D01*
X17769643Y-190902799D01*
X17712667Y-191127797D01*
X17693501Y-191359093D01*
X17693501Y-191359104D01*
X16249314Y-191359104D01*
X16249314Y-189849050D01*
X28946508Y-189849050D01*
X28965674Y-189905509D01*
X28965676Y-189905515D01*
X29835422Y-191411959D01*
X29835426Y-191411965D01*
X29856316Y-191435785D01*
X29874740Y-191456793D01*
X29946279Y-191492071D01*
X30025872Y-191497289D01*
X30082336Y-191478122D01*
X31588784Y-190608374D01*
X31633615Y-190569058D01*
X31668893Y-190497519D01*
X31674111Y-190417926D01*
X31654944Y-190361462D01*
X31626038Y-190311396D01*
X31128675Y-189449938D01*
X30790088Y-188863487D01*
X31454432Y-188863487D01*
X31474714Y-189069420D01*
X31474715Y-189069422D01*
X31534783Y-189267442D01*
X31632330Y-189449938D01*
X31632332Y-189449940D01*
X31763604Y-189609898D01*
X31860224Y-189689190D01*
X31923565Y-189741173D01*
X32106061Y-189838720D01*
X32304081Y-189898788D01*
X32304080Y-189898788D01*
X32324362Y-189900785D01*
X32510015Y-189919071D01*
X32715949Y-189898788D01*
X32913969Y-189838720D01*
X33096465Y-189741173D01*
X33256425Y-189609898D01*
X33387700Y-189449938D01*
X33485247Y-189267442D01*
X33545315Y-189069422D01*
X33565598Y-188863488D01*
X33545315Y-188657554D01*
X33485247Y-188459534D01*
X33387700Y-188277038D01*
X33301330Y-188171795D01*
X33256425Y-188117077D01*
X33138692Y-188020457D01*
X33096465Y-187985803D01*
X32913969Y-187888256D01*
X32715949Y-187828188D01*
X32715947Y-187828187D01*
X32715949Y-187828187D01*
X32528478Y-187809723D01*
X32510015Y-187807905D01*
X32510014Y-187807905D01*
X32304082Y-187828187D01*
X32106058Y-187888257D01*
X31995913Y-187947131D01*
X31923565Y-187985803D01*
X31923563Y-187985804D01*
X31923562Y-187985805D01*
X31763604Y-188117077D01*
X31632332Y-188277035D01*
X31534784Y-188459531D01*
X31474714Y-188657555D01*
X31454432Y-188863487D01*
X30790088Y-188863487D01*
X30785196Y-188855014D01*
X30785194Y-188855012D01*
X30785193Y-188855010D01*
X30745881Y-188810184D01*
X30745880Y-188810183D01*
X30674341Y-188774905D01*
X30669121Y-188774562D01*
X30594747Y-188769686D01*
X30538288Y-188788852D01*
X30538282Y-188788854D01*
X29031838Y-189658600D01*
X29031832Y-189658604D01*
X28987006Y-189697916D01*
X28951727Y-189769457D01*
X28946508Y-189849050D01*
X16249314Y-189849050D01*
X16249314Y-189708856D01*
X16268999Y-189641817D01*
X16321803Y-189596062D01*
X16373314Y-189584856D01*
X22694678Y-189584856D01*
X22694679Y-189584856D01*
X29603488Y-187654451D01*
X29697777Y-187593488D01*
X33654136Y-187593488D01*
X33674418Y-187799420D01*
X33683145Y-187828188D01*
X33734487Y-187997442D01*
X33832034Y-188179938D01*
X33832036Y-188179940D01*
X33963308Y-188339898D01*
X34059928Y-188419190D01*
X34123269Y-188471173D01*
X34305765Y-188568720D01*
X34503785Y-188628788D01*
X34503784Y-188628788D01*
X34522248Y-188630606D01*
X34709719Y-188649071D01*
X34915653Y-188628788D01*
X35113673Y-188568720D01*
X35296169Y-188471173D01*
X35456129Y-188339898D01*
X35587404Y-188179938D01*
X35684951Y-187997442D01*
X35745019Y-187799422D01*
X35765302Y-187593488D01*
X35745019Y-187387554D01*
X35684951Y-187189534D01*
X35587404Y-187007038D01*
X35535421Y-186943697D01*
X35456129Y-186847077D01*
X35338396Y-186750457D01*
X35296169Y-186715803D01*
X35113673Y-186618256D01*
X34915653Y-186558188D01*
X34915651Y-186558187D01*
X34915653Y-186558187D01*
X34728182Y-186539723D01*
X34709719Y-186537905D01*
X34709718Y-186537905D01*
X34503786Y-186558187D01*
X34305762Y-186618257D01*
X34195616Y-186677131D01*
X34123269Y-186715803D01*
X34123267Y-186715804D01*
X34123266Y-186715805D01*
X33963308Y-186847077D01*
X33832036Y-187007035D01*
X33734488Y-187189531D01*
X33674418Y-187387555D01*
X33654136Y-187593488D01*
X29697777Y-187593488D01*
X31662043Y-186323488D01*
X35853841Y-186323488D01*
X35874123Y-186529420D01*
X35885310Y-186566297D01*
X35934192Y-186727442D01*
X36031739Y-186909938D01*
X36031741Y-186909940D01*
X36163013Y-187069898D01*
X36172340Y-187077552D01*
X36322974Y-187201173D01*
X36505470Y-187298720D01*
X36703490Y-187358788D01*
X36703489Y-187358788D01*
X36723772Y-187360785D01*
X36909424Y-187379071D01*
X37115358Y-187358788D01*
X37313378Y-187298720D01*
X37495874Y-187201173D01*
X37655834Y-187069898D01*
X37787109Y-186909938D01*
X37884656Y-186727442D01*
X37944724Y-186529422D01*
X37965007Y-186323488D01*
X37944724Y-186117554D01*
X37884656Y-185919534D01*
X37787109Y-185737038D01*
X37717513Y-185652234D01*
X37655834Y-185577077D01*
X37535651Y-185478447D01*
X37495874Y-185445803D01*
X37313378Y-185348256D01*
X37115358Y-185288188D01*
X37115356Y-185288187D01*
X37115358Y-185288187D01*
X36909424Y-185267905D01*
X36703491Y-185288187D01*
X36505467Y-185348257D01*
X36465394Y-185369677D01*
X36322974Y-185445803D01*
X36322972Y-185445804D01*
X36322971Y-185445805D01*
X36163013Y-185577077D01*
X36031741Y-185737035D01*
X35934193Y-185919531D01*
X35874123Y-186117555D01*
X35853841Y-186323488D01*
X31662043Y-186323488D01*
X35747817Y-183681823D01*
X35814798Y-183661955D01*
X39136963Y-183661955D01*
X39142366Y-183662190D01*
X39182692Y-183665719D01*
X39221825Y-183655232D01*
X39227047Y-183654074D01*
X39266930Y-183647043D01*
X39266935Y-183647039D01*
X39271984Y-183645202D01*
X39288709Y-183638274D01*
X39293566Y-183636009D01*
X39293569Y-183636009D01*
X39326737Y-183612783D01*
X39331270Y-183609895D01*
X39366340Y-183589649D01*
X39392361Y-183558637D01*
X39396002Y-183554663D01*
X40518879Y-182431784D01*
X42002224Y-182431784D01*
X42017005Y-182600730D01*
X42070351Y-182761718D01*
X42070356Y-182761729D01*
X42159386Y-182906067D01*
X42159388Y-182906070D01*
X42425997Y-183172678D01*
X42425999Y-183172680D01*
X42426003Y-183172683D01*
X42426005Y-183172685D01*
X42466598Y-183204782D01*
X42520544Y-183247438D01*
X42525668Y-183251489D01*
X42679375Y-183323163D01*
X42845469Y-183357460D01*
X43014995Y-183352527D01*
X43178814Y-183308632D01*
X43328094Y-183228140D01*
X43454787Y-183115393D01*
X43552064Y-182976467D01*
X43614681Y-182818852D01*
X43639261Y-182651044D01*
X43634859Y-182600732D01*
X43634260Y-182593879D01*
X43648027Y-182525379D01*
X43696642Y-182475196D01*
X43754176Y-182459124D01*
X43913020Y-182454502D01*
X44076839Y-182410607D01*
X44226119Y-182330115D01*
X44352812Y-182217368D01*
X44450089Y-182078442D01*
X44512706Y-181920827D01*
X44537286Y-181753019D01*
X44535298Y-181730297D01*
X44522608Y-181585243D01*
X44522505Y-181584067D01*
X44469159Y-181423078D01*
X44469155Y-181423072D01*
X44469154Y-181423069D01*
X44380124Y-181278731D01*
X44380122Y-181278728D01*
X44113513Y-181012120D01*
X44113511Y-181012118D01*
X44013845Y-180933311D01*
X44013836Y-180933306D01*
X43860138Y-180861637D01*
X43860136Y-180861636D01*
X43860133Y-180861635D01*
X43860129Y-180861634D01*
X43694044Y-180827339D01*
X43694042Y-180827339D01*
X43637533Y-180828983D01*
X43524512Y-180832272D01*
X43360701Y-180876165D01*
X43211416Y-180956659D01*
X43084723Y-181069405D01*
X42987447Y-181208331D01*
X42924830Y-181365947D01*
X42900249Y-181533760D01*
X42905250Y-181590921D01*
X42891483Y-181659421D01*
X42842867Y-181709603D01*
X42785329Y-181725675D01*
X42626488Y-181730297D01*
X42462676Y-181774190D01*
X42313391Y-181854684D01*
X42186698Y-181967430D01*
X42089422Y-182106356D01*
X42026805Y-182263972D01*
X42002224Y-182431784D01*
X40518879Y-182431784D01*
X42369293Y-180581366D01*
X42373253Y-180577737D01*
X42404282Y-180551702D01*
X42424522Y-180516642D01*
X42427419Y-180512093D01*
X42450641Y-180478932D01*
X42450642Y-180478924D01*
X42452902Y-180474082D01*
X42459836Y-180457342D01*
X42461670Y-180452299D01*
X42461675Y-180452292D01*
X42468708Y-180412403D01*
X42469867Y-180407175D01*
X42480350Y-180368055D01*
X42476819Y-180327710D01*
X42476585Y-180322352D01*
X42476579Y-178738437D01*
X44507521Y-178738437D01*
X44527803Y-178944369D01*
X44543666Y-178996663D01*
X44587872Y-179142391D01*
X44685419Y-179324887D01*
X44685421Y-179324889D01*
X44816693Y-179484847D01*
X44901507Y-179554451D01*
X44976654Y-179616122D01*
X45159150Y-179713669D01*
X45357170Y-179773737D01*
X45357169Y-179773737D01*
X45377452Y-179775734D01*
X45563104Y-179794020D01*
X45769038Y-179773737D01*
X45967058Y-179713669D01*
X46149554Y-179616122D01*
X46309514Y-179484847D01*
X46440789Y-179324887D01*
X46538336Y-179142391D01*
X46598404Y-178944371D01*
X46618687Y-178738437D01*
X46598404Y-178532503D01*
X46538336Y-178334483D01*
X46440789Y-178151987D01*
X46382172Y-178080561D01*
X46309514Y-177992026D01*
X46177008Y-177883283D01*
X46149554Y-177860752D01*
X45967058Y-177763205D01*
X45769038Y-177703137D01*
X45769036Y-177703136D01*
X45769038Y-177703136D01*
X45567835Y-177683320D01*
X45563104Y-177682854D01*
X45563103Y-177682854D01*
X45357171Y-177703136D01*
X45247617Y-177736369D01*
X45162312Y-177762246D01*
X45159147Y-177763206D01*
X45049001Y-177822080D01*
X44976654Y-177860752D01*
X44976652Y-177860753D01*
X44976651Y-177860754D01*
X44816693Y-177992026D01*
X44701312Y-178132621D01*
X44685419Y-178151987D01*
X44655597Y-178207779D01*
X44587873Y-178334480D01*
X44527803Y-178532504D01*
X44507521Y-178738437D01*
X42476579Y-178738437D01*
X42476578Y-178403816D01*
X42496261Y-178336780D01*
X42496458Y-178336474D01*
X42900183Y-177717430D01*
X42916350Y-177697506D01*
X44075126Y-176538733D01*
X45777521Y-176538733D01*
X45777620Y-176539740D01*
X45797803Y-176744665D01*
X45820327Y-176818916D01*
X45857872Y-176942687D01*
X45955419Y-177125183D01*
X45968537Y-177141167D01*
X46086693Y-177285143D01*
X46166302Y-177350475D01*
X46246654Y-177416418D01*
X46429150Y-177513965D01*
X46627170Y-177574033D01*
X46627169Y-177574033D01*
X46645633Y-177575851D01*
X46833104Y-177594316D01*
X47039038Y-177574033D01*
X47237058Y-177513965D01*
X47419554Y-177416418D01*
X47579514Y-177285143D01*
X47710789Y-177125183D01*
X47808336Y-176942687D01*
X47868404Y-176744667D01*
X47888687Y-176538733D01*
X47868404Y-176332799D01*
X47808336Y-176134779D01*
X47710789Y-175952283D01*
X47658806Y-175888942D01*
X47579514Y-175792322D01*
X47433212Y-175672257D01*
X47419554Y-175661048D01*
X47237058Y-175563501D01*
X47039038Y-175503433D01*
X47039036Y-175503432D01*
X47039038Y-175503432D01*
X46833104Y-175483150D01*
X46627171Y-175503432D01*
X46429147Y-175563502D01*
X46373849Y-175593060D01*
X46246654Y-175661048D01*
X46246652Y-175661049D01*
X46246651Y-175661050D01*
X46086693Y-175792322D01*
X45970867Y-175933459D01*
X45955419Y-175952283D01*
X45916747Y-176024630D01*
X45857873Y-176134776D01*
X45797803Y-176332800D01*
X45777775Y-176536153D01*
X45777521Y-176538733D01*
X44075126Y-176538733D01*
X46274836Y-174339028D01*
X47047521Y-174339028D01*
X47067803Y-174544960D01*
X47067804Y-174544962D01*
X47127872Y-174742982D01*
X47225419Y-174925478D01*
X47256860Y-174963789D01*
X47356693Y-175085438D01*
X47402053Y-175122663D01*
X47516654Y-175216713D01*
X47699150Y-175314260D01*
X47897170Y-175374328D01*
X47897169Y-175374328D01*
X47915633Y-175376146D01*
X48103104Y-175394611D01*
X48309038Y-175374328D01*
X48507058Y-175314260D01*
X48689554Y-175216713D01*
X48849514Y-175085438D01*
X48980789Y-174925478D01*
X49078336Y-174742982D01*
X49138404Y-174544962D01*
X49158687Y-174339028D01*
X49138404Y-174133094D01*
X49078336Y-173935074D01*
X48980789Y-173752578D01*
X48907650Y-173663457D01*
X48849514Y-173592617D01*
X48726218Y-173491432D01*
X48689554Y-173461343D01*
X48507058Y-173363796D01*
X48309038Y-173303728D01*
X48309036Y-173303727D01*
X48309038Y-173303727D01*
X48103104Y-173283445D01*
X47897171Y-173303727D01*
X47749354Y-173348567D01*
X47714216Y-173359226D01*
X47699147Y-173363797D01*
X47624501Y-173403697D01*
X47516654Y-173461343D01*
X47516652Y-173461344D01*
X47516651Y-173461345D01*
X47356692Y-173592619D01*
X47348216Y-173602947D01*
X47303148Y-173633644D01*
X47291516Y-173671056D01*
X47284131Y-173681035D01*
X47225421Y-173752574D01*
X47127873Y-173935071D01*
X47067803Y-174133095D01*
X47047521Y-174339028D01*
X46274836Y-174339028D01*
X47093694Y-173520172D01*
X47097659Y-173516538D01*
X47108573Y-173507380D01*
X47135947Y-173495400D01*
X47138232Y-173475806D01*
X47144968Y-173462297D01*
X47145300Y-173461722D01*
X47148934Y-173455426D01*
X47151816Y-173450904D01*
X47175039Y-173417739D01*
X47175040Y-173417733D01*
X47177308Y-173412871D01*
X47184244Y-173396128D01*
X47186073Y-173391102D01*
X47186074Y-173391101D01*
X47193103Y-173351228D01*
X47194271Y-173345958D01*
X47204749Y-173306862D01*
X47203307Y-173290384D01*
X47201222Y-173266548D01*
X47200986Y-173261142D01*
X47200986Y-173071406D01*
X47200988Y-172042004D01*
X47220673Y-171974968D01*
X47231270Y-171960811D01*
X47253615Y-171935025D01*
X47307430Y-171817188D01*
X47325866Y-171688962D01*
X47307430Y-171560736D01*
X47253615Y-171442899D01*
X47178375Y-171356066D01*
X47149351Y-171292510D01*
X47159295Y-171223351D01*
X47205051Y-171170548D01*
X47272088Y-171150864D01*
X47412618Y-171150864D01*
X47417977Y-171151098D01*
X47458330Y-171154630D01*
X47497445Y-171144148D01*
X47502704Y-171142982D01*
X47542566Y-171135955D01*
X47542567Y-171135954D01*
X47547606Y-171134120D01*
X47564350Y-171127184D01*
X47569202Y-171124921D01*
X47569207Y-171124920D01*
X47602376Y-171101693D01*
X47606901Y-171098810D01*
X47641977Y-171078561D01*
X47668000Y-171047546D01*
X47671628Y-171043586D01*
X49658147Y-169057065D01*
X49719468Y-169023582D01*
X49789159Y-169028566D01*
X49845093Y-169070438D01*
X49869510Y-169135902D01*
X49854658Y-169204175D01*
X49853213Y-169206748D01*
X49298470Y-170167591D01*
X49298468Y-170167597D01*
X49279302Y-170224056D01*
X49283507Y-170288181D01*
X49284521Y-170303650D01*
X49319799Y-170375189D01*
X49319800Y-170375190D01*
X49364626Y-170414502D01*
X49364628Y-170414503D01*
X49364630Y-170414505D01*
X49974785Y-170766778D01*
X50856303Y-171275723D01*
X50871078Y-171284253D01*
X50895402Y-171292510D01*
X50927541Y-171303420D01*
X50927541Y-171303419D01*
X50927542Y-171303420D01*
X51007135Y-171298202D01*
X51078674Y-171262924D01*
X51117990Y-171218093D01*
X51987738Y-169711645D01*
X52006905Y-169655181D01*
X52001687Y-169575588D01*
X51966409Y-169504049D01*
X51942428Y-169483018D01*
X51921581Y-169464735D01*
X51921575Y-169464731D01*
X51304616Y-169108530D01*
X50415130Y-168594985D01*
X50383786Y-168584345D01*
X50326633Y-168544154D01*
X50300281Y-168479445D01*
X50313096Y-168410760D01*
X50335962Y-168379249D01*
X51660919Y-167054291D01*
X51664900Y-167050644D01*
X51695910Y-167024626D01*
X51716165Y-166989544D01*
X51719050Y-166985015D01*
X51742278Y-166951845D01*
X51742280Y-166951835D01*
X51744564Y-166946941D01*
X51751456Y-166930305D01*
X51753307Y-166925221D01*
X51757250Y-166902862D01*
X51760340Y-166885338D01*
X51761507Y-166880080D01*
X51771988Y-166840968D01*
X51771987Y-166840967D01*
X51774553Y-166831395D01*
X51800613Y-166782291D01*
X51825618Y-166753435D01*
X51879433Y-166635598D01*
X51897869Y-166507372D01*
X51879433Y-166379146D01*
X51825618Y-166261309D01*
X51740785Y-166163405D01*
X51633504Y-166094460D01*
X51587752Y-166041659D01*
X51577808Y-165972501D01*
X51606832Y-165908945D01*
X51633505Y-165885833D01*
X51705653Y-165839467D01*
X51790486Y-165741563D01*
X51844301Y-165623726D01*
X51862737Y-165495500D01*
X51844301Y-165367274D01*
X51790486Y-165249437D01*
X51705653Y-165151533D01*
X51596673Y-165081496D01*
X51596669Y-165081494D01*
X51596668Y-165081494D01*
X51472378Y-165045000D01*
X51472376Y-165045000D01*
X51342832Y-165045000D01*
X51342830Y-165045000D01*
X51218537Y-165081494D01*
X51218536Y-165081494D01*
X51115474Y-165147728D01*
X51048435Y-165167412D01*
X51037630Y-165166940D01*
X51029529Y-165166231D01*
X51029527Y-165166231D01*
X50990419Y-165176710D01*
X50985136Y-165177881D01*
X50945293Y-165184906D01*
X50940305Y-165186721D01*
X50923466Y-165193696D01*
X50918647Y-165195943D01*
X50885486Y-165219163D01*
X50880922Y-165222070D01*
X50845884Y-165242298D01*
X50845883Y-165242299D01*
X50819862Y-165273307D01*
X50816208Y-165277294D01*
X46085177Y-170008332D01*
X46023854Y-170041817D01*
X45997496Y-170044651D01*
X41771673Y-170044651D01*
X41704635Y-170024967D01*
X41597547Y-169956147D01*
X41473255Y-169919653D01*
X41473253Y-169919653D01*
X41343709Y-169919653D01*
X41343707Y-169919653D01*
X41219416Y-169956147D01*
X41219413Y-169956148D01*
X41219412Y-169956149D01*
X41168158Y-169989087D01*
X41110431Y-170026186D01*
X41025599Y-170124090D01*
X41025598Y-170124090D01*
X41010308Y-170157570D01*
X40964551Y-170210372D01*
X40897515Y-170230055D01*
X40293883Y-170230055D01*
X40226844Y-170210370D01*
X40181089Y-170157566D01*
X40169883Y-170106055D01*
X40169883Y-168002046D01*
X40169883Y-167928696D01*
X40186462Y-167872235D01*
X40974168Y-167872235D01*
X40994805Y-168028994D01*
X40994806Y-168028996D01*
X41055314Y-168175075D01*
X41151568Y-168300516D01*
X41277009Y-168396770D01*
X41423088Y-168457278D01*
X41501469Y-168467597D01*
X41579849Y-168477916D01*
X41579850Y-168477916D01*
X41579851Y-168477916D01*
X41642318Y-168469692D01*
X41736612Y-168457278D01*
X41882691Y-168396770D01*
X42008132Y-168300516D01*
X42104386Y-168175075D01*
X42164894Y-168028996D01*
X42185532Y-167872234D01*
X42183220Y-167854675D01*
X42164894Y-167715473D01*
X42164894Y-167715472D01*
X42104386Y-167569393D01*
X42008132Y-167443952D01*
X41882691Y-167347698D01*
X41788423Y-167308651D01*
X41736612Y-167287190D01*
X41736610Y-167287189D01*
X41579851Y-167266552D01*
X41579849Y-167266552D01*
X41423089Y-167287189D01*
X41423087Y-167287190D01*
X41277010Y-167347697D01*
X41151568Y-167443952D01*
X41055313Y-167569394D01*
X40994806Y-167715471D01*
X40994805Y-167715473D01*
X40974168Y-167872232D01*
X40974168Y-167872235D01*
X40186462Y-167872235D01*
X40189568Y-167861659D01*
X40206197Y-167841022D01*
X40484952Y-167562266D01*
X40488912Y-167558638D01*
X40519928Y-167532614D01*
X40540172Y-167497549D01*
X40543069Y-167493000D01*
X40566288Y-167459843D01*
X40566288Y-167459840D01*
X40568552Y-167454986D01*
X40575486Y-167438248D01*
X40577319Y-167433208D01*
X40577322Y-167433204D01*
X40584352Y-167393326D01*
X40585523Y-167388050D01*
X40595997Y-167348965D01*
X40592466Y-167308622D01*
X40592232Y-167303264D01*
X40592232Y-166608967D01*
X43875600Y-166608967D01*
X43894035Y-166737192D01*
X43914631Y-166782289D01*
X43947851Y-166855030D01*
X44032684Y-166952934D01*
X44141664Y-167022971D01*
X44265958Y-167059466D01*
X44265960Y-167059467D01*
X44265961Y-167059467D01*
X44395506Y-167059467D01*
X44395506Y-167059466D01*
X44519802Y-167022971D01*
X44628782Y-166952934D01*
X44713615Y-166855030D01*
X44767430Y-166737193D01*
X44785866Y-166608967D01*
X44767430Y-166480741D01*
X44713615Y-166362904D01*
X44662716Y-166304163D01*
X45094790Y-166304163D01*
X45113225Y-166432388D01*
X45125259Y-166458738D01*
X45167041Y-166550226D01*
X45251874Y-166648130D01*
X45360854Y-166718167D01*
X45485148Y-166754662D01*
X45485150Y-166754663D01*
X45485151Y-166754663D01*
X45614696Y-166754663D01*
X45614696Y-166754662D01*
X45738992Y-166718167D01*
X45847972Y-166648130D01*
X45932805Y-166550226D01*
X45986620Y-166432389D01*
X46005056Y-166304163D01*
X45986620Y-166175937D01*
X45932805Y-166058100D01*
X45847972Y-165960196D01*
X45738992Y-165890159D01*
X45738988Y-165890157D01*
X45738987Y-165890157D01*
X45614697Y-165853663D01*
X45614695Y-165853663D01*
X45485151Y-165853663D01*
X45485149Y-165853663D01*
X45360858Y-165890157D01*
X45360855Y-165890158D01*
X45360854Y-165890159D01*
X45330753Y-165909504D01*
X45251873Y-165960196D01*
X45167041Y-166058100D01*
X45167040Y-166058101D01*
X45113225Y-166175937D01*
X45094790Y-166304163D01*
X44662716Y-166304163D01*
X44628782Y-166265000D01*
X44519802Y-166194963D01*
X44519798Y-166194961D01*
X44519797Y-166194961D01*
X44395507Y-166158467D01*
X44395505Y-166158467D01*
X44265961Y-166158467D01*
X44265959Y-166158467D01*
X44141668Y-166194961D01*
X44141665Y-166194962D01*
X44141664Y-166194963D01*
X44093369Y-166226000D01*
X44032683Y-166265000D01*
X43947851Y-166362904D01*
X43947850Y-166362905D01*
X43894035Y-166480741D01*
X43875600Y-166608967D01*
X40592232Y-166608967D01*
X40592231Y-164968620D01*
X42650570Y-164968620D01*
X42671207Y-165125379D01*
X42671208Y-165125381D01*
X42719637Y-165242300D01*
X42731716Y-165271460D01*
X42827970Y-165396901D01*
X42953411Y-165493155D01*
X43099490Y-165553663D01*
X43177870Y-165563981D01*
X43256251Y-165574301D01*
X43256252Y-165574301D01*
X43256253Y-165574301D01*
X43308506Y-165567421D01*
X43413014Y-165553663D01*
X43559093Y-165493155D01*
X43627627Y-165440567D01*
X44180399Y-165440567D01*
X44198834Y-165568792D01*
X44227409Y-165631361D01*
X44252650Y-165686630D01*
X44337483Y-165784534D01*
X44446463Y-165854571D01*
X44567661Y-165890157D01*
X44570757Y-165891066D01*
X44570759Y-165891067D01*
X44570760Y-165891067D01*
X44700305Y-165891067D01*
X44700305Y-165891066D01*
X44824601Y-165854571D01*
X44933581Y-165784534D01*
X45018414Y-165686630D01*
X45072229Y-165568793D01*
X45090665Y-165440567D01*
X45075943Y-165338172D01*
X45085887Y-165269014D01*
X45131642Y-165216210D01*
X45198681Y-165196526D01*
X45233614Y-165201548D01*
X45277394Y-165214403D01*
X45332763Y-165230661D01*
X45332764Y-165230661D01*
X45462309Y-165230661D01*
X45462309Y-165230660D01*
X45586605Y-165194165D01*
X45695585Y-165124128D01*
X45780418Y-165026224D01*
X45834233Y-164908387D01*
X45852669Y-164780161D01*
X45834233Y-164651935D01*
X45780418Y-164534098D01*
X45695585Y-164436194D01*
X45586605Y-164366157D01*
X45586601Y-164366155D01*
X45586600Y-164366155D01*
X45462310Y-164329661D01*
X45462308Y-164329661D01*
X45332764Y-164329661D01*
X45332762Y-164329661D01*
X45208471Y-164366155D01*
X45208468Y-164366156D01*
X45208467Y-164366157D01*
X45192560Y-164376380D01*
X45099486Y-164436194D01*
X45014654Y-164534098D01*
X45014653Y-164534099D01*
X44960838Y-164651935D01*
X44942403Y-164780161D01*
X44957124Y-164882555D01*
X44947180Y-164951713D01*
X44901425Y-165004517D01*
X44834385Y-165024201D01*
X44799452Y-165019178D01*
X44700306Y-164990067D01*
X44700304Y-164990067D01*
X44570760Y-164990067D01*
X44570758Y-164990067D01*
X44446467Y-165026561D01*
X44446464Y-165026562D01*
X44446463Y-165026563D01*
X44395209Y-165059501D01*
X44337482Y-165096600D01*
X44252650Y-165194504D01*
X44252649Y-165194505D01*
X44198834Y-165312341D01*
X44180399Y-165440567D01*
X43627627Y-165440567D01*
X43684534Y-165396901D01*
X43780788Y-165271460D01*
X43841296Y-165125381D01*
X43861934Y-164968619D01*
X43859708Y-164951713D01*
X43846893Y-164854369D01*
X43841296Y-164811857D01*
X43780788Y-164665778D01*
X43684534Y-164540337D01*
X43559093Y-164444083D01*
X43540047Y-164436194D01*
X43413014Y-164383575D01*
X43413012Y-164383574D01*
X43256253Y-164362937D01*
X43256251Y-164362937D01*
X43099491Y-164383574D01*
X43099489Y-164383575D01*
X42953412Y-164444082D01*
X42827970Y-164540337D01*
X42731715Y-164665779D01*
X42671208Y-164811856D01*
X42671207Y-164811858D01*
X42650570Y-164968617D01*
X42650570Y-164968620D01*
X40592231Y-164968620D01*
X40592231Y-164001152D01*
X40611916Y-163934114D01*
X40628545Y-163913477D01*
X41940040Y-162601981D01*
X42001361Y-162568498D01*
X42027710Y-162565664D01*
X43053138Y-162565663D01*
X43120176Y-162585346D01*
X43227263Y-162654167D01*
X43351557Y-162690662D01*
X43351559Y-162690663D01*
X43351560Y-162690663D01*
X43481105Y-162690663D01*
X43481105Y-162690662D01*
X43605401Y-162654167D01*
X43714381Y-162584130D01*
X43799214Y-162486226D01*
X43853029Y-162368389D01*
X43871465Y-162240163D01*
X43853029Y-162111937D01*
X43799214Y-161994100D01*
X43714381Y-161896196D01*
X43605401Y-161826159D01*
X43605397Y-161826157D01*
X43605396Y-161826157D01*
X43481106Y-161789663D01*
X43481104Y-161789663D01*
X43351560Y-161789663D01*
X43351558Y-161789663D01*
X43227267Y-161826157D01*
X43227264Y-161826158D01*
X43227263Y-161826159D01*
X43120177Y-161894979D01*
X43053138Y-161914663D01*
X41858439Y-161914664D01*
X41853035Y-161914428D01*
X41812726Y-161910902D01*
X41812723Y-161910902D01*
X41773628Y-161921377D01*
X41768350Y-161922547D01*
X41728485Y-161929577D01*
X41723494Y-161931394D01*
X41706663Y-161938365D01*
X41701847Y-161940611D01*
X41668686Y-161963830D01*
X41664125Y-161966736D01*
X41629075Y-161986972D01*
X41603062Y-162017973D01*
X41599406Y-162021962D01*
X40286499Y-163334871D01*
X40225176Y-163368356D01*
X40155485Y-163363372D01*
X40099551Y-163321501D01*
X40086024Y-163298702D01*
X40041403Y-163200998D01*
X40041403Y-163200997D01*
X39956570Y-163103093D01*
X39847590Y-163033056D01*
X39847586Y-163033054D01*
X39847585Y-163033054D01*
X39723295Y-162996560D01*
X39723293Y-162996560D01*
X39593749Y-162996560D01*
X39593747Y-162996560D01*
X39469456Y-163033054D01*
X39469453Y-163033055D01*
X39469452Y-163033056D01*
X39362366Y-163101876D01*
X39295327Y-163121560D01*
X39138701Y-163121560D01*
X39071662Y-163101875D01*
X39025907Y-163049071D01*
X39015963Y-162979913D01*
X39044988Y-162916358D01*
X39076211Y-162880324D01*
X39076211Y-162880322D01*
X39076214Y-162880320D01*
X39130029Y-162762483D01*
X39148465Y-162634257D01*
X39130029Y-162506031D01*
X39076214Y-162388194D01*
X38991381Y-162290290D01*
X38882401Y-162220253D01*
X38882397Y-162220251D01*
X38882396Y-162220251D01*
X38758106Y-162183757D01*
X38758104Y-162183757D01*
X38746099Y-162183757D01*
X38684101Y-162167145D01*
X38667422Y-162157516D01*
X38662865Y-162154613D01*
X38629707Y-162131396D01*
X38629706Y-162131395D01*
X38629704Y-162131394D01*
X38624882Y-162129145D01*
X38608083Y-162122187D01*
X38603061Y-162120359D01*
X38563217Y-162113334D01*
X38557933Y-162112163D01*
X38518829Y-162101685D01*
X38484804Y-162104662D01*
X38478499Y-162105214D01*
X38473098Y-162105450D01*
X38317568Y-162105451D01*
X38250528Y-162085767D01*
X38229886Y-162069132D01*
X38210942Y-162050188D01*
X38177457Y-161988865D01*
X38182441Y-161919173D01*
X38224313Y-161863240D01*
X38231570Y-161858200D01*
X38319583Y-161801639D01*
X38404416Y-161703735D01*
X38458231Y-161585898D01*
X38469643Y-161506524D01*
X38478608Y-161486893D01*
X46990077Y-161486893D01*
X47008512Y-161615118D01*
X47062327Y-161732954D01*
X47062328Y-161732956D01*
X47147161Y-161830860D01*
X47256141Y-161900897D01*
X47378582Y-161936848D01*
X47380435Y-161937392D01*
X47380437Y-161937393D01*
X47380438Y-161937393D01*
X47509983Y-161937393D01*
X47509983Y-161937392D01*
X47634279Y-161900897D01*
X47743259Y-161830860D01*
X47828092Y-161732956D01*
X47881907Y-161615119D01*
X47900343Y-161486893D01*
X47881907Y-161358667D01*
X47828092Y-161240830D01*
X47743259Y-161142926D01*
X47634279Y-161072889D01*
X47634275Y-161072887D01*
X47634274Y-161072887D01*
X47509984Y-161036393D01*
X47509982Y-161036393D01*
X47380438Y-161036393D01*
X47380436Y-161036393D01*
X47256145Y-161072887D01*
X47256142Y-161072888D01*
X47256141Y-161072889D01*
X47230171Y-161089579D01*
X47147160Y-161142926D01*
X47062328Y-161240830D01*
X47062327Y-161240831D01*
X47008512Y-161358667D01*
X46990077Y-161486893D01*
X38478608Y-161486893D01*
X38498668Y-161442969D01*
X38557446Y-161405195D01*
X38592381Y-161400172D01*
X38695906Y-161400172D01*
X38695906Y-161400171D01*
X38820202Y-161363676D01*
X38929182Y-161293639D01*
X39014015Y-161195735D01*
X39067830Y-161077898D01*
X39086266Y-160949672D01*
X39067830Y-160821446D01*
X39062329Y-160809401D01*
X45516880Y-160809401D01*
X45535315Y-160937626D01*
X45580421Y-161036393D01*
X45589131Y-161055464D01*
X45673964Y-161153368D01*
X45782944Y-161223405D01*
X45842290Y-161240830D01*
X45907238Y-161259900D01*
X45907240Y-161259901D01*
X45907241Y-161259901D01*
X46036786Y-161259901D01*
X46036786Y-161259900D01*
X46161082Y-161223405D01*
X46270062Y-161153368D01*
X46354895Y-161055464D01*
X46408710Y-160937627D01*
X46427146Y-160809401D01*
X46408710Y-160681175D01*
X46382991Y-160624860D01*
X52592326Y-160624860D01*
X52603957Y-160683337D01*
X52603958Y-160683338D01*
X52648273Y-160749660D01*
X52714595Y-160793975D01*
X52714596Y-160793976D01*
X52773073Y-160805607D01*
X52773076Y-160805608D01*
X52773078Y-160805608D01*
X54512576Y-160805608D01*
X54512577Y-160805607D01*
X54527394Y-160802660D01*
X54571055Y-160793976D01*
X54571055Y-160793975D01*
X54571057Y-160793975D01*
X54637378Y-160749660D01*
X54681693Y-160683339D01*
X54681693Y-160683337D01*
X54681694Y-160683337D01*
X54693325Y-160624860D01*
X54693326Y-160624858D01*
X54693326Y-158885357D01*
X54693325Y-158885355D01*
X54681694Y-158826878D01*
X54681693Y-158826877D01*
X54637378Y-158760555D01*
X54571056Y-158716240D01*
X54571055Y-158716239D01*
X54512578Y-158704608D01*
X54512574Y-158704608D01*
X52773078Y-158704608D01*
X52773073Y-158704608D01*
X52714596Y-158716239D01*
X52714595Y-158716240D01*
X52648273Y-158760555D01*
X52603958Y-158826877D01*
X52603957Y-158826878D01*
X52592326Y-158885355D01*
X52592326Y-160624860D01*
X46382991Y-160624860D01*
X46354895Y-160563338D01*
X46270062Y-160465434D01*
X46161082Y-160395397D01*
X46161078Y-160395395D01*
X46161077Y-160395395D01*
X46036787Y-160358901D01*
X46036785Y-160358901D01*
X45907241Y-160358901D01*
X45907239Y-160358901D01*
X45782948Y-160395395D01*
X45782945Y-160395396D01*
X45782944Y-160395397D01*
X45740723Y-160422531D01*
X45673963Y-160465434D01*
X45589131Y-160563338D01*
X45589130Y-160563339D01*
X45535315Y-160681175D01*
X45516880Y-160809401D01*
X39062329Y-160809401D01*
X39014015Y-160703609D01*
X38929182Y-160605705D01*
X38820202Y-160535668D01*
X38820198Y-160535666D01*
X38820197Y-160535666D01*
X38695907Y-160499172D01*
X38695905Y-160499172D01*
X38566361Y-160499172D01*
X38566359Y-160499172D01*
X38442068Y-160535666D01*
X38442065Y-160535667D01*
X38442064Y-160535668D01*
X38409686Y-160556476D01*
X38333083Y-160605705D01*
X38248251Y-160703609D01*
X38248250Y-160703610D01*
X38194435Y-160821446D01*
X38183024Y-160900819D01*
X38153999Y-160964375D01*
X38095221Y-161002149D01*
X38060286Y-161007172D01*
X37956760Y-161007172D01*
X37832469Y-161043666D01*
X37832466Y-161043667D01*
X37832465Y-161043668D01*
X37786999Y-161072887D01*
X37723484Y-161113705D01*
X37638652Y-161211609D01*
X37638650Y-161211612D01*
X37629357Y-161231960D01*
X37583601Y-161284763D01*
X37516561Y-161304446D01*
X37449522Y-161284760D01*
X37428883Y-161268127D01*
X36804914Y-160644157D01*
X36771429Y-160582834D01*
X36768595Y-160556476D01*
X36768595Y-159466429D01*
X36768831Y-159461021D01*
X36772360Y-159420697D01*
X36761883Y-159381601D01*
X36760710Y-159376314D01*
X36753684Y-159336461D01*
X36753682Y-159336458D01*
X36751855Y-159331436D01*
X36744908Y-159314664D01*
X36742650Y-159309824D01*
X36742650Y-159309821D01*
X36719430Y-159276661D01*
X36716531Y-159272111D01*
X36696290Y-159237051D01*
X36665284Y-159211034D01*
X36661300Y-159207382D01*
X36509528Y-159055611D01*
X36975982Y-159055611D01*
X36996619Y-159212370D01*
X36996620Y-159212372D01*
X37048086Y-159336623D01*
X37057128Y-159358451D01*
X37153382Y-159483892D01*
X37278823Y-159580146D01*
X37424902Y-159640654D01*
X37503283Y-159650972D01*
X37581663Y-159661292D01*
X37581664Y-159661292D01*
X37581665Y-159661292D01*
X37648621Y-159652477D01*
X37738426Y-159640654D01*
X37884505Y-159580146D01*
X38009946Y-159483892D01*
X38106200Y-159358451D01*
X38166708Y-159212372D01*
X38177157Y-159133007D01*
X38976181Y-159133007D01*
X38994616Y-159261232D01*
X39048431Y-159379068D01*
X39048432Y-159379070D01*
X39133265Y-159476974D01*
X39242245Y-159547011D01*
X39366539Y-159583506D01*
X39366541Y-159583507D01*
X39366542Y-159583507D01*
X39496086Y-159583507D01*
X39606297Y-159551147D01*
X39676165Y-159551147D01*
X39734943Y-159588921D01*
X39763968Y-159652477D01*
X39756189Y-159706607D01*
X39759109Y-159707465D01*
X39756610Y-159715971D01*
X39738175Y-159844198D01*
X39756610Y-159972423D01*
X39782072Y-160028176D01*
X39810426Y-160090261D01*
X39895259Y-160188165D01*
X40004239Y-160258202D01*
X40128533Y-160294697D01*
X40128535Y-160294698D01*
X40128536Y-160294698D01*
X40258081Y-160294698D01*
X40258081Y-160294697D01*
X40382377Y-160258202D01*
X40491357Y-160188165D01*
X40576190Y-160090261D01*
X40630005Y-159972424D01*
X40648441Y-159844198D01*
X40630005Y-159715972D01*
X40576190Y-159598135D01*
X40491357Y-159500231D01*
X40382377Y-159430194D01*
X40382373Y-159430192D01*
X40382372Y-159430192D01*
X40258082Y-159393698D01*
X40258080Y-159393698D01*
X40128536Y-159393698D01*
X40128534Y-159393698D01*
X40018325Y-159426057D01*
X39948455Y-159426057D01*
X39889677Y-159388282D01*
X39860653Y-159324726D01*
X39868435Y-159270598D01*
X39865513Y-159269740D01*
X39868011Y-159261233D01*
X39871488Y-159237051D01*
X39886447Y-159133007D01*
X39880344Y-159090561D01*
X49361995Y-159090561D01*
X49380430Y-159218786D01*
X49434245Y-159336622D01*
X49434246Y-159336624D01*
X49519079Y-159434528D01*
X49628059Y-159504565D01*
X49671602Y-159517350D01*
X49752353Y-159541060D01*
X49752355Y-159541061D01*
X49752356Y-159541061D01*
X49881901Y-159541061D01*
X49881901Y-159541060D01*
X50006197Y-159504565D01*
X50115177Y-159434528D01*
X50200010Y-159336624D01*
X50253825Y-159218787D01*
X50272261Y-159090561D01*
X50253825Y-158962335D01*
X50200010Y-158844498D01*
X50115177Y-158746594D01*
X50006197Y-158676557D01*
X50006193Y-158676555D01*
X50006192Y-158676555D01*
X49881902Y-158640061D01*
X49881900Y-158640061D01*
X49752356Y-158640061D01*
X49752354Y-158640061D01*
X49628063Y-158676555D01*
X49628060Y-158676556D01*
X49628059Y-158676557D01*
X49584411Y-158704608D01*
X49519078Y-158746594D01*
X49434246Y-158844498D01*
X49434245Y-158844499D01*
X49380430Y-158962335D01*
X49361995Y-159090561D01*
X39880344Y-159090561D01*
X39868011Y-159004781D01*
X39814196Y-158886944D01*
X39729363Y-158789040D01*
X39620383Y-158719003D01*
X39620379Y-158719001D01*
X39620378Y-158719001D01*
X39496088Y-158682507D01*
X39496086Y-158682507D01*
X39366542Y-158682507D01*
X39366540Y-158682507D01*
X39242249Y-158719001D01*
X39242246Y-158719002D01*
X39242245Y-158719003D01*
X39190991Y-158751941D01*
X39133264Y-158789040D01*
X39048432Y-158886944D01*
X39048431Y-158886945D01*
X38994616Y-159004781D01*
X38976181Y-159133007D01*
X38177157Y-159133007D01*
X38187346Y-159055610D01*
X38166708Y-158898848D01*
X38106200Y-158752769D01*
X38009946Y-158627328D01*
X37884505Y-158531074D01*
X37836066Y-158511010D01*
X37738426Y-158470566D01*
X37738424Y-158470565D01*
X37581665Y-158449928D01*
X37581663Y-158449928D01*
X37424903Y-158470565D01*
X37424901Y-158470566D01*
X37278824Y-158531073D01*
X37153382Y-158627328D01*
X37057127Y-158752770D01*
X36996620Y-158898847D01*
X36996619Y-158898849D01*
X36975982Y-159055608D01*
X36975982Y-159055611D01*
X36509528Y-159055611D01*
X35772953Y-158319041D01*
X35691358Y-158237447D01*
X35657874Y-158176124D01*
X35655040Y-158149765D01*
X35655043Y-157588194D01*
X35674728Y-157521158D01*
X35691358Y-157500521D01*
X36075998Y-157115880D01*
X36904151Y-157115880D01*
X36924788Y-157272639D01*
X36924789Y-157272641D01*
X36985297Y-157418720D01*
X37081551Y-157544161D01*
X37206992Y-157640415D01*
X37353071Y-157700923D01*
X37431451Y-157711241D01*
X37509832Y-157721561D01*
X37509833Y-157721561D01*
X37509834Y-157721561D01*
X37562087Y-157714681D01*
X37666595Y-157700923D01*
X37812674Y-157640415D01*
X37938115Y-157544161D01*
X38005299Y-157456605D01*
X48223623Y-157456605D01*
X48244260Y-157613364D01*
X48244261Y-157613366D01*
X48304769Y-157759445D01*
X48401023Y-157884886D01*
X48526464Y-157981140D01*
X48672543Y-158041648D01*
X48750924Y-158051966D01*
X48829304Y-158062286D01*
X48829305Y-158062286D01*
X48829306Y-158062286D01*
X48881559Y-158055406D01*
X48986067Y-158041648D01*
X49132146Y-157981140D01*
X49257587Y-157884886D01*
X49353841Y-157759445D01*
X49414349Y-157613366D01*
X49434987Y-157456604D01*
X49430026Y-157418925D01*
X49414349Y-157299843D01*
X49414349Y-157299842D01*
X49353841Y-157153763D01*
X49257587Y-157028322D01*
X49132146Y-156932068D01*
X49038945Y-156893463D01*
X48986067Y-156871560D01*
X48986065Y-156871559D01*
X48829306Y-156850922D01*
X48829304Y-156850922D01*
X48672544Y-156871559D01*
X48672542Y-156871560D01*
X48526465Y-156932067D01*
X48401023Y-157028322D01*
X48304768Y-157153764D01*
X48244261Y-157299841D01*
X48244260Y-157299843D01*
X48223623Y-157456602D01*
X48223623Y-157456605D01*
X38005299Y-157456605D01*
X38034369Y-157418720D01*
X38094877Y-157272641D01*
X38115515Y-157115879D01*
X38111993Y-157089130D01*
X38094877Y-156959118D01*
X38094877Y-156959117D01*
X38046808Y-156843068D01*
X39101797Y-156843068D01*
X39120232Y-156971293D01*
X39146277Y-157028322D01*
X39174048Y-157089131D01*
X39258881Y-157187035D01*
X39367861Y-157257072D01*
X39492155Y-157293567D01*
X39492157Y-157293568D01*
X39492158Y-157293568D01*
X39621703Y-157293568D01*
X39621703Y-157293567D01*
X39745999Y-157257072D01*
X39854979Y-157187035D01*
X39939812Y-157089131D01*
X39993627Y-156971294D01*
X40012063Y-156843068D01*
X39993627Y-156714842D01*
X39939812Y-156597005D01*
X39854979Y-156499101D01*
X39745999Y-156429064D01*
X39745995Y-156429062D01*
X39745994Y-156429062D01*
X39621704Y-156392568D01*
X39621702Y-156392568D01*
X39492158Y-156392568D01*
X39492156Y-156392568D01*
X39367865Y-156429062D01*
X39367862Y-156429063D01*
X39367861Y-156429064D01*
X39324182Y-156457135D01*
X39258880Y-156499101D01*
X39174048Y-156597005D01*
X39174047Y-156597006D01*
X39120232Y-156714842D01*
X39101797Y-156843068D01*
X38046808Y-156843068D01*
X38034369Y-156813038D01*
X37938115Y-156687597D01*
X37812674Y-156591343D01*
X37666595Y-156530835D01*
X37666593Y-156530834D01*
X37509834Y-156510197D01*
X37509832Y-156510197D01*
X37353072Y-156530834D01*
X37353070Y-156530835D01*
X37206993Y-156591342D01*
X37081551Y-156687597D01*
X36985296Y-156813039D01*
X36924789Y-156959116D01*
X36924788Y-156959118D01*
X36904151Y-157115877D01*
X36904151Y-157115880D01*
X36075998Y-157115880D01*
X39317940Y-153873934D01*
X39321891Y-153870314D01*
X39352919Y-153844280D01*
X39373158Y-153809225D01*
X39376060Y-153804667D01*
X39399280Y-153771508D01*
X39399281Y-153771502D01*
X39401544Y-153766651D01*
X39408469Y-153749935D01*
X39409101Y-153748197D01*
X41617782Y-153748197D01*
X41636217Y-153876422D01*
X41662575Y-153934136D01*
X41690033Y-153994260D01*
X41774866Y-154092164D01*
X41883846Y-154162201D01*
X42008140Y-154198696D01*
X42008142Y-154198697D01*
X42008143Y-154198697D01*
X42137688Y-154198697D01*
X42137688Y-154198696D01*
X42191655Y-154182851D01*
X42270494Y-154159703D01*
X42271159Y-154161969D01*
X42327659Y-154153836D01*
X42391219Y-154182851D01*
X42429003Y-154241623D01*
X42429014Y-154311493D01*
X42422826Y-154328088D01*
X42398220Y-154381967D01*
X42379785Y-154510191D01*
X42398220Y-154638416D01*
X42439408Y-154728603D01*
X42452036Y-154756254D01*
X42536869Y-154854158D01*
X42587341Y-154886594D01*
X42633095Y-154939397D01*
X42643039Y-155008555D01*
X42618679Y-155066393D01*
X42615171Y-155070964D01*
X42554663Y-155217043D01*
X42554662Y-155217045D01*
X42534025Y-155373804D01*
X42534025Y-155373807D01*
X42554662Y-155530566D01*
X42554663Y-155530568D01*
X42599048Y-155637724D01*
X42615171Y-155676647D01*
X42711425Y-155802088D01*
X42836866Y-155898342D01*
X42982945Y-155958850D01*
X43061325Y-155969169D01*
X43139706Y-155979488D01*
X43139707Y-155979488D01*
X43139708Y-155979488D01*
X43191961Y-155972608D01*
X43296469Y-155958850D01*
X43359842Y-155932600D01*
X48223606Y-155932600D01*
X48244243Y-156089359D01*
X48244244Y-156089361D01*
X48304752Y-156235440D01*
X48401006Y-156360881D01*
X48526447Y-156457135D01*
X48672526Y-156517643D01*
X48750906Y-156527961D01*
X48829287Y-156538281D01*
X48829288Y-156538281D01*
X48829289Y-156538281D01*
X48885854Y-156530834D01*
X48986050Y-156517643D01*
X49132129Y-156457135D01*
X49257570Y-156360881D01*
X49353824Y-156235440D01*
X49414332Y-156089361D01*
X49434970Y-155932599D01*
X49414332Y-155775837D01*
X49353824Y-155629758D01*
X49257570Y-155504317D01*
X49132129Y-155408063D01*
X49086377Y-155389112D01*
X48986050Y-155347555D01*
X48986048Y-155347554D01*
X48829289Y-155326917D01*
X48829287Y-155326917D01*
X48672527Y-155347554D01*
X48672525Y-155347555D01*
X48526448Y-155408062D01*
X48401006Y-155504317D01*
X48304751Y-155629759D01*
X48244244Y-155775836D01*
X48244243Y-155775838D01*
X48223606Y-155932597D01*
X48223606Y-155932600D01*
X43359842Y-155932600D01*
X43442548Y-155898342D01*
X43567989Y-155802088D01*
X43664243Y-155676647D01*
X43724751Y-155530568D01*
X43745389Y-155373806D01*
X43724751Y-155217044D01*
X43664243Y-155070965D01*
X43567989Y-154945524D01*
X43442548Y-154849270D01*
X43442546Y-154849269D01*
X43336555Y-154805366D01*
X43282152Y-154761525D01*
X43260087Y-154695231D01*
X43269665Y-154647085D01*
X43269117Y-154646924D01*
X43270918Y-154640788D01*
X43271217Y-154639288D01*
X43271615Y-154638417D01*
X43290051Y-154510191D01*
X43271615Y-154381965D01*
X43217800Y-154264128D01*
X43132967Y-154166224D01*
X43114878Y-154154599D01*
X43702433Y-154154599D01*
X43723070Y-154311358D01*
X43723071Y-154311360D01*
X43762408Y-154406329D01*
X43783579Y-154457439D01*
X43879833Y-154582880D01*
X44005274Y-154679134D01*
X44151353Y-154739642D01*
X44229734Y-154749960D01*
X44308114Y-154760280D01*
X44308115Y-154760280D01*
X44308116Y-154760280D01*
X44360369Y-154753400D01*
X44464877Y-154739642D01*
X44610956Y-154679134D01*
X44736397Y-154582880D01*
X44832651Y-154457439D01*
X44852881Y-154408600D01*
X48223622Y-154408600D01*
X48244259Y-154565359D01*
X48244260Y-154565361D01*
X48278044Y-154646924D01*
X48304768Y-154711440D01*
X48401022Y-154836881D01*
X48526463Y-154933135D01*
X48672542Y-154993643D01*
X48750922Y-155003961D01*
X48829303Y-155014281D01*
X48829304Y-155014281D01*
X48829305Y-155014281D01*
X48881558Y-155007401D01*
X48986066Y-154993643D01*
X49132145Y-154933135D01*
X49257586Y-154836881D01*
X49353840Y-154711440D01*
X49368889Y-154675108D01*
X52587243Y-154675108D01*
X52607525Y-154881040D01*
X52625763Y-154941162D01*
X52667594Y-155079062D01*
X52765141Y-155261558D01*
X52798056Y-155301665D01*
X52896415Y-155421518D01*
X52993035Y-155500810D01*
X53056376Y-155552793D01*
X53238872Y-155650340D01*
X53436892Y-155710408D01*
X53436891Y-155710408D01*
X53455355Y-155712226D01*
X53642826Y-155730691D01*
X53848760Y-155710408D01*
X54046780Y-155650340D01*
X54229276Y-155552793D01*
X54389236Y-155421518D01*
X54520511Y-155261558D01*
X54618058Y-155079062D01*
X54678126Y-154881042D01*
X54698409Y-154675108D01*
X54678126Y-154469174D01*
X54618058Y-154271154D01*
X54520511Y-154088658D01*
X54443040Y-153994259D01*
X54389236Y-153928697D01*
X54229278Y-153797425D01*
X54229279Y-153797425D01*
X54229276Y-153797423D01*
X54056413Y-153705025D01*
X54046782Y-153699877D01*
X54046781Y-153699876D01*
X54046780Y-153699876D01*
X53848760Y-153639808D01*
X53848758Y-153639807D01*
X53848760Y-153639807D01*
X53642826Y-153619525D01*
X53436893Y-153639807D01*
X53299226Y-153681568D01*
X53239331Y-153699737D01*
X53238869Y-153699877D01*
X53145219Y-153749935D01*
X53056376Y-153797423D01*
X53056374Y-153797424D01*
X53056373Y-153797425D01*
X52896415Y-153928697D01*
X52775927Y-154075515D01*
X52765141Y-154088658D01*
X52727166Y-154159703D01*
X52667595Y-154271151D01*
X52607525Y-154469175D01*
X52587243Y-154675108D01*
X49368889Y-154675108D01*
X49414348Y-154565361D01*
X49434986Y-154408599D01*
X49414348Y-154251837D01*
X49353840Y-154105758D01*
X49257586Y-153980317D01*
X49132145Y-153884063D01*
X49113700Y-153876423D01*
X48986066Y-153823555D01*
X48986064Y-153823554D01*
X48829305Y-153802917D01*
X48829303Y-153802917D01*
X48672543Y-153823554D01*
X48672541Y-153823555D01*
X48526464Y-153884062D01*
X48401022Y-153980317D01*
X48304767Y-154105759D01*
X48244260Y-154251836D01*
X48244259Y-154251838D01*
X48223622Y-154408597D01*
X48223622Y-154408600D01*
X44852881Y-154408600D01*
X44893159Y-154311360D01*
X44907991Y-154198696D01*
X44913797Y-154154599D01*
X44913797Y-154154596D01*
X44893159Y-153997837D01*
X44893159Y-153997836D01*
X44832651Y-153851757D01*
X44736397Y-153726316D01*
X44610956Y-153630062D01*
X44586594Y-153619971D01*
X44464877Y-153569554D01*
X44464875Y-153569553D01*
X44308116Y-153548916D01*
X44308114Y-153548916D01*
X44151354Y-153569553D01*
X44151352Y-153569554D01*
X44005275Y-153630061D01*
X43879833Y-153726316D01*
X43783578Y-153851758D01*
X43723071Y-153997835D01*
X43723070Y-153997837D01*
X43702433Y-154154596D01*
X43702433Y-154154599D01*
X43114878Y-154154599D01*
X43023987Y-154096187D01*
X43023983Y-154096185D01*
X43023982Y-154096185D01*
X42899692Y-154059691D01*
X42899690Y-154059691D01*
X42770146Y-154059691D01*
X42770144Y-154059691D01*
X42637339Y-154098685D01*
X42636675Y-154096423D01*
X42580141Y-154104546D01*
X42516589Y-154075515D01*
X42478820Y-154016733D01*
X42478827Y-153946863D01*
X42485001Y-153930312D01*
X42509612Y-153876423D01*
X42528048Y-153748197D01*
X42509612Y-153619971D01*
X42455797Y-153502134D01*
X42370964Y-153404230D01*
X42261984Y-153334193D01*
X42261980Y-153334191D01*
X42261979Y-153334191D01*
X42137689Y-153297697D01*
X42137687Y-153297697D01*
X42008143Y-153297697D01*
X42008141Y-153297697D01*
X41883850Y-153334191D01*
X41883847Y-153334192D01*
X41883846Y-153334193D01*
X41832592Y-153367131D01*
X41774865Y-153404230D01*
X41690033Y-153502134D01*
X41690032Y-153502135D01*
X41636217Y-153619971D01*
X41617782Y-153748197D01*
X39409101Y-153748197D01*
X39410309Y-153744876D01*
X39410313Y-153744871D01*
X39417343Y-153704994D01*
X39418503Y-153699763D01*
X39428990Y-153660631D01*
X39425461Y-153620307D01*
X39425226Y-153614904D01*
X39425226Y-153594798D01*
X39444911Y-153527759D01*
X39455508Y-153513600D01*
X39482610Y-153482324D01*
X39536425Y-153364487D01*
X39554294Y-153240206D01*
X47004437Y-153240206D01*
X47025074Y-153396965D01*
X47025075Y-153396967D01*
X47082260Y-153535025D01*
X47085583Y-153543046D01*
X47181837Y-153668487D01*
X47307278Y-153764741D01*
X47453357Y-153825249D01*
X47531737Y-153835568D01*
X47610118Y-153845887D01*
X47610119Y-153845887D01*
X47610120Y-153845887D01*
X47662372Y-153839007D01*
X47766881Y-153825249D01*
X47912960Y-153764741D01*
X48038401Y-153668487D01*
X48134655Y-153543046D01*
X48195163Y-153396967D01*
X48213607Y-153256868D01*
X48215801Y-153240206D01*
X48215801Y-153240203D01*
X48195163Y-153083444D01*
X48195163Y-153083443D01*
X48134655Y-152937364D01*
X48038401Y-152811923D01*
X47912960Y-152715669D01*
X47879332Y-152701740D01*
X47766881Y-152655161D01*
X47766879Y-152655160D01*
X47610120Y-152634523D01*
X47610118Y-152634523D01*
X47453358Y-152655160D01*
X47453356Y-152655161D01*
X47307279Y-152715668D01*
X47181837Y-152811923D01*
X47085582Y-152937365D01*
X47025075Y-153083442D01*
X47025074Y-153083444D01*
X47004437Y-153240203D01*
X47004437Y-153240206D01*
X39554294Y-153240206D01*
X39554861Y-153236261D01*
X39536425Y-153108035D01*
X39482610Y-152990198D01*
X39397777Y-152892294D01*
X39288797Y-152822257D01*
X39288793Y-152822255D01*
X39288792Y-152822255D01*
X39164502Y-152785761D01*
X39164500Y-152785761D01*
X39034956Y-152785761D01*
X39034954Y-152785761D01*
X38910663Y-152822255D01*
X38910660Y-152822256D01*
X38910659Y-152822257D01*
X38892035Y-152834226D01*
X38801678Y-152892294D01*
X38716846Y-152990198D01*
X38716845Y-152990199D01*
X38663030Y-153108035D01*
X38644595Y-153236261D01*
X38663030Y-153364486D01*
X38703670Y-153453473D01*
X38713614Y-153522632D01*
X38684589Y-153586187D01*
X38678557Y-153592666D01*
X36528053Y-155743172D01*
X36466730Y-155776657D01*
X36397038Y-155771673D01*
X36341105Y-155729801D01*
X36316688Y-155664337D01*
X36327578Y-155603979D01*
X36350955Y-155552793D01*
X36365982Y-155519888D01*
X36384418Y-155391662D01*
X36365982Y-155263436D01*
X36312167Y-155145599D01*
X36227334Y-155047695D01*
X36118354Y-154977658D01*
X36118350Y-154977656D01*
X36118349Y-154977656D01*
X35994059Y-154941162D01*
X35994057Y-154941162D01*
X35864513Y-154941162D01*
X35864511Y-154941162D01*
X35740220Y-154977656D01*
X35740217Y-154977657D01*
X35740216Y-154977658D01*
X35715343Y-154993643D01*
X35631235Y-155047695D01*
X35546403Y-155145599D01*
X35546402Y-155145600D01*
X35492587Y-155263436D01*
X35474152Y-155391662D01*
X35492587Y-155519887D01*
X35542765Y-155629759D01*
X35546403Y-155637725D01*
X35631236Y-155735629D01*
X35740216Y-155805666D01*
X35740223Y-155805668D01*
X35864510Y-155842161D01*
X35864512Y-155842162D01*
X35864513Y-155842162D01*
X35994058Y-155842162D01*
X35994058Y-155842161D01*
X36072857Y-155819024D01*
X36118348Y-155805668D01*
X36118348Y-155805667D01*
X36118354Y-155805666D01*
X36119722Y-155804786D01*
X36121283Y-155804328D01*
X36126416Y-155801984D01*
X36126753Y-155802721D01*
X36186756Y-155785100D01*
X36253797Y-155804781D01*
X36299555Y-155857583D01*
X36309502Y-155926741D01*
X36280480Y-155990298D01*
X36274444Y-155996781D01*
X35111348Y-157159879D01*
X35107359Y-157163534D01*
X35076351Y-157189554D01*
X35076348Y-157189556D01*
X35056111Y-157224608D01*
X35053206Y-157229169D01*
X35029989Y-157262326D01*
X35027753Y-157267123D01*
X35020773Y-157283973D01*
X35018957Y-157288963D01*
X35011930Y-157328814D01*
X35010759Y-157334094D01*
X35004453Y-157357631D01*
X35000281Y-157373202D01*
X35000281Y-157373203D01*
X35000280Y-157373208D01*
X35003807Y-157413520D01*
X35004043Y-157418925D01*
X35004040Y-158319041D01*
X35003804Y-158324447D01*
X35000276Y-158364763D01*
X35010751Y-158403856D01*
X35011922Y-158409138D01*
X35018951Y-158449001D01*
X35020759Y-158453967D01*
X35027741Y-158470824D01*
X35029986Y-158475639D01*
X35053200Y-158508794D01*
X35056101Y-158513347D01*
X35064026Y-158527073D01*
X35076345Y-158548411D01*
X35107357Y-158574433D01*
X35111346Y-158578089D01*
X36010235Y-159476974D01*
X36081276Y-159548014D01*
X36114761Y-159609337D01*
X36117595Y-159635695D01*
X36117595Y-160595120D01*
X36097910Y-160662159D01*
X36045106Y-160707914D01*
X35977410Y-160718059D01*
X35837135Y-160699592D01*
X35837133Y-160699592D01*
X35680373Y-160720229D01*
X35680371Y-160720230D01*
X35534292Y-160780738D01*
X35483792Y-160819487D01*
X35418622Y-160844680D01*
X35350177Y-160830641D01*
X35320626Y-160808791D01*
X33754832Y-159242996D01*
X33736346Y-159237568D01*
X33690591Y-159184764D01*
X33679385Y-159133256D01*
X33679385Y-158532480D01*
X33679621Y-158527073D01*
X33680822Y-158513356D01*
X33683149Y-158486755D01*
X33680170Y-158475639D01*
X33673281Y-158449928D01*
X33672668Y-158447641D01*
X33671499Y-158442364D01*
X33664473Y-158402515D01*
X33664471Y-158402512D01*
X33662651Y-158397510D01*
X33655699Y-158380725D01*
X33653439Y-158375877D01*
X33645657Y-158364764D01*
X33630221Y-158342720D01*
X33627333Y-158338188D01*
X33607079Y-158303105D01*
X33607078Y-158303104D01*
X33607078Y-158303103D01*
X33576065Y-158277081D01*
X33572085Y-158273435D01*
X30518732Y-155220080D01*
X30485247Y-155158757D01*
X30482413Y-155132399D01*
X30482413Y-154457437D01*
X30482413Y-154278103D01*
X34360598Y-154278103D01*
X34379033Y-154406328D01*
X34407735Y-154469175D01*
X34432849Y-154524166D01*
X34517682Y-154622070D01*
X34626662Y-154692107D01*
X34637302Y-154695231D01*
X34750956Y-154728602D01*
X34750958Y-154728603D01*
X34750959Y-154728603D01*
X34880504Y-154728603D01*
X34880504Y-154728602D01*
X35004800Y-154692107D01*
X35113780Y-154622070D01*
X35198613Y-154524166D01*
X35252428Y-154406329D01*
X35270864Y-154278103D01*
X35252428Y-154149877D01*
X35198613Y-154032040D01*
X35113780Y-153934136D01*
X35004800Y-153864099D01*
X35004796Y-153864097D01*
X35004795Y-153864097D01*
X34880505Y-153827603D01*
X34880503Y-153827603D01*
X34750959Y-153827603D01*
X34750957Y-153827603D01*
X34626666Y-153864097D01*
X34626663Y-153864098D01*
X34626662Y-153864099D01*
X34575408Y-153897037D01*
X34517681Y-153934136D01*
X34432849Y-154032040D01*
X34432848Y-154032041D01*
X34379033Y-154149877D01*
X34360598Y-154278103D01*
X30482413Y-154278103D01*
X30482413Y-153708721D01*
X30502098Y-153641686D01*
X30518727Y-153621049D01*
X31620419Y-152519359D01*
X31681743Y-152485874D01*
X31708101Y-152483040D01*
X33415267Y-152483040D01*
X33482306Y-152502725D01*
X33528061Y-152555529D01*
X33538005Y-152624687D01*
X33508980Y-152688243D01*
X33482306Y-152711356D01*
X33477199Y-152714637D01*
X33477198Y-152714638D01*
X33453153Y-152730091D01*
X33368217Y-152784675D01*
X33283385Y-152882579D01*
X33283384Y-152882580D01*
X33229569Y-153000416D01*
X33211134Y-153128642D01*
X33229569Y-153256867D01*
X33280828Y-153369107D01*
X33283385Y-153374705D01*
X33368218Y-153472609D01*
X33477198Y-153542646D01*
X33601492Y-153579141D01*
X33601494Y-153579142D01*
X33601495Y-153579142D01*
X33731040Y-153579142D01*
X33731040Y-153579141D01*
X33855336Y-153542646D01*
X33964316Y-153472609D01*
X34049149Y-153374705D01*
X34102964Y-153256868D01*
X34121400Y-153128642D01*
X34102964Y-153000416D01*
X34049149Y-152882579D01*
X33964316Y-152784675D01*
X33855336Y-152714638D01*
X33855334Y-152714637D01*
X33850228Y-152711356D01*
X33804473Y-152658552D01*
X33794529Y-152589394D01*
X33823554Y-152525838D01*
X33882332Y-152488063D01*
X33917267Y-152483040D01*
X34640461Y-152483040D01*
X34707500Y-152502725D01*
X34728141Y-152519359D01*
X35222924Y-153014141D01*
X35374788Y-153166009D01*
X35378434Y-153169988D01*
X35404452Y-153200997D01*
X35415383Y-153207307D01*
X35439522Y-153221243D01*
X35444050Y-153224128D01*
X35477220Y-153247355D01*
X35477222Y-153247355D01*
X35482067Y-153249615D01*
X35498864Y-153256572D01*
X35503861Y-153258390D01*
X35503863Y-153258391D01*
X35543734Y-153265420D01*
X35548975Y-153266582D01*
X35588096Y-153277066D01*
X35588097Y-153277065D01*
X35588098Y-153277066D01*
X35603949Y-153275679D01*
X35628419Y-153273538D01*
X35633819Y-153273303D01*
X36690555Y-153273303D01*
X36757593Y-153292986D01*
X36864680Y-153361807D01*
X36984420Y-153396965D01*
X36988974Y-153398302D01*
X36988976Y-153398303D01*
X36988977Y-153398303D01*
X37118522Y-153398303D01*
X37118522Y-153398302D01*
X37242818Y-153361807D01*
X37351798Y-153291770D01*
X37436631Y-153193866D01*
X37490446Y-153076029D01*
X37508882Y-152947803D01*
X37490446Y-152819577D01*
X37436631Y-152701740D01*
X37351798Y-152603836D01*
X37327410Y-152588163D01*
X48955601Y-152588163D01*
X48974036Y-152716388D01*
X49017666Y-152811923D01*
X49027852Y-152834226D01*
X49112685Y-152932130D01*
X49221665Y-153002167D01*
X49257855Y-153012793D01*
X49345959Y-153038662D01*
X49345961Y-153038663D01*
X49345962Y-153038663D01*
X49475507Y-153038663D01*
X49475507Y-153038662D01*
X49599803Y-153002167D01*
X49708783Y-152932130D01*
X49793616Y-152834226D01*
X49847431Y-152716389D01*
X49865867Y-152588163D01*
X49847431Y-152459937D01*
X49793616Y-152342100D01*
X49708783Y-152244196D01*
X49599803Y-152174159D01*
X49599799Y-152174157D01*
X49599798Y-152174157D01*
X49475508Y-152137663D01*
X49475506Y-152137663D01*
X49345962Y-152137663D01*
X49345960Y-152137663D01*
X49221669Y-152174157D01*
X49221666Y-152174158D01*
X49221665Y-152174159D01*
X49176146Y-152203412D01*
X49112684Y-152244196D01*
X49027852Y-152342100D01*
X49027851Y-152342101D01*
X48974036Y-152459937D01*
X48955601Y-152588163D01*
X37327410Y-152588163D01*
X37242818Y-152533799D01*
X37242814Y-152533797D01*
X37242813Y-152533797D01*
X37118523Y-152497303D01*
X37118521Y-152497303D01*
X36988977Y-152497303D01*
X36988975Y-152497303D01*
X36864684Y-152533797D01*
X36864681Y-152533798D01*
X36864680Y-152533799D01*
X36757594Y-152602619D01*
X36690555Y-152622303D01*
X35803101Y-152622303D01*
X35736062Y-152602618D01*
X35715419Y-152585983D01*
X35681635Y-152552198D01*
X35681605Y-152552170D01*
X35264543Y-152135108D01*
X52587243Y-152135108D01*
X52607525Y-152341040D01*
X52607526Y-152341042D01*
X52667594Y-152539062D01*
X52765141Y-152721558D01*
X52765143Y-152721560D01*
X52896415Y-152881518D01*
X52974162Y-152945322D01*
X53056376Y-153012793D01*
X53238872Y-153110340D01*
X53436892Y-153170408D01*
X53436891Y-153170408D01*
X53457173Y-153172405D01*
X53642826Y-153190691D01*
X53848760Y-153170408D01*
X54046780Y-153110340D01*
X54229276Y-153012793D01*
X54389236Y-152881518D01*
X54520511Y-152721558D01*
X54618058Y-152539062D01*
X54678126Y-152341042D01*
X54698409Y-152135108D01*
X54678126Y-151929174D01*
X54618058Y-151731154D01*
X54520511Y-151548658D01*
X54468528Y-151485317D01*
X54389236Y-151388697D01*
X54229278Y-151257425D01*
X54229279Y-151257425D01*
X54229276Y-151257423D01*
X54046780Y-151159876D01*
X53848760Y-151099808D01*
X53848758Y-151099807D01*
X53848760Y-151099807D01*
X53642826Y-151079525D01*
X53436893Y-151099807D01*
X53238869Y-151159877D01*
X53199361Y-151180995D01*
X53056376Y-151257423D01*
X53056374Y-151257424D01*
X53056373Y-151257425D01*
X52896415Y-151388697D01*
X52765143Y-151548655D01*
X52667595Y-151731151D01*
X52607525Y-151929175D01*
X52587243Y-152135108D01*
X35264543Y-152135108D01*
X35068768Y-151939333D01*
X35065123Y-151935354D01*
X35039105Y-151904347D01*
X35039104Y-151904346D01*
X35027707Y-151897766D01*
X35004041Y-151884101D01*
X34999480Y-151881195D01*
X34986336Y-151871992D01*
X34966333Y-151857986D01*
X34966330Y-151857985D01*
X34961510Y-151855737D01*
X34944704Y-151848775D01*
X34939692Y-151846951D01*
X34899839Y-151839923D01*
X34894559Y-151838752D01*
X34855457Y-151828275D01*
X34820541Y-151831330D01*
X34815130Y-151831804D01*
X34809727Y-151832040D01*
X31538819Y-151832040D01*
X31533420Y-151831804D01*
X31522375Y-151830838D01*
X31493105Y-151828277D01*
X31493103Y-151828277D01*
X31454011Y-151838752D01*
X31448731Y-151839923D01*
X31408867Y-151846953D01*
X31403875Y-151848770D01*
X31387030Y-151855747D01*
X31382226Y-151857987D01*
X31349079Y-151881197D01*
X31344519Y-151884103D01*
X31309461Y-151904345D01*
X31309453Y-151904351D01*
X31283436Y-151935356D01*
X31279782Y-151939345D01*
X29938711Y-153280412D01*
X29934722Y-153284068D01*
X29903721Y-153310081D01*
X29883479Y-153345139D01*
X29880573Y-153349700D01*
X29857361Y-153382850D01*
X29855121Y-153387654D01*
X29848144Y-153404498D01*
X29846325Y-153409496D01*
X29839298Y-153449348D01*
X29838127Y-153454629D01*
X29827650Y-153493729D01*
X29827650Y-153493731D01*
X29831177Y-153534049D01*
X29831413Y-153539454D01*
X29831413Y-155301665D01*
X29831177Y-155307072D01*
X29827648Y-155347395D01*
X29838125Y-155386497D01*
X29839296Y-155391777D01*
X29846324Y-155431630D01*
X29848148Y-155436642D01*
X29855110Y-155453448D01*
X29857358Y-155458268D01*
X29857359Y-155458271D01*
X29871365Y-155478274D01*
X29880568Y-155491418D01*
X29883474Y-155495979D01*
X29903719Y-155531042D01*
X29934728Y-155557062D01*
X29938718Y-155560718D01*
X32992066Y-158614068D01*
X33025551Y-158675391D01*
X33028385Y-158701749D01*
X33028385Y-159191475D01*
X33008700Y-159258514D01*
X32992066Y-159279156D01*
X32417264Y-159853958D01*
X32413275Y-159857612D01*
X32382274Y-159883626D01*
X32382270Y-159883632D01*
X32362030Y-159918686D01*
X32359124Y-159923247D01*
X32335912Y-159956397D01*
X32333672Y-159961201D01*
X32326695Y-159978045D01*
X32324876Y-159983043D01*
X32317849Y-160022895D01*
X32316678Y-160028176D01*
X32306201Y-160067276D01*
X32309730Y-160107600D01*
X32309966Y-160113007D01*
X32309966Y-160665007D01*
X32290281Y-160732046D01*
X32273647Y-160752688D01*
X31553775Y-161472558D01*
X31497160Y-161503471D01*
X31497501Y-161504742D01*
X31489653Y-161506844D01*
X31343572Y-161567353D01*
X31218130Y-161663608D01*
X31121875Y-161789050D01*
X31061366Y-161935131D01*
X31059264Y-161942979D01*
X31056009Y-161942107D01*
X31033993Y-161991745D01*
X31027080Y-161999251D01*
X30754820Y-162271511D01*
X30693497Y-162304996D01*
X30623805Y-162300012D01*
X30582718Y-162274655D01*
X23755285Y-155928642D01*
X23719585Y-155868586D01*
X23716405Y-155824693D01*
X23718431Y-155805668D01*
X23732166Y-155676645D01*
X23734560Y-155654161D01*
X23734560Y-155654162D01*
X23753977Y-155121896D01*
X23736338Y-154589570D01*
X23685738Y-154098685D01*
X23681725Y-154059756D01*
X23670326Y-153994259D01*
X23619525Y-153702350D01*
X23590405Y-153535025D01*
X23552859Y-153382850D01*
X23462820Y-153017917D01*
X23383418Y-152771394D01*
X23382566Y-152768752D01*
X23381817Y-152766425D01*
X23380667Y-152762385D01*
X23321637Y-152524825D01*
X23320170Y-152516556D01*
X23294088Y-152275289D01*
X23293755Y-152266881D01*
X23298961Y-152082175D01*
X25936283Y-152082175D01*
X25955447Y-152313466D01*
X25955449Y-152313477D01*
X26012425Y-152538469D01*
X26105658Y-152751017D01*
X26232599Y-152945316D01*
X26232602Y-152945320D01*
X26232604Y-152945322D01*
X26389799Y-153116082D01*
X26389802Y-153116084D01*
X26389805Y-153116087D01*
X26572948Y-153258633D01*
X26572954Y-153258637D01*
X26572957Y-153258639D01*
X26777080Y-153369105D01*
X26862128Y-153398302D01*
X26996598Y-153444466D01*
X26996600Y-153444466D01*
X26996602Y-153444467D01*
X27225534Y-153482669D01*
X27225535Y-153482669D01*
X27457631Y-153482669D01*
X27457632Y-153482669D01*
X27686564Y-153444467D01*
X27906086Y-153369105D01*
X28110209Y-153258639D01*
X28112485Y-153256868D01*
X28215126Y-153176979D01*
X28293367Y-153116082D01*
X28450562Y-152945322D01*
X28577507Y-152751018D01*
X28670740Y-152538469D01*
X28727717Y-152313474D01*
X28727718Y-152313466D01*
X28746883Y-152082175D01*
X28746883Y-152082162D01*
X28727718Y-151850871D01*
X28727716Y-151850860D01*
X28670740Y-151625868D01*
X28577507Y-151413320D01*
X28450566Y-151219021D01*
X28450563Y-151219018D01*
X28450562Y-151219016D01*
X28293367Y-151048256D01*
X28293362Y-151048252D01*
X28293360Y-151048250D01*
X28110217Y-150905704D01*
X28110211Y-150905700D01*
X27906087Y-150795233D01*
X27906078Y-150795230D01*
X27686567Y-150719871D01*
X27514865Y-150691219D01*
X27457632Y-150681669D01*
X27225534Y-150681669D01*
X27179747Y-150689309D01*
X26996598Y-150719871D01*
X26777087Y-150795230D01*
X26777078Y-150795233D01*
X26572954Y-150905700D01*
X26572948Y-150905704D01*
X26389805Y-151048250D01*
X26389802Y-151048253D01*
X26232599Y-151219021D01*
X26105658Y-151413320D01*
X26012425Y-151625868D01*
X25955449Y-151850860D01*
X25955447Y-151850871D01*
X25936283Y-152082162D01*
X25936283Y-152082175D01*
X23298961Y-152082175D01*
X23300592Y-152024326D01*
X23301401Y-152015938D01*
X23314397Y-151937430D01*
X23341029Y-151776542D01*
X23342962Y-151768359D01*
X23414655Y-151536530D01*
X23417685Y-151528667D01*
X23520118Y-151308681D01*
X23524170Y-151301328D01*
X23655465Y-151097231D01*
X23660478Y-151090493D01*
X23818194Y-150906077D01*
X23824093Y-150900059D01*
X24005335Y-150738702D01*
X24011979Y-150733552D01*
X24214996Y-150597164D01*
X24218552Y-150594947D01*
X27318484Y-148805201D01*
X30206505Y-148805201D01*
X30226787Y-149011133D01*
X30247939Y-149080861D01*
X30286856Y-149209155D01*
X30384403Y-149391651D01*
X30384405Y-149391653D01*
X30515677Y-149551611D01*
X30612297Y-149630903D01*
X30675638Y-149682886D01*
X30858134Y-149780433D01*
X31056154Y-149840501D01*
X31056153Y-149840501D01*
X31076435Y-149842498D01*
X31262088Y-149860784D01*
X31468022Y-149840501D01*
X31666042Y-149780433D01*
X31848538Y-149682886D01*
X31873715Y-149662224D01*
X38278640Y-149662224D01*
X38299277Y-149818983D01*
X38299278Y-149818985D01*
X38359786Y-149965064D01*
X38456040Y-150090505D01*
X38581481Y-150186759D01*
X38727560Y-150247267D01*
X38805941Y-150257586D01*
X38884321Y-150267905D01*
X38884322Y-150267905D01*
X38884323Y-150267905D01*
X38936576Y-150261025D01*
X39041084Y-150247267D01*
X39187163Y-150186759D01*
X39312604Y-150090505D01*
X39408858Y-149965064D01*
X39469366Y-149818985D01*
X39490004Y-149662223D01*
X39481168Y-149595108D01*
X52587243Y-149595108D01*
X52607525Y-149801040D01*
X52625648Y-149860783D01*
X52667594Y-149999062D01*
X52765141Y-150181558D01*
X52799795Y-150223785D01*
X52896415Y-150341518D01*
X52993035Y-150420810D01*
X53056376Y-150472793D01*
X53238872Y-150570340D01*
X53436892Y-150630408D01*
X53436891Y-150630408D01*
X53455355Y-150632226D01*
X53642826Y-150650691D01*
X53848760Y-150630408D01*
X54046780Y-150570340D01*
X54229276Y-150472793D01*
X54389236Y-150341518D01*
X54520511Y-150181558D01*
X54618058Y-149999062D01*
X54678126Y-149801042D01*
X54698409Y-149595108D01*
X54678126Y-149389174D01*
X54618058Y-149191154D01*
X54520511Y-149008658D01*
X54468528Y-148945317D01*
X54389236Y-148848697D01*
X54229278Y-148717425D01*
X54229279Y-148717425D01*
X54229276Y-148717423D01*
X54046780Y-148619876D01*
X53848760Y-148559808D01*
X53848758Y-148559807D01*
X53848760Y-148559807D01*
X53661289Y-148541343D01*
X53642826Y-148539525D01*
X53642825Y-148539525D01*
X53436893Y-148559807D01*
X53238869Y-148619877D01*
X53150979Y-148666856D01*
X53056376Y-148717423D01*
X53056374Y-148717424D01*
X53056373Y-148717425D01*
X52896415Y-148848697D01*
X52765143Y-149008655D01*
X52765141Y-149008658D01*
X52763984Y-149010823D01*
X52667595Y-149191151D01*
X52607525Y-149389175D01*
X52587243Y-149595108D01*
X39481168Y-149595108D01*
X39469366Y-149505461D01*
X39408858Y-149359382D01*
X39312604Y-149233941D01*
X39187163Y-149137687D01*
X39138077Y-149117355D01*
X39041084Y-149077179D01*
X39041082Y-149077178D01*
X38884323Y-149056541D01*
X38884321Y-149056541D01*
X38727561Y-149077178D01*
X38727559Y-149077179D01*
X38581482Y-149137686D01*
X38456040Y-149233941D01*
X38359785Y-149359383D01*
X38299278Y-149505460D01*
X38299277Y-149505462D01*
X38278640Y-149662221D01*
X38278640Y-149662224D01*
X31873715Y-149662224D01*
X32008498Y-149551611D01*
X32139773Y-149391651D01*
X32237320Y-149209155D01*
X32297388Y-149011135D01*
X32317671Y-148805201D01*
X32297388Y-148599267D01*
X32237320Y-148401247D01*
X32139773Y-148218751D01*
X32087790Y-148155410D01*
X32008498Y-148058790D01*
X31848540Y-147927518D01*
X31848541Y-147927518D01*
X31848538Y-147927516D01*
X31666042Y-147829969D01*
X31468022Y-147769901D01*
X31468020Y-147769900D01*
X31468022Y-147769900D01*
X31262088Y-147749618D01*
X31056155Y-147769900D01*
X30858131Y-147829970D01*
X30765040Y-147879729D01*
X30675638Y-147927516D01*
X30675636Y-147927517D01*
X30675635Y-147927518D01*
X30515677Y-148058790D01*
X30384405Y-148218748D01*
X30384403Y-148218751D01*
X30345731Y-148291099D01*
X30286857Y-148401244D01*
X30226787Y-148599268D01*
X30206505Y-148805201D01*
X27318484Y-148805201D01*
X30010850Y-147250763D01*
X32097991Y-147250763D01*
X32117157Y-147307222D01*
X32117159Y-147307228D01*
X32986905Y-148813672D01*
X32986909Y-148813678D01*
X33026221Y-148858504D01*
X33026223Y-148858506D01*
X33097762Y-148893784D01*
X33177355Y-148899002D01*
X33233819Y-148879835D01*
X34740267Y-148010087D01*
X34785098Y-147970771D01*
X34820376Y-147899232D01*
X34825594Y-147819639D01*
X34825175Y-147818406D01*
X34806428Y-147763179D01*
X34806426Y-147763173D01*
X34132452Y-146595816D01*
X33936679Y-146256727D01*
X33936677Y-146256725D01*
X33936676Y-146256723D01*
X33897364Y-146211897D01*
X33897363Y-146211896D01*
X33825824Y-146176618D01*
X33820604Y-146176275D01*
X33746230Y-146171399D01*
X33689771Y-146190565D01*
X33689765Y-146190567D01*
X32183321Y-147060313D01*
X32183315Y-147060317D01*
X32138489Y-147099629D01*
X32103210Y-147171170D01*
X32097991Y-147250763D01*
X30010850Y-147250763D01*
X32867345Y-145601565D01*
X41564052Y-145601565D01*
X41582487Y-145729790D01*
X41621330Y-145814842D01*
X41636303Y-145847628D01*
X41685976Y-145904954D01*
X41720509Y-145944809D01*
X41721136Y-145945532D01*
X41830116Y-146015569D01*
X41954410Y-146052064D01*
X41954412Y-146052065D01*
X42020746Y-146052065D01*
X42087785Y-146071750D01*
X42133540Y-146124554D01*
X42143484Y-146193712D01*
X42133540Y-146227577D01*
X42082487Y-146339364D01*
X42064052Y-146467590D01*
X42082487Y-146595815D01*
X42122585Y-146683615D01*
X42136303Y-146713653D01*
X42221136Y-146811557D01*
X42330116Y-146881594D01*
X42454410Y-146918089D01*
X42454412Y-146918090D01*
X42520746Y-146918090D01*
X42587785Y-146937775D01*
X42633540Y-146990579D01*
X42643484Y-147059737D01*
X42633540Y-147093602D01*
X42582487Y-147205389D01*
X42564052Y-147333615D01*
X42582487Y-147461840D01*
X42628409Y-147562393D01*
X42636303Y-147579678D01*
X42721136Y-147677582D01*
X42830116Y-147747619D01*
X42954410Y-147784114D01*
X42954412Y-147784115D01*
X42954413Y-147784115D01*
X43083958Y-147784115D01*
X43083958Y-147784114D01*
X43208254Y-147747619D01*
X43317234Y-147677582D01*
X43402067Y-147579678D01*
X43455882Y-147461841D01*
X43474318Y-147333615D01*
X43455882Y-147205389D01*
X43402067Y-147087552D01*
X43317234Y-146989648D01*
X43208254Y-146919611D01*
X43208250Y-146919609D01*
X43208249Y-146919609D01*
X43083959Y-146883115D01*
X43083957Y-146883115D01*
X43017624Y-146883115D01*
X42950585Y-146863430D01*
X42904830Y-146810626D01*
X42894886Y-146741468D01*
X42904830Y-146707603D01*
X42949598Y-146609575D01*
X42955882Y-146595816D01*
X42974318Y-146467590D01*
X42955882Y-146339364D01*
X42902067Y-146221527D01*
X42817234Y-146123623D01*
X42708254Y-146053586D01*
X42708250Y-146053584D01*
X42708249Y-146053584D01*
X42583959Y-146017090D01*
X42583957Y-146017090D01*
X42517624Y-146017090D01*
X42450585Y-145997405D01*
X42404830Y-145944601D01*
X42394886Y-145875443D01*
X42404830Y-145841578D01*
X42455882Y-145729790D01*
X42474318Y-145601565D01*
X42455882Y-145473339D01*
X42402067Y-145355502D01*
X42317234Y-145257598D01*
X42208254Y-145187561D01*
X42208250Y-145187559D01*
X42208249Y-145187559D01*
X42083959Y-145151065D01*
X42083957Y-145151065D01*
X41954413Y-145151065D01*
X41954411Y-145151065D01*
X41830120Y-145187559D01*
X41830117Y-145187560D01*
X41830116Y-145187561D01*
X41778862Y-145220499D01*
X41721135Y-145257598D01*
X41636303Y-145355502D01*
X41636302Y-145355503D01*
X41582487Y-145473339D01*
X41564052Y-145601565D01*
X32867345Y-145601565D01*
X33993180Y-144951564D01*
X42689886Y-144951564D01*
X42708321Y-145079790D01*
X42759374Y-145191578D01*
X42762137Y-145197628D01*
X42846970Y-145295532D01*
X42955950Y-145365569D01*
X43080244Y-145402064D01*
X43080246Y-145402065D01*
X43146580Y-145402065D01*
X43213619Y-145421750D01*
X43259374Y-145474554D01*
X43269318Y-145543712D01*
X43259374Y-145577577D01*
X43208321Y-145689364D01*
X43189886Y-145817590D01*
X43208321Y-145945815D01*
X43259374Y-146057603D01*
X43262137Y-146063653D01*
X43346970Y-146161557D01*
X43455950Y-146231594D01*
X43580244Y-146268089D01*
X43580246Y-146268090D01*
X43646580Y-146268090D01*
X43713619Y-146287775D01*
X43759374Y-146340579D01*
X43769318Y-146409737D01*
X43759374Y-146443602D01*
X43708321Y-146555389D01*
X43689886Y-146683615D01*
X43708321Y-146811840D01*
X43762136Y-146929676D01*
X43762137Y-146929678D01*
X43846970Y-147027582D01*
X43955950Y-147097619D01*
X44080237Y-147134112D01*
X44080244Y-147134114D01*
X44080246Y-147134115D01*
X44080247Y-147134115D01*
X44209792Y-147134115D01*
X44209792Y-147134114D01*
X44334088Y-147097619D01*
X44443068Y-147027582D01*
X44527901Y-146929678D01*
X44581716Y-146811841D01*
X44600152Y-146683615D01*
X44581716Y-146555389D01*
X44527901Y-146437552D01*
X44443068Y-146339648D01*
X44334088Y-146269611D01*
X44334084Y-146269609D01*
X44334083Y-146269609D01*
X44209793Y-146233115D01*
X44209791Y-146233115D01*
X44143458Y-146233115D01*
X44076419Y-146213430D01*
X44030664Y-146160626D01*
X44020720Y-146091468D01*
X44030664Y-146057603D01*
X44052787Y-146009160D01*
X44081716Y-145945816D01*
X44093972Y-145860572D01*
X46084264Y-145860572D01*
X46094741Y-145899674D01*
X46095912Y-145904954D01*
X46102940Y-145944807D01*
X46104764Y-145949819D01*
X46111726Y-145966627D01*
X46113974Y-145971447D01*
X46137186Y-146004597D01*
X46140093Y-146009160D01*
X46160331Y-146044213D01*
X46160337Y-146044221D01*
X46191338Y-146070234D01*
X46195316Y-146073878D01*
X48301482Y-148180037D01*
X48754209Y-148632763D01*
X48787694Y-148694086D01*
X48789266Y-148702797D01*
X48802534Y-148795081D01*
X48827020Y-148848697D01*
X48856350Y-148912919D01*
X48941183Y-149010823D01*
X49050163Y-149080860D01*
X49174457Y-149117355D01*
X49174459Y-149117356D01*
X49174460Y-149117356D01*
X49304005Y-149117356D01*
X49304005Y-149117355D01*
X49428301Y-149080860D01*
X49537281Y-149010823D01*
X49622114Y-148912919D01*
X49675929Y-148795082D01*
X49694365Y-148666856D01*
X49675929Y-148538630D01*
X49622114Y-148420793D01*
X49537281Y-148322889D01*
X49428301Y-148252852D01*
X49428297Y-148252850D01*
X49428296Y-148252850D01*
X49304006Y-148216356D01*
X49295227Y-148215094D01*
X49295643Y-148212194D01*
X49242777Y-148196671D01*
X49222135Y-148180037D01*
X49100888Y-148058790D01*
X48921825Y-147879728D01*
X48888341Y-147818406D01*
X48893325Y-147748715D01*
X48935196Y-147692781D01*
X49000661Y-147668364D01*
X49056959Y-147677486D01*
X49157555Y-147719155D01*
X49235935Y-147729474D01*
X49314316Y-147739793D01*
X49314317Y-147739793D01*
X49314318Y-147739793D01*
X49366571Y-147732913D01*
X49471079Y-147719155D01*
X49612672Y-147660504D01*
X49682140Y-147653036D01*
X49744620Y-147684311D01*
X49780272Y-147744400D01*
X49782862Y-147757419D01*
X49801042Y-147883867D01*
X49840731Y-147970771D01*
X49854858Y-148001705D01*
X49939691Y-148099609D01*
X50048671Y-148169646D01*
X50140712Y-148196671D01*
X50172965Y-148206141D01*
X50172967Y-148206142D01*
X50172968Y-148206142D01*
X50302513Y-148206142D01*
X50302513Y-148206141D01*
X50426809Y-148169646D01*
X50535789Y-148099609D01*
X50620622Y-148001705D01*
X50674437Y-147883868D01*
X50692873Y-147755642D01*
X50674437Y-147627416D01*
X50620622Y-147509579D01*
X50535789Y-147411675D01*
X50426809Y-147341638D01*
X50426805Y-147341636D01*
X50426804Y-147341636D01*
X50302514Y-147305142D01*
X50302512Y-147305142D01*
X50172968Y-147305142D01*
X50172966Y-147305142D01*
X50069136Y-147335628D01*
X49999266Y-147335628D01*
X49940488Y-147297853D01*
X49911464Y-147234297D01*
X49911263Y-147200465D01*
X49919999Y-147134114D01*
X49919999Y-147134111D01*
X49915459Y-147099629D01*
X49899361Y-146977350D01*
X49899361Y-146977349D01*
X49838853Y-146831270D01*
X49742599Y-146705829D01*
X49617158Y-146609575D01*
X49583938Y-146595815D01*
X49471079Y-146549067D01*
X49471077Y-146549066D01*
X49314318Y-146528429D01*
X49314316Y-146528429D01*
X49157556Y-146549066D01*
X49157554Y-146549067D01*
X49011477Y-146609574D01*
X48886035Y-146705829D01*
X48789780Y-146831271D01*
X48729273Y-146977348D01*
X48729272Y-146977350D01*
X48708635Y-147134109D01*
X48708635Y-147134112D01*
X48729272Y-147290871D01*
X48729274Y-147290876D01*
X48770941Y-147391470D01*
X48778410Y-147460939D01*
X48747135Y-147523418D01*
X48687045Y-147559070D01*
X48617220Y-147556576D01*
X48568699Y-147526603D01*
X48247484Y-147205389D01*
X47852721Y-146810626D01*
X46775348Y-145733255D01*
X46741863Y-145671932D01*
X46739029Y-145645574D01*
X46739029Y-145026999D01*
X46739029Y-144724161D01*
X50444386Y-144724161D01*
X50465023Y-144880920D01*
X50465024Y-144880922D01*
X50525532Y-145027001D01*
X50621786Y-145152442D01*
X50747227Y-145248696D01*
X50893306Y-145309204D01*
X50971686Y-145319523D01*
X51050067Y-145329842D01*
X51050068Y-145329842D01*
X51050069Y-145329842D01*
X51102322Y-145322962D01*
X51206830Y-145309204D01*
X51352909Y-145248696D01*
X51478350Y-145152442D01*
X51574604Y-145027001D01*
X51635112Y-144880922D01*
X51655750Y-144724160D01*
X51635112Y-144567398D01*
X51574604Y-144421319D01*
X51478350Y-144295878D01*
X51352909Y-144199624D01*
X51206830Y-144139116D01*
X51206828Y-144139115D01*
X51050069Y-144118478D01*
X51050067Y-144118478D01*
X50893307Y-144139115D01*
X50893305Y-144139116D01*
X50747228Y-144199623D01*
X50621786Y-144295878D01*
X50525531Y-144421320D01*
X50465024Y-144567397D01*
X50465023Y-144567399D01*
X50444386Y-144724158D01*
X50444386Y-144724161D01*
X46739029Y-144724161D01*
X46739029Y-144341545D01*
X46758714Y-144274510D01*
X46775341Y-144253874D01*
X47631763Y-143397463D01*
X47693087Y-143363980D01*
X47762778Y-143368965D01*
X47786478Y-143380827D01*
X47881772Y-143442069D01*
X47881773Y-143442069D01*
X47881776Y-143442071D01*
X48006066Y-143478564D01*
X48006068Y-143478565D01*
X48006069Y-143478565D01*
X48135614Y-143478565D01*
X48135614Y-143478564D01*
X48259910Y-143442069D01*
X48368890Y-143372032D01*
X48453723Y-143274128D01*
X48507538Y-143156291D01*
X48525974Y-143028065D01*
X48508330Y-142905346D01*
X49445970Y-142905346D01*
X49464405Y-143033572D01*
X49518220Y-143151408D01*
X49518221Y-143151410D01*
X49603054Y-143249314D01*
X49712034Y-143319351D01*
X49828566Y-143353567D01*
X49836328Y-143355846D01*
X49836330Y-143355847D01*
X49836331Y-143355847D01*
X49965876Y-143355847D01*
X49965876Y-143355846D01*
X50090172Y-143319351D01*
X50199152Y-143249314D01*
X50283985Y-143151410D01*
X50337800Y-143033573D01*
X50356236Y-142905347D01*
X50337800Y-142777121D01*
X50283985Y-142659284D01*
X50199152Y-142561380D01*
X50090172Y-142491343D01*
X50090168Y-142491341D01*
X50090167Y-142491341D01*
X49965877Y-142454847D01*
X49965875Y-142454847D01*
X49836331Y-142454847D01*
X49836329Y-142454847D01*
X49712038Y-142491341D01*
X49712035Y-142491342D01*
X49712034Y-142491343D01*
X49660780Y-142524281D01*
X49603053Y-142561380D01*
X49518221Y-142659284D01*
X49518220Y-142659285D01*
X49464405Y-142777121D01*
X49445970Y-142905346D01*
X48508330Y-142905346D01*
X48507538Y-142899839D01*
X48453723Y-142782002D01*
X48368890Y-142684098D01*
X48259910Y-142614061D01*
X48259906Y-142614059D01*
X48259905Y-142614059D01*
X48135617Y-142577565D01*
X48134757Y-142577442D01*
X48133966Y-142577080D01*
X48127104Y-142575066D01*
X48127393Y-142574079D01*
X48071202Y-142548416D01*
X48033428Y-142489637D01*
X48033429Y-142419768D01*
X48036998Y-142409651D01*
X48037266Y-142408649D01*
X48037268Y-142408646D01*
X48057906Y-142251884D01*
X48037268Y-142095122D01*
X47976760Y-141949043D01*
X47880506Y-141823602D01*
X47755065Y-141727348D01*
X47608986Y-141666840D01*
X47608984Y-141666839D01*
X47452225Y-141646202D01*
X47452223Y-141646202D01*
X47295463Y-141666839D01*
X47295461Y-141666840D01*
X47149384Y-141727347D01*
X47023942Y-141823602D01*
X46927687Y-141949044D01*
X46867180Y-142095121D01*
X46867179Y-142095123D01*
X46846542Y-142251882D01*
X46846542Y-142251885D01*
X46867179Y-142408644D01*
X46867180Y-142408646D01*
X46927688Y-142554725D01*
X47023942Y-142680166D01*
X47140623Y-142769698D01*
X47181825Y-142826126D01*
X47185980Y-142895872D01*
X47152817Y-142955756D01*
X46195328Y-143913233D01*
X46191340Y-143916887D01*
X46160340Y-143942901D01*
X46160336Y-143942905D01*
X46140098Y-143977956D01*
X46137193Y-143982516D01*
X46113977Y-144015672D01*
X46111743Y-144020462D01*
X46104758Y-144037324D01*
X46102943Y-144042311D01*
X46095913Y-144082177D01*
X46094742Y-144087458D01*
X46084267Y-144126550D01*
X46087793Y-144166877D01*
X46088029Y-144172280D01*
X46088029Y-145814842D01*
X46087793Y-145820249D01*
X46084264Y-145860572D01*
X44093972Y-145860572D01*
X44100152Y-145817590D01*
X44081716Y-145689364D01*
X44027901Y-145571527D01*
X43943068Y-145473623D01*
X43834088Y-145403586D01*
X43834084Y-145403584D01*
X43834083Y-145403584D01*
X43709793Y-145367090D01*
X43709791Y-145367090D01*
X43643458Y-145367090D01*
X43576419Y-145347405D01*
X43530664Y-145294601D01*
X43520720Y-145225443D01*
X43530664Y-145191578D01*
X43549166Y-145151065D01*
X43581716Y-145079791D01*
X43600152Y-144951565D01*
X43581716Y-144823339D01*
X43527901Y-144705502D01*
X43443068Y-144607598D01*
X43334088Y-144537561D01*
X43334084Y-144537559D01*
X43334083Y-144537559D01*
X43209793Y-144501065D01*
X43209791Y-144501065D01*
X43080247Y-144501065D01*
X43080245Y-144501065D01*
X42955954Y-144537559D01*
X42955951Y-144537560D01*
X42955950Y-144537561D01*
X42909524Y-144567397D01*
X42846969Y-144607598D01*
X42762137Y-144705502D01*
X42762136Y-144705503D01*
X42708321Y-144823339D01*
X42689886Y-144951564D01*
X33993180Y-144951564D01*
X43293216Y-139582187D01*
X47586921Y-139582187D01*
X47606087Y-139813484D01*
X47606087Y-139813487D01*
X47606088Y-139813488D01*
X47663064Y-140038485D01*
X47756298Y-140251035D01*
X47883244Y-140445340D01*
X48040440Y-140616101D01*
X48223598Y-140758659D01*
X48427723Y-140869126D01*
X48647246Y-140944488D01*
X48876180Y-140982690D01*
X49108278Y-140982690D01*
X49337212Y-140944488D01*
X49556735Y-140869126D01*
X49760860Y-140758659D01*
X49944018Y-140616101D01*
X50101214Y-140445340D01*
X50228160Y-140251035D01*
X50321394Y-140038485D01*
X50378370Y-139813488D01*
X50397537Y-139582182D01*
X50378370Y-139350876D01*
X50321394Y-139125879D01*
X50228160Y-138913329D01*
X50101214Y-138719024D01*
X49944018Y-138548263D01*
X49944013Y-138548259D01*
X49944011Y-138548257D01*
X49860967Y-138483621D01*
X49760860Y-138405705D01*
X49760859Y-138405704D01*
X49556736Y-138295238D01*
X49556730Y-138295236D01*
X49337214Y-138219876D01*
X49108278Y-138181674D01*
X48876180Y-138181674D01*
X48647243Y-138219876D01*
X48427727Y-138295236D01*
X48427721Y-138295238D01*
X48223598Y-138405704D01*
X48223594Y-138405708D01*
X48040446Y-138548257D01*
X48040443Y-138548260D01*
X47883244Y-138719024D01*
X47756297Y-138913330D01*
X47663063Y-139125880D01*
X47606087Y-139350879D01*
X47586921Y-139582176D01*
X47586921Y-139582187D01*
X43293216Y-139582187D01*
X48993535Y-136291107D01*
X48993555Y-136291099D01*
X49007676Y-136282945D01*
X49007678Y-136282945D01*
X49035626Y-136266807D01*
X49039286Y-136264855D01*
X49258130Y-136157515D01*
X49265882Y-136154343D01*
X49495192Y-136078171D01*
X49503307Y-136076073D01*
X49542892Y-136068647D01*
X49740797Y-136031527D01*
X49749108Y-136030543D01*
X49990455Y-136018439D01*
X49998809Y-136018586D01*
G37*
%TD.AperFunction*%
%TD*%
%TA.AperFunction,Conductor*%
%TO.N,+12V*%
G36*
X22320810Y-159797787D02*
G01*
X23617992Y-161094967D01*
X23651476Y-161156288D01*
X23646492Y-161225979D01*
X23604621Y-161281913D01*
X23554504Y-161304263D01*
X23523006Y-161310528D01*
X23473425Y-161343658D01*
X23473421Y-161343661D01*
X22243422Y-162573660D01*
X22243419Y-162573664D01*
X22210289Y-162623245D01*
X22210289Y-162623246D01*
X22194729Y-162701474D01*
X22194729Y-162701479D01*
X22210289Y-162779707D01*
X22210289Y-162779708D01*
X22243419Y-162829289D01*
X22243422Y-162829293D01*
X23473421Y-164059292D01*
X23473425Y-164059295D01*
X23473427Y-164059297D01*
X23515383Y-164087331D01*
X23523007Y-164092425D01*
X23601236Y-164107986D01*
X23601238Y-164107986D01*
X23601240Y-164107986D01*
X23653391Y-164097611D01*
X23679469Y-164092425D01*
X23729049Y-164059297D01*
X24959058Y-162829288D01*
X24992186Y-162779708D01*
X24998451Y-162748210D01*
X25030835Y-162686302D01*
X25091550Y-162651727D01*
X25161320Y-162655466D01*
X25207749Y-162684722D01*
X28943080Y-166420051D01*
X28943081Y-166420050D01*
X28943082Y-166420051D01*
X32096872Y-163233069D01*
X32158018Y-163199264D01*
X32227735Y-163203884D01*
X32283887Y-163245462D01*
X32308646Y-163310798D01*
X32308538Y-163331097D01*
X32306203Y-163357784D01*
X32306203Y-163357785D01*
X32316680Y-163396886D01*
X32317851Y-163402166D01*
X32324879Y-163442020D01*
X32326703Y-163447032D01*
X32333665Y-163463838D01*
X32335913Y-163468658D01*
X32335914Y-163468661D01*
X32349252Y-163487710D01*
X32359123Y-163501808D01*
X32362029Y-163506369D01*
X32382274Y-163541432D01*
X32413283Y-163567452D01*
X32417273Y-163571108D01*
X35015564Y-166169400D01*
X35019219Y-166173389D01*
X35045242Y-166204401D01*
X35045245Y-166204404D01*
X35045246Y-166204405D01*
X35079401Y-166224124D01*
X35080300Y-166224643D01*
X35084866Y-166227552D01*
X35118017Y-166250766D01*
X35122871Y-166253029D01*
X35139631Y-166259971D01*
X35144653Y-166261799D01*
X35144654Y-166261799D01*
X35144656Y-166261800D01*
X35184525Y-166268829D01*
X35189781Y-166269994D01*
X35228895Y-166280476D01*
X35269223Y-166276947D01*
X35274624Y-166276712D01*
X35491927Y-166276712D01*
X35491931Y-166276713D01*
X35516594Y-166276713D01*
X35573543Y-166276713D01*
X36174724Y-166276713D01*
X36180127Y-166276948D01*
X36220453Y-166280477D01*
X36259586Y-166269990D01*
X36264808Y-166268832D01*
X36304691Y-166261801D01*
X36304696Y-166261797D01*
X36309745Y-166259960D01*
X36326470Y-166253032D01*
X36331327Y-166250767D01*
X36331330Y-166250767D01*
X36364487Y-166227548D01*
X36369036Y-166224651D01*
X36404101Y-166204407D01*
X36430127Y-166173389D01*
X36433768Y-166169415D01*
X37310528Y-165292657D01*
X37371845Y-165259176D01*
X37441537Y-165264160D01*
X37486265Y-165293043D01*
X37687405Y-165495947D01*
X38132065Y-165944507D01*
X38165282Y-166005976D01*
X38166941Y-166047989D01*
X38152736Y-166155894D01*
X38152736Y-166155898D01*
X38173373Y-166312657D01*
X38173374Y-166312659D01*
X38233882Y-166458738D01*
X38330136Y-166584179D01*
X38455577Y-166680433D01*
X38601656Y-166740941D01*
X38656961Y-166748222D01*
X38758417Y-166761579D01*
X38758418Y-166761579D01*
X38758419Y-166761579D01*
X38859875Y-166748222D01*
X38928910Y-166758988D01*
X38964123Y-166783863D01*
X39524345Y-167348997D01*
X39557562Y-167410466D01*
X39560282Y-167436295D01*
X39560282Y-167514920D01*
X39540597Y-167581959D01*
X39523963Y-167602601D01*
X37577430Y-169549144D01*
X37516107Y-169582629D01*
X37489749Y-169585463D01*
X35864053Y-169585463D01*
X35858649Y-169585227D01*
X35853238Y-169584753D01*
X35818323Y-169581698D01*
X35818322Y-169581698D01*
X35779222Y-169592175D01*
X35773942Y-169593346D01*
X35734090Y-169600373D01*
X35729092Y-169602192D01*
X35712248Y-169609169D01*
X35707444Y-169611409D01*
X35674297Y-169634619D01*
X35669737Y-169637525D01*
X35634679Y-169657767D01*
X35634671Y-169657773D01*
X35608654Y-169688778D01*
X35605000Y-169692767D01*
X34409732Y-170888034D01*
X34405743Y-170891689D01*
X34374735Y-170917708D01*
X34374734Y-170917709D01*
X34354495Y-170952764D01*
X34351588Y-170957326D01*
X34328375Y-170990478D01*
X34326147Y-170995256D01*
X34319155Y-171012135D01*
X34317342Y-171017117D01*
X34310315Y-171056967D01*
X34309144Y-171062248D01*
X34298665Y-171101355D01*
X34299260Y-171108148D01*
X34301419Y-171132828D01*
X34302194Y-171141677D01*
X34302430Y-171147084D01*
X34302433Y-172264775D01*
X34282749Y-172331814D01*
X34266114Y-172352456D01*
X33818223Y-172800347D01*
X33756900Y-172833832D01*
X33730542Y-172836666D01*
X32003234Y-172836665D01*
X31997832Y-172836429D01*
X31990983Y-172835830D01*
X31957514Y-172832901D01*
X31918422Y-172843375D01*
X31913142Y-172844546D01*
X31873279Y-172851575D01*
X31868282Y-172853394D01*
X31851438Y-172860371D01*
X31846634Y-172862611D01*
X31813484Y-172885823D01*
X31808923Y-172888729D01*
X31773869Y-172908969D01*
X31773866Y-172908971D01*
X31773864Y-172908972D01*
X31773863Y-172908974D01*
X31747844Y-172939980D01*
X31744190Y-172943968D01*
X29601817Y-175086343D01*
X29540494Y-175119828D01*
X29514135Y-175122662D01*
X29301528Y-175122661D01*
X29234490Y-175102977D01*
X29195526Y-175077937D01*
X29127400Y-175034155D01*
X29127396Y-175034153D01*
X29127395Y-175034153D01*
X29003105Y-174997659D01*
X29003103Y-174997659D01*
X28873559Y-174997659D01*
X28873557Y-174997659D01*
X28749266Y-175034153D01*
X28749263Y-175034154D01*
X28749262Y-175034155D01*
X28698008Y-175067093D01*
X28640281Y-175104192D01*
X28555449Y-175202096D01*
X28555448Y-175202097D01*
X28501633Y-175319933D01*
X28483198Y-175448159D01*
X28501633Y-175576384D01*
X28544548Y-175670353D01*
X28555449Y-175694222D01*
X28640282Y-175792126D01*
X28749262Y-175862163D01*
X28873556Y-175898658D01*
X28873558Y-175898659D01*
X28873559Y-175898659D01*
X29003104Y-175898659D01*
X29003104Y-175898658D01*
X29127400Y-175862163D01*
X29234483Y-175793345D01*
X29301518Y-175773661D01*
X29683418Y-175773663D01*
X29688778Y-175773897D01*
X29729131Y-175777429D01*
X29768239Y-175766949D01*
X29773504Y-175765781D01*
X29813367Y-175758754D01*
X29813368Y-175758753D01*
X29818407Y-175756919D01*
X29835150Y-175749984D01*
X29840005Y-175747719D01*
X29840008Y-175747719D01*
X29873169Y-175724499D01*
X29877702Y-175721610D01*
X29912777Y-175701361D01*
X29938801Y-175670345D01*
X29942429Y-175666385D01*
X30186910Y-175421904D01*
X30825478Y-175421904D01*
X30843913Y-175550129D01*
X30896100Y-175664400D01*
X30897729Y-175667967D01*
X30982562Y-175765871D01*
X31091542Y-175835908D01*
X31180961Y-175862163D01*
X31215836Y-175872403D01*
X31215838Y-175872404D01*
X31281443Y-175872404D01*
X31348482Y-175892089D01*
X31394237Y-175944893D01*
X31404181Y-176014051D01*
X31375156Y-176077607D01*
X31328895Y-176110965D01*
X31241971Y-176146969D01*
X31116528Y-176243225D01*
X31020273Y-176368667D01*
X30959766Y-176514744D01*
X30959765Y-176514746D01*
X30939128Y-176671505D01*
X30939128Y-176671508D01*
X30959765Y-176828267D01*
X30959766Y-176828269D01*
X31018209Y-176969364D01*
X31020274Y-176974348D01*
X31116528Y-177099789D01*
X31241969Y-177196043D01*
X31388048Y-177256551D01*
X31450539Y-177264778D01*
X31544809Y-177277189D01*
X31544810Y-177277189D01*
X31544811Y-177277189D01*
X31639081Y-177264778D01*
X31701572Y-177256551D01*
X31847651Y-177196043D01*
X31973092Y-177099789D01*
X32069346Y-176974348D01*
X32102174Y-176895094D01*
X34025875Y-176895094D01*
X34028415Y-176912760D01*
X34044310Y-177023319D01*
X34098125Y-177141155D01*
X34098126Y-177141157D01*
X34152312Y-177203692D01*
X34177419Y-177232668D01*
X34182959Y-177239061D01*
X34291939Y-177309098D01*
X34416233Y-177345593D01*
X34416235Y-177345594D01*
X34416236Y-177345594D01*
X34545781Y-177345594D01*
X34545781Y-177345593D01*
X34670077Y-177309098D01*
X34779057Y-177239061D01*
X34793682Y-177222182D01*
X34852457Y-177184406D01*
X34922327Y-177184403D01*
X34981107Y-177222176D01*
X34981111Y-177222180D01*
X34988844Y-177231105D01*
X34995747Y-177239071D01*
X35104727Y-177309108D01*
X35228987Y-177345593D01*
X35229021Y-177345603D01*
X35229023Y-177345604D01*
X35229024Y-177345604D01*
X35358569Y-177345604D01*
X35358569Y-177345603D01*
X35482865Y-177309108D01*
X35591845Y-177239071D01*
X35676678Y-177141167D01*
X35730493Y-177023330D01*
X35748929Y-176895104D01*
X35730493Y-176766878D01*
X35676678Y-176649041D01*
X35591845Y-176551137D01*
X35482865Y-176481100D01*
X35482861Y-176481098D01*
X35482860Y-176481098D01*
X35358570Y-176444604D01*
X35358568Y-176444604D01*
X35229024Y-176444604D01*
X35229022Y-176444604D01*
X35104731Y-176481098D01*
X35104728Y-176481099D01*
X35104727Y-176481100D01*
X35071221Y-176502632D01*
X34995745Y-176551137D01*
X34981119Y-176568018D01*
X34922340Y-176605792D01*
X34852471Y-176605792D01*
X34793693Y-176568017D01*
X34793692Y-176568017D01*
X34779057Y-176551127D01*
X34761338Y-176539740D01*
X34670077Y-176481090D01*
X34670073Y-176481088D01*
X34670072Y-176481088D01*
X34545782Y-176444594D01*
X34545780Y-176444594D01*
X34416236Y-176444594D01*
X34416234Y-176444594D01*
X34291943Y-176481088D01*
X34291940Y-176481089D01*
X34291939Y-176481090D01*
X34263025Y-176499672D01*
X34182958Y-176551127D01*
X34098126Y-176649031D01*
X34098125Y-176649032D01*
X34044310Y-176766868D01*
X34028837Y-176874490D01*
X34025875Y-176895094D01*
X32102174Y-176895094D01*
X32129854Y-176828269D01*
X32150492Y-176671507D01*
X32149472Y-176663763D01*
X32135902Y-176560686D01*
X32129854Y-176514745D01*
X32069346Y-176368666D01*
X31973092Y-176243225D01*
X31847651Y-176146971D01*
X31847646Y-176146969D01*
X31701572Y-176086463D01*
X31701570Y-176086462D01*
X31544811Y-176065825D01*
X31536683Y-176065825D01*
X31536683Y-176063133D01*
X31480714Y-176054391D01*
X31428470Y-176007997D01*
X31409602Y-175940724D01*
X31430100Y-175873928D01*
X31466555Y-175837915D01*
X31469676Y-175835909D01*
X31469680Y-175835908D01*
X31578660Y-175765871D01*
X31663493Y-175667967D01*
X31717308Y-175550130D01*
X31735744Y-175421904D01*
X31717308Y-175293678D01*
X31663493Y-175175841D01*
X31578660Y-175077937D01*
X31469680Y-175007900D01*
X31469676Y-175007898D01*
X31469675Y-175007898D01*
X31345385Y-174971404D01*
X31345383Y-174971404D01*
X31215839Y-174971404D01*
X31215837Y-174971404D01*
X31091546Y-175007898D01*
X31091543Y-175007899D01*
X31091542Y-175007900D01*
X31050688Y-175034155D01*
X30982561Y-175077937D01*
X30897729Y-175175841D01*
X30897728Y-175175842D01*
X30843913Y-175293678D01*
X30825478Y-175421904D01*
X30186910Y-175421904D01*
X30745708Y-174863105D01*
X33365477Y-174863105D01*
X33383912Y-174991331D01*
X33428560Y-175089095D01*
X33437728Y-175109169D01*
X33522561Y-175207073D01*
X33631541Y-175277110D01*
X33755835Y-175313605D01*
X33755837Y-175313606D01*
X33755838Y-175313606D01*
X33885383Y-175313606D01*
X33885383Y-175313605D01*
X34009679Y-175277110D01*
X34100564Y-175218702D01*
X37023081Y-175218702D01*
X37041516Y-175346927D01*
X37093139Y-175459963D01*
X37095332Y-175464765D01*
X37180165Y-175562669D01*
X37289145Y-175632706D01*
X37409236Y-175667967D01*
X37413439Y-175669201D01*
X37413441Y-175669202D01*
X37413442Y-175669202D01*
X37542987Y-175669202D01*
X37542987Y-175669201D01*
X37667283Y-175632706D01*
X37776263Y-175562669D01*
X37861096Y-175464765D01*
X37914911Y-175346928D01*
X37933347Y-175218702D01*
X37914911Y-175090476D01*
X37861096Y-174972639D01*
X37776263Y-174874735D01*
X37667283Y-174804698D01*
X37667279Y-174804696D01*
X37667278Y-174804696D01*
X37542988Y-174768202D01*
X37542986Y-174768202D01*
X37413442Y-174768202D01*
X37413440Y-174768202D01*
X37289149Y-174804696D01*
X37289146Y-174804697D01*
X37289145Y-174804698D01*
X37237891Y-174837636D01*
X37180164Y-174874735D01*
X37095332Y-174972639D01*
X37095331Y-174972640D01*
X37041516Y-175090476D01*
X37023081Y-175218702D01*
X34100564Y-175218702D01*
X34118659Y-175207073D01*
X34203492Y-175109169D01*
X34257307Y-174991332D01*
X34275743Y-174863106D01*
X34257307Y-174734880D01*
X34203492Y-174617043D01*
X34152598Y-174558307D01*
X40528270Y-174558307D01*
X40546705Y-174686532D01*
X40581810Y-174763400D01*
X40600521Y-174804370D01*
X40685354Y-174902274D01*
X40794334Y-174972311D01*
X40915542Y-175007900D01*
X40918628Y-175008806D01*
X40918630Y-175008807D01*
X40918631Y-175008807D01*
X41048176Y-175008807D01*
X41048176Y-175008806D01*
X41172472Y-174972311D01*
X41265010Y-174912840D01*
X41318023Y-174897273D01*
X41327574Y-174853371D01*
X41342688Y-174831601D01*
X41366285Y-174804370D01*
X41420100Y-174686533D01*
X41438536Y-174558307D01*
X41420100Y-174430081D01*
X41366285Y-174312244D01*
X41281452Y-174214340D01*
X41172472Y-174144303D01*
X41172468Y-174144301D01*
X41172467Y-174144301D01*
X41048177Y-174107807D01*
X41048175Y-174107807D01*
X40918631Y-174107807D01*
X40918629Y-174107807D01*
X40794338Y-174144301D01*
X40794335Y-174144302D01*
X40794334Y-174144303D01*
X40743080Y-174177241D01*
X40685353Y-174214340D01*
X40600521Y-174312244D01*
X40600520Y-174312245D01*
X40546705Y-174430081D01*
X40528270Y-174558307D01*
X34152598Y-174558307D01*
X34118659Y-174519139D01*
X34009679Y-174449102D01*
X34009675Y-174449100D01*
X34009674Y-174449100D01*
X33885384Y-174412606D01*
X33885382Y-174412606D01*
X33755838Y-174412606D01*
X33755836Y-174412606D01*
X33631545Y-174449100D01*
X33631542Y-174449101D01*
X33631541Y-174449102D01*
X33580287Y-174482040D01*
X33522560Y-174519139D01*
X33437728Y-174617043D01*
X33437727Y-174617044D01*
X33383912Y-174734880D01*
X33365477Y-174863105D01*
X30745708Y-174863105D01*
X31660121Y-173948690D01*
X37042983Y-173948690D01*
X37061418Y-174076915D01*
X37086344Y-174131494D01*
X37115234Y-174194753D01*
X37200067Y-174292657D01*
X37309047Y-174362694D01*
X37433341Y-174399189D01*
X37433343Y-174399190D01*
X37433344Y-174399190D01*
X37562889Y-174399190D01*
X37562889Y-174399189D01*
X37687185Y-174362694D01*
X37796165Y-174292657D01*
X37880998Y-174194753D01*
X37934813Y-174076916D01*
X37953249Y-173948690D01*
X37934813Y-173820464D01*
X37880998Y-173702627D01*
X37796165Y-173604723D01*
X37687185Y-173534686D01*
X37687181Y-173534684D01*
X37687180Y-173534684D01*
X37562890Y-173498190D01*
X37562888Y-173498190D01*
X37433344Y-173498190D01*
X37433342Y-173498190D01*
X37309051Y-173534684D01*
X37309048Y-173534685D01*
X37309047Y-173534686D01*
X37257793Y-173567624D01*
X37200066Y-173604723D01*
X37115234Y-173702627D01*
X37115233Y-173702628D01*
X37061418Y-173820464D01*
X37042983Y-173948690D01*
X31660121Y-173948690D01*
X32084827Y-173523983D01*
X32146150Y-173490499D01*
X32172507Y-173487665D01*
X33899828Y-173487666D01*
X33905187Y-173487900D01*
X33945538Y-173491432D01*
X33984654Y-173480950D01*
X33989923Y-173479783D01*
X33996699Y-173478588D01*
X34029776Y-173472756D01*
X34029779Y-173472754D01*
X34034830Y-173470915D01*
X34051555Y-173463987D01*
X34056412Y-173461722D01*
X34056415Y-173461722D01*
X34089572Y-173438503D01*
X34094121Y-173435606D01*
X34129186Y-173415362D01*
X34155212Y-173384344D01*
X34158853Y-173380370D01*
X34846146Y-172693078D01*
X34850107Y-172689448D01*
X34881130Y-172663418D01*
X34881132Y-172663412D01*
X34881592Y-172662866D01*
X34882536Y-172662237D01*
X34889444Y-172656442D01*
X34890089Y-172657211D01*
X34939761Y-172624160D01*
X35009622Y-172623047D01*
X35068994Y-172659881D01*
X35099028Y-172722966D01*
X35099325Y-172724918D01*
X35111115Y-172806922D01*
X35133380Y-172855674D01*
X35164931Y-172924760D01*
X35249764Y-173022664D01*
X35358744Y-173092701D01*
X35483038Y-173129196D01*
X35483040Y-173129197D01*
X35483041Y-173129197D01*
X35612586Y-173129197D01*
X35612586Y-173129196D01*
X35736882Y-173092701D01*
X35845862Y-173022664D01*
X35930695Y-172924760D01*
X35984510Y-172806923D01*
X36002946Y-172678697D01*
X35984510Y-172550471D01*
X35930695Y-172432634D01*
X35845862Y-172334730D01*
X35736882Y-172264693D01*
X35736878Y-172264691D01*
X35736877Y-172264691D01*
X35612587Y-172228197D01*
X35612585Y-172228197D01*
X35483041Y-172228197D01*
X35483039Y-172228197D01*
X35358748Y-172264691D01*
X35358745Y-172264692D01*
X35358744Y-172264693D01*
X35307490Y-172297631D01*
X35249763Y-172334730D01*
X35171146Y-172425460D01*
X35112368Y-172463234D01*
X35042498Y-172463234D01*
X34983720Y-172425460D01*
X34954695Y-172361904D01*
X34953433Y-172344266D01*
X34953430Y-171316348D01*
X34971061Y-171256302D01*
X37988270Y-171256302D01*
X38006705Y-171384527D01*
X38035051Y-171446595D01*
X38060521Y-171502365D01*
X38145354Y-171600269D01*
X38254334Y-171670306D01*
X38378628Y-171706801D01*
X38378630Y-171706802D01*
X38378631Y-171706802D01*
X38508176Y-171706802D01*
X38508176Y-171706801D01*
X38632472Y-171670306D01*
X38741452Y-171600269D01*
X38826285Y-171502365D01*
X38880100Y-171384528D01*
X38898536Y-171256302D01*
X38880100Y-171128076D01*
X38826285Y-171010239D01*
X38741452Y-170912335D01*
X38632472Y-170842298D01*
X38632468Y-170842296D01*
X38632467Y-170842296D01*
X38508177Y-170805802D01*
X38508175Y-170805802D01*
X38378631Y-170805802D01*
X38378629Y-170805802D01*
X38254338Y-170842296D01*
X38254335Y-170842297D01*
X38254334Y-170842298D01*
X38203136Y-170875201D01*
X38145353Y-170912335D01*
X38060521Y-171010239D01*
X38060520Y-171010240D01*
X38006705Y-171128076D01*
X37988270Y-171256302D01*
X34971061Y-171256302D01*
X34973114Y-171249310D01*
X34989744Y-171228673D01*
X35945636Y-170272782D01*
X36006960Y-170239297D01*
X36033318Y-170236463D01*
X37659013Y-170236463D01*
X37664420Y-170236699D01*
X37704745Y-170240228D01*
X37743861Y-170229746D01*
X37749130Y-170228579D01*
X37753139Y-170227872D01*
X37788983Y-170221552D01*
X37788987Y-170221549D01*
X37794025Y-170219716D01*
X37810762Y-170212784D01*
X37815618Y-170210519D01*
X37815623Y-170210518D01*
X37848789Y-170187293D01*
X37853333Y-170184397D01*
X37888393Y-170164158D01*
X37914426Y-170133131D01*
X37918054Y-170129173D01*
X39348602Y-168698620D01*
X39409923Y-168665137D01*
X39479614Y-168670121D01*
X39535548Y-168711992D01*
X39559965Y-168777457D01*
X39560281Y-168786303D01*
X39560280Y-169844461D01*
X39540595Y-169911501D01*
X39487791Y-169957255D01*
X39436280Y-169968461D01*
X39389160Y-169968461D01*
X39264869Y-170004955D01*
X39264866Y-170004956D01*
X39264865Y-170004957D01*
X39231832Y-170026186D01*
X39155884Y-170074994D01*
X39071052Y-170172898D01*
X39071051Y-170172899D01*
X39017236Y-170290735D01*
X38998801Y-170418960D01*
X39017236Y-170547186D01*
X39053569Y-170626742D01*
X39071052Y-170665024D01*
X39116412Y-170717373D01*
X39154395Y-170761209D01*
X39155885Y-170762928D01*
X39264865Y-170832965D01*
X39386693Y-170868736D01*
X39389159Y-170869460D01*
X39389161Y-170869461D01*
X39389162Y-170869461D01*
X39518707Y-170869461D01*
X39518707Y-170869460D01*
X39643003Y-170832965D01*
X39751983Y-170762928D01*
X39751984Y-170762926D01*
X39759445Y-170758132D01*
X39761422Y-170761209D01*
X39809081Y-170739347D01*
X39826913Y-170738056D01*
X41111268Y-170738054D01*
X41178304Y-170757739D01*
X41178305Y-170757739D01*
X41186379Y-170762928D01*
X41219413Y-170784158D01*
X41343706Y-170820652D01*
X41343708Y-170820653D01*
X41343709Y-170820653D01*
X41473254Y-170820653D01*
X41473254Y-170820652D01*
X41597550Y-170784157D01*
X41638660Y-170757737D01*
X41705689Y-170738054D01*
X45383398Y-170738049D01*
X45450437Y-170757733D01*
X45489319Y-170797576D01*
X45740016Y-171209440D01*
X45758058Y-171276940D01*
X45736743Y-171343479D01*
X45721776Y-171361594D01*
X45146631Y-171936742D01*
X45085308Y-171970227D01*
X45058949Y-171973061D01*
X44703259Y-171973059D01*
X44697858Y-171972823D01*
X44687103Y-171971882D01*
X44657527Y-171969294D01*
X44618423Y-171979772D01*
X44613141Y-171980943D01*
X44573295Y-171987969D01*
X44568306Y-171989785D01*
X44551441Y-171996770D01*
X44546649Y-171999005D01*
X44513497Y-172022219D01*
X44508935Y-172025125D01*
X44473883Y-172045362D01*
X44473879Y-172045365D01*
X44447851Y-172076382D01*
X44444197Y-172080369D01*
X41524087Y-175000479D01*
X41462764Y-175033964D01*
X41454583Y-175033378D01*
X41454788Y-175034802D01*
X41425763Y-175098358D01*
X41419731Y-175104836D01*
X41207618Y-175316950D01*
X41146295Y-175350435D01*
X41119937Y-175353269D01*
X41116351Y-175353269D01*
X40992060Y-175389763D01*
X40992057Y-175389764D01*
X40992056Y-175389765D01*
X40942048Y-175421903D01*
X40883075Y-175459802D01*
X40843578Y-175505385D01*
X40784800Y-175543159D01*
X40714930Y-175543159D01*
X40656152Y-175505385D01*
X40627127Y-175441829D01*
X40627127Y-175441828D01*
X40624474Y-175423378D01*
X40617501Y-175374875D01*
X40563686Y-175257038D01*
X40478853Y-175159134D01*
X40369873Y-175089097D01*
X40369869Y-175089095D01*
X40369868Y-175089095D01*
X40245578Y-175052601D01*
X40245576Y-175052601D01*
X40116032Y-175052601D01*
X40116030Y-175052601D01*
X39991739Y-175089095D01*
X39991736Y-175089096D01*
X39991735Y-175089097D01*
X39940481Y-175122035D01*
X39882754Y-175159134D01*
X39797922Y-175257038D01*
X39797921Y-175257039D01*
X39744106Y-175374875D01*
X39725671Y-175503101D01*
X39744106Y-175631326D01*
X39786662Y-175724508D01*
X39797922Y-175749164D01*
X39882755Y-175847068D01*
X39991735Y-175917105D01*
X40116029Y-175953600D01*
X40116031Y-175953601D01*
X40116032Y-175953601D01*
X40245577Y-175953601D01*
X40245577Y-175953600D01*
X40369873Y-175917105D01*
X40478853Y-175847068D01*
X40518351Y-175801483D01*
X40577125Y-175763711D01*
X40646995Y-175763709D01*
X40705774Y-175801482D01*
X40734800Y-175865037D01*
X40734801Y-175865040D01*
X40744427Y-175931994D01*
X40779137Y-176007997D01*
X40798243Y-176049832D01*
X40883076Y-176147736D01*
X40992056Y-176217773D01*
X41116350Y-176254268D01*
X41116352Y-176254269D01*
X41158386Y-176254269D01*
X41225425Y-176273954D01*
X41271180Y-176326758D01*
X41281124Y-176395916D01*
X41252099Y-176459472D01*
X41246067Y-176465950D01*
X40408896Y-177303123D01*
X40404907Y-177306778D01*
X40373899Y-177332797D01*
X40353656Y-177367857D01*
X40350750Y-177372418D01*
X40327539Y-177405567D01*
X40325302Y-177410364D01*
X40318321Y-177427217D01*
X40316504Y-177432209D01*
X40309476Y-177472062D01*
X40308305Y-177477342D01*
X40297827Y-177516445D01*
X40297827Y-177516447D01*
X40301354Y-177556765D01*
X40301590Y-177562170D01*
X40301580Y-179949866D01*
X40281895Y-180016905D01*
X40265261Y-180037546D01*
X39764125Y-180538680D01*
X39744388Y-180554727D01*
X37725718Y-181877002D01*
X37658853Y-181897269D01*
X37657774Y-181897274D01*
X36752723Y-181897274D01*
X36685684Y-181877589D01*
X36639929Y-181824785D01*
X36629985Y-181755627D01*
X36659010Y-181692071D01*
X36717788Y-181654297D01*
X36736532Y-181650336D01*
X36771362Y-181645751D01*
X36917441Y-181585243D01*
X37042882Y-181488989D01*
X37139136Y-181363548D01*
X37199644Y-181217469D01*
X37220282Y-181060707D01*
X37218188Y-181044804D01*
X37199644Y-180903946D01*
X37199644Y-180903945D01*
X37171065Y-180834950D01*
X37549741Y-180834950D01*
X37568176Y-180963175D01*
X37612718Y-181060707D01*
X37621992Y-181081013D01*
X37706825Y-181178917D01*
X37815805Y-181248954D01*
X37917219Y-181278731D01*
X37940099Y-181285449D01*
X37940101Y-181285450D01*
X37940102Y-181285450D01*
X38069647Y-181285450D01*
X38069647Y-181285449D01*
X38193943Y-181248954D01*
X38302923Y-181178917D01*
X38387756Y-181081013D01*
X38441571Y-180963176D01*
X38460007Y-180834950D01*
X38441571Y-180706724D01*
X38387756Y-180588887D01*
X38302923Y-180490983D01*
X38193943Y-180420946D01*
X38193939Y-180420944D01*
X38193938Y-180420944D01*
X38069648Y-180384450D01*
X38069646Y-180384450D01*
X37940102Y-180384450D01*
X37940100Y-180384450D01*
X37815809Y-180420944D01*
X37815806Y-180420945D01*
X37815805Y-180420946D01*
X37767030Y-180452292D01*
X37706824Y-180490983D01*
X37621992Y-180588887D01*
X37621991Y-180588888D01*
X37568176Y-180706724D01*
X37549741Y-180834950D01*
X37171065Y-180834950D01*
X37139136Y-180757866D01*
X37042882Y-180632425D01*
X36917441Y-180536171D01*
X36917431Y-180536167D01*
X36771362Y-180475663D01*
X36771360Y-180475662D01*
X36614601Y-180455025D01*
X36614599Y-180455025D01*
X36457839Y-180475662D01*
X36457837Y-180475663D01*
X36311758Y-180536171D01*
X36258292Y-180577196D01*
X36193122Y-180602389D01*
X36124678Y-180588350D01*
X36107321Y-180577195D01*
X36053853Y-180536167D01*
X35907773Y-180475659D01*
X35907771Y-180475658D01*
X35751012Y-180455021D01*
X35751010Y-180455021D01*
X35594250Y-180475658D01*
X35594245Y-180475660D01*
X35527401Y-180503348D01*
X35457932Y-180510817D01*
X35395453Y-180479542D01*
X35381573Y-180464273D01*
X35348327Y-180420946D01*
X35315692Y-180378415D01*
X35190251Y-180282161D01*
X35190241Y-180282157D01*
X35044172Y-180221653D01*
X35044170Y-180221652D01*
X34887411Y-180201015D01*
X34887409Y-180201015D01*
X34730649Y-180221652D01*
X34730647Y-180221653D01*
X34584570Y-180282160D01*
X34459128Y-180378415D01*
X34362873Y-180503857D01*
X34302366Y-180649934D01*
X34302365Y-180649936D01*
X34281728Y-180806695D01*
X34281728Y-180806698D01*
X34302365Y-180963457D01*
X34302366Y-180963459D01*
X34355012Y-181090559D01*
X34362874Y-181109538D01*
X34459128Y-181234979D01*
X34584569Y-181331233D01*
X34730648Y-181391741D01*
X34809029Y-181402059D01*
X34887409Y-181412379D01*
X34887410Y-181412379D01*
X34887411Y-181412379D01*
X34957701Y-181403125D01*
X35044172Y-181391741D01*
X35111019Y-181364051D01*
X35180486Y-181356582D01*
X35242966Y-181387856D01*
X35256843Y-181403121D01*
X35322729Y-181488985D01*
X35448170Y-181585239D01*
X35594249Y-181645747D01*
X35629098Y-181650334D01*
X35692993Y-181678599D01*
X35731465Y-181736923D01*
X35732298Y-181806787D01*
X35695227Y-181866011D01*
X35632022Y-181895792D01*
X35612913Y-181897273D01*
X28459213Y-181897270D01*
X28392176Y-181877586D01*
X28285089Y-181808766D01*
X28285088Y-181808765D01*
X28285084Y-181808763D01*
X28160794Y-181772270D01*
X28160792Y-181772270D01*
X28031248Y-181772270D01*
X28031246Y-181772270D01*
X27906955Y-181808764D01*
X27906952Y-181808765D01*
X27906951Y-181808766D01*
X27882025Y-181824785D01*
X27797970Y-181878803D01*
X27713138Y-181976707D01*
X27713137Y-181976708D01*
X27659322Y-182094544D01*
X27640887Y-182222770D01*
X27659322Y-182350995D01*
X27696038Y-182431390D01*
X27713138Y-182468833D01*
X27797971Y-182566737D01*
X27906951Y-182636774D01*
X27996094Y-182662948D01*
X28031245Y-182673269D01*
X28031247Y-182673270D01*
X28031248Y-182673270D01*
X28160792Y-182673270D01*
X28244482Y-182648697D01*
X28314350Y-182648697D01*
X28373128Y-182686471D01*
X28402153Y-182750027D01*
X28402153Y-182785320D01*
X28395236Y-182833432D01*
X28395236Y-182833433D01*
X28413671Y-182961659D01*
X28437528Y-183013897D01*
X28467487Y-183079497D01*
X28552320Y-183177401D01*
X28661300Y-183247438D01*
X28785594Y-183283933D01*
X28785596Y-183283934D01*
X28785597Y-183283934D01*
X28915142Y-183283934D01*
X28915142Y-183283933D01*
X29039438Y-183247438D01*
X29148418Y-183177401D01*
X29148418Y-183177400D01*
X29154281Y-183173633D01*
X29221319Y-183153948D01*
X29566219Y-183153948D01*
X29633257Y-183173633D01*
X29679012Y-183226437D01*
X29688956Y-183295595D01*
X29659931Y-183359151D01*
X29653899Y-183365629D01*
X29128307Y-183891224D01*
X29066984Y-183924709D01*
X29040626Y-183927543D01*
X29037040Y-183927543D01*
X28912749Y-183964037D01*
X28912746Y-183964038D01*
X28912745Y-183964039D01*
X28874431Y-183988662D01*
X28803764Y-184034076D01*
X28718932Y-184131980D01*
X28718931Y-184131981D01*
X28665116Y-184249817D01*
X28646681Y-184378043D01*
X28665116Y-184506268D01*
X28702074Y-184587192D01*
X28718932Y-184624106D01*
X28803765Y-184722010D01*
X28912745Y-184792047D01*
X29037039Y-184828542D01*
X29037041Y-184828543D01*
X29037042Y-184828543D01*
X29166587Y-184828543D01*
X29166587Y-184828542D01*
X29290883Y-184792047D01*
X29399863Y-184722010D01*
X29484696Y-184624106D01*
X29538511Y-184506269D01*
X29550201Y-184424957D01*
X29579223Y-184361404D01*
X29585244Y-184354937D01*
X30241908Y-183698272D01*
X30303229Y-183664789D01*
X30329577Y-183661955D01*
X34585090Y-183661955D01*
X34652128Y-183681640D01*
X34697883Y-183734444D01*
X34707827Y-183803602D01*
X34678802Y-183867158D01*
X34653033Y-183889683D01*
X29619558Y-187186727D01*
X29584983Y-187202425D01*
X22711047Y-189123077D01*
X22677678Y-189127651D01*
X16373314Y-189127651D01*
X16306275Y-189107966D01*
X16260520Y-189055162D01*
X16249314Y-189003651D01*
X16249314Y-188141355D01*
X16768097Y-188141355D01*
X16770951Y-188171795D01*
X16770951Y-188171796D01*
X16815803Y-188299978D01*
X16815804Y-188299979D01*
X16896447Y-188409247D01*
X17005715Y-188489890D01*
X17133899Y-188534743D01*
X17133898Y-188534743D01*
X17137868Y-188535115D01*
X17164332Y-188537597D01*
X19072861Y-188537596D01*
X19103295Y-188534743D01*
X19231479Y-188489890D01*
X19340747Y-188409247D01*
X19421390Y-188299979D01*
X19466243Y-188171795D01*
X19469097Y-188141362D01*
X19469097Y-188050688D01*
X23399566Y-188050688D01*
X23418001Y-188178913D01*
X23462814Y-188277038D01*
X23471817Y-188296751D01*
X23556650Y-188394655D01*
X23665630Y-188464692D01*
X23687703Y-188471173D01*
X23789924Y-188501187D01*
X23789926Y-188501188D01*
X23789927Y-188501188D01*
X23919472Y-188501188D01*
X23919472Y-188501187D01*
X24043768Y-188464692D01*
X24152748Y-188394655D01*
X24237581Y-188296751D01*
X24291396Y-188178914D01*
X24309832Y-188050688D01*
X24291396Y-187922462D01*
X24237581Y-187804625D01*
X24152748Y-187706721D01*
X24043768Y-187636684D01*
X24043764Y-187636682D01*
X24043763Y-187636682D01*
X23919473Y-187600188D01*
X23919471Y-187600188D01*
X23789927Y-187600188D01*
X23789925Y-187600188D01*
X23665634Y-187636682D01*
X23665631Y-187636683D01*
X23665630Y-187636684D01*
X23614376Y-187669622D01*
X23556649Y-187706721D01*
X23471817Y-187804625D01*
X23471816Y-187804626D01*
X23418001Y-187922462D01*
X23399566Y-188050688D01*
X19469097Y-188050688D01*
X19469096Y-187751854D01*
X19488780Y-187684816D01*
X19541584Y-187639061D01*
X19574613Y-187629241D01*
X19619683Y-187622448D01*
X19627839Y-187619932D01*
X19635864Y-187617123D01*
X19635869Y-187617123D01*
X19688468Y-187589323D01*
X19742038Y-187563526D01*
X19742038Y-187563525D01*
X19742040Y-187563525D01*
X19749086Y-187558720D01*
X19755935Y-187553666D01*
X19797995Y-187511605D01*
X19797994Y-187511605D01*
X19841590Y-187471156D01*
X19841592Y-187471151D01*
X19847383Y-187463891D01*
X19848039Y-187464414D01*
X19857428Y-187452171D01*
X20346545Y-186963053D01*
X20351717Y-186958433D01*
X20382306Y-186934040D01*
X20415816Y-186884890D01*
X20451128Y-186837044D01*
X20451131Y-186837033D01*
X20454061Y-186831489D01*
X24618784Y-186831489D01*
X24637219Y-186959714D01*
X24638752Y-186963070D01*
X24691035Y-187077552D01*
X24775868Y-187175456D01*
X24884848Y-187245493D01*
X25009142Y-187281988D01*
X25009144Y-187281989D01*
X25009145Y-187281989D01*
X25138690Y-187281989D01*
X25138690Y-187281988D01*
X25262986Y-187245493D01*
X25371966Y-187175456D01*
X25456799Y-187077552D01*
X25510614Y-186959715D01*
X25529050Y-186831489D01*
X25510614Y-186703263D01*
X25456799Y-186585426D01*
X25371966Y-186487522D01*
X25371965Y-186487521D01*
X25369368Y-186485852D01*
X25367344Y-186483517D01*
X25365265Y-186481715D01*
X25365524Y-186481415D01*
X25323613Y-186433048D01*
X25313670Y-186363889D01*
X25342696Y-186300334D01*
X25369362Y-186277227D01*
X25473563Y-186210262D01*
X25558396Y-186112358D01*
X25612211Y-185994521D01*
X25630647Y-185866295D01*
X25612211Y-185738069D01*
X25558396Y-185620232D01*
X25473563Y-185522328D01*
X25364583Y-185452291D01*
X25364579Y-185452289D01*
X25364578Y-185452289D01*
X25240288Y-185415795D01*
X25240286Y-185415795D01*
X25110742Y-185415795D01*
X25110740Y-185415795D01*
X24986449Y-185452289D01*
X24986446Y-185452290D01*
X24986445Y-185452291D01*
X24935191Y-185485229D01*
X24877464Y-185522328D01*
X24792632Y-185620232D01*
X24792631Y-185620233D01*
X24738816Y-185738069D01*
X24720381Y-185866295D01*
X24738816Y-185994520D01*
X24775212Y-186074215D01*
X24792632Y-186112358D01*
X24877465Y-186210262D01*
X24880061Y-186211930D01*
X24882084Y-186214265D01*
X24884166Y-186216069D01*
X24883906Y-186216368D01*
X24925815Y-186264733D01*
X24935760Y-186333891D01*
X24906736Y-186397447D01*
X24880063Y-186420559D01*
X24830172Y-186452622D01*
X24775867Y-186487522D01*
X24691035Y-186585426D01*
X24691034Y-186585427D01*
X24637219Y-186703263D01*
X24618784Y-186831489D01*
X20454061Y-186831489D01*
X20455127Y-186829473D01*
X20458808Y-186821832D01*
X20476342Y-186764986D01*
X20489479Y-186727442D01*
X20495981Y-186708861D01*
X20495981Y-186708858D01*
X20497562Y-186700500D01*
X20498832Y-186692071D01*
X20498835Y-186692062D01*
X20498834Y-186632609D01*
X20499390Y-186617744D01*
X20501060Y-186573155D01*
X20500019Y-186563919D01*
X20500852Y-186563825D01*
X20498833Y-186548526D01*
X20498832Y-186150921D01*
X20518516Y-186083883D01*
X20535146Y-186063247D01*
X21155680Y-185442715D01*
X21160870Y-185438079D01*
X21191422Y-185413725D01*
X21221467Y-185369677D01*
X21224966Y-185364548D01*
X21260303Y-185316668D01*
X21260302Y-185316668D01*
X21260306Y-185316664D01*
X21260307Y-185316659D01*
X21264295Y-185309113D01*
X21267943Y-185301540D01*
X21267947Y-185301535D01*
X21285505Y-185244649D01*
X21305160Y-185188481D01*
X21305160Y-185188475D01*
X21306729Y-185180184D01*
X21307996Y-185171782D01*
X21308000Y-185171772D01*
X21308012Y-185112257D01*
X21309227Y-185079764D01*
X21309815Y-185073257D01*
X21312657Y-185053494D01*
X21308564Y-185025030D01*
X21308104Y-185020809D01*
X21308030Y-185019842D01*
X21308031Y-185019822D01*
X21303228Y-184987919D01*
X21294221Y-184925268D01*
X21294220Y-184925267D01*
X21294071Y-184924225D01*
X21293190Y-184920243D01*
X21292900Y-184919303D01*
X21292899Y-184919294D01*
X21265428Y-184862222D01*
X21240406Y-184807431D01*
X21240404Y-184807429D01*
X21237089Y-184802270D01*
X21234564Y-184797755D01*
X21234002Y-184796930D01*
X21234000Y-184796928D01*
X21234000Y-184796927D01*
X21193005Y-184752727D01*
X21170805Y-184727106D01*
X21155570Y-184709523D01*
X21148872Y-184703720D01*
X21149426Y-184703080D01*
X21149149Y-184702848D01*
X21148910Y-184703149D01*
X21134675Y-184691791D01*
X21094550Y-184634593D01*
X21091718Y-184564780D01*
X21127079Y-184504519D01*
X21146046Y-184489867D01*
X21154670Y-184484450D01*
X21198537Y-184433480D01*
X21240393Y-184385175D01*
X21240394Y-184385171D01*
X21242154Y-184383141D01*
X21242687Y-184382426D01*
X21243256Y-184381520D01*
X21243255Y-184381520D01*
X21243258Y-184381518D01*
X21268901Y-184322750D01*
X21294208Y-184267338D01*
X21294209Y-184267330D01*
X21295420Y-184263205D01*
X21297328Y-184257953D01*
X21297568Y-184257054D01*
X21297571Y-184257049D01*
X21304406Y-184196405D01*
X21312644Y-184139112D01*
X21312644Y-184139110D01*
X21312644Y-184126807D01*
X21312832Y-184123457D01*
X21312781Y-184122104D01*
X21312782Y-184122099D01*
X21302009Y-184065148D01*
X21294208Y-184010886D01*
X21294207Y-184010884D01*
X21291710Y-184002379D01*
X21292092Y-184002266D01*
X21290013Y-183995721D01*
X21287543Y-183988662D01*
X21262733Y-183941717D01*
X21261151Y-183938502D01*
X21253792Y-183922389D01*
X21240393Y-183893049D01*
X21240386Y-183893041D01*
X21238323Y-183889830D01*
X21225100Y-183870504D01*
X21224090Y-183868592D01*
X21189008Y-183833507D01*
X21186006Y-183830280D01*
X21155561Y-183795146D01*
X21155560Y-183795145D01*
X21153029Y-183793518D01*
X21132392Y-183776885D01*
X20942429Y-183586905D01*
X20937795Y-183581719D01*
X20913392Y-183551120D01*
X20901529Y-183543032D01*
X20864252Y-183517617D01*
X20816416Y-183482309D01*
X20816415Y-183482308D01*
X20816413Y-183482307D01*
X20808885Y-183478328D01*
X20801191Y-183474623D01*
X20801187Y-183474620D01*
X20744360Y-183457091D01*
X20688236Y-183437450D01*
X20688233Y-183437449D01*
X20679845Y-183435862D01*
X20671416Y-183434592D01*
X20611964Y-183434592D01*
X20552527Y-183432364D01*
X20543289Y-183433405D01*
X20543195Y-183432577D01*
X20527890Y-183434592D01*
X19623091Y-183434593D01*
X19600306Y-183427903D01*
X21382264Y-183427903D01*
X21400699Y-183556128D01*
X21445643Y-183654540D01*
X21454515Y-183673966D01*
X21539348Y-183771870D01*
X21648328Y-183841907D01*
X21739211Y-183868592D01*
X21772622Y-183878402D01*
X21772624Y-183878403D01*
X21772625Y-183878403D01*
X21902170Y-183878403D01*
X21902170Y-183878402D01*
X22026466Y-183841907D01*
X22134618Y-183772402D01*
X22201655Y-183752718D01*
X22268694Y-183772402D01*
X22314449Y-183825206D01*
X22324393Y-183894365D01*
X22314451Y-183928227D01*
X22302750Y-183953848D01*
X22282269Y-184096304D01*
X22302750Y-184238760D01*
X22355801Y-184354924D01*
X22362539Y-184369677D01*
X22456788Y-184478447D01*
X22463996Y-184483079D01*
X22477859Y-184491989D01*
X22523614Y-184544793D01*
X22533557Y-184613952D01*
X22504531Y-184677507D01*
X22477859Y-184700619D01*
X22456790Y-184714159D01*
X22362539Y-184822930D01*
X22362538Y-184822932D01*
X22302750Y-184953847D01*
X22282269Y-185096304D01*
X22302750Y-185238760D01*
X22338330Y-185316668D01*
X22362539Y-185369677D01*
X22456788Y-185478447D01*
X22577863Y-185556257D01*
X22577866Y-185556258D01*
X22577865Y-185556258D01*
X22715952Y-185596803D01*
X22715954Y-185596804D01*
X22715955Y-185596804D01*
X22859878Y-185596804D01*
X22859878Y-185596803D01*
X22997969Y-185556257D01*
X23119044Y-185478447D01*
X23213293Y-185369677D01*
X23273081Y-185238761D01*
X23293563Y-185096304D01*
X23273081Y-184953847D01*
X23213293Y-184822931D01*
X23119044Y-184714161D01*
X23119041Y-184714159D01*
X23119041Y-184714158D01*
X23097974Y-184700620D01*
X23052218Y-184647817D01*
X23042274Y-184578658D01*
X23071298Y-184515102D01*
X23097974Y-184491988D01*
X23119041Y-184478449D01*
X23119041Y-184478448D01*
X23119044Y-184478447D01*
X23213293Y-184369677D01*
X23273081Y-184238761D01*
X23293563Y-184096304D01*
X23273081Y-183953847D01*
X23213293Y-183822931D01*
X23119044Y-183714161D01*
X22997969Y-183636351D01*
X22997967Y-183636350D01*
X22997965Y-183636349D01*
X22997966Y-183636349D01*
X22859879Y-183595804D01*
X22859877Y-183595804D01*
X22715955Y-183595804D01*
X22715952Y-183595804D01*
X22577865Y-183636349D01*
X22451313Y-183717679D01*
X22384273Y-183737363D01*
X22317234Y-183717678D01*
X22271479Y-183664874D01*
X22261536Y-183595715D01*
X22271480Y-183561852D01*
X22274094Y-183556129D01*
X22292530Y-183427903D01*
X22274094Y-183299677D01*
X22220279Y-183181840D01*
X22135446Y-183083936D01*
X22026466Y-183013899D01*
X22026462Y-183013897D01*
X22026461Y-183013897D01*
X21902171Y-182977403D01*
X21902169Y-182977403D01*
X21772625Y-182977403D01*
X21772623Y-182977403D01*
X21648332Y-183013897D01*
X21648329Y-183013898D01*
X21648328Y-183013899D01*
X21597074Y-183046837D01*
X21539347Y-183083936D01*
X21454515Y-183181840D01*
X21454514Y-183181841D01*
X21400699Y-183299677D01*
X21382264Y-183427903D01*
X19600306Y-183427903D01*
X19556052Y-183414909D01*
X19510297Y-183362105D01*
X19499092Y-183310597D01*
X19499092Y-182930834D01*
X19496239Y-182900400D01*
X19451386Y-182772216D01*
X19370743Y-182662948D01*
X19261475Y-182582305D01*
X19261474Y-182582304D01*
X19133288Y-182537451D01*
X19133291Y-182537451D01*
X19102861Y-182534598D01*
X17194334Y-182534598D01*
X17163894Y-182537452D01*
X17163893Y-182537452D01*
X17035711Y-182582304D01*
X16926443Y-182662948D01*
X16845799Y-182772216D01*
X16800946Y-182900400D01*
X16798093Y-182930829D01*
X16798093Y-184839356D01*
X16800947Y-184869796D01*
X16800947Y-184869797D01*
X16845799Y-184997979D01*
X16845800Y-184997980D01*
X16926443Y-185107248D01*
X17035711Y-185187891D01*
X17163895Y-185232744D01*
X17163894Y-185232744D01*
X17167864Y-185233116D01*
X17194328Y-185235598D01*
X19102857Y-185235597D01*
X19133291Y-185232744D01*
X19261475Y-185187891D01*
X19370743Y-185107248D01*
X19451386Y-184997980D01*
X19496239Y-184869796D01*
X19499093Y-184839363D01*
X19499092Y-184459592D01*
X19518776Y-184392554D01*
X19571580Y-184346799D01*
X19623088Y-184335593D01*
X20365534Y-184335592D01*
X20432573Y-184355276D01*
X20453219Y-184371914D01*
X20526000Y-184444702D01*
X20529012Y-184447937D01*
X20559462Y-184483079D01*
X20559464Y-184483080D01*
X20559463Y-184483080D01*
X20573328Y-184491990D01*
X20619084Y-184544793D01*
X20629028Y-184613952D01*
X20600004Y-184677508D01*
X20573337Y-184700617D01*
X20559476Y-184709525D01*
X20559471Y-184709530D01*
X20551720Y-184718475D01*
X20535310Y-184734226D01*
X20523618Y-184743546D01*
X20523613Y-184743552D01*
X20502035Y-184775186D01*
X20497670Y-184780853D01*
X20474642Y-184807430D01*
X20468093Y-184821769D01*
X20457745Y-184840118D01*
X20447091Y-184855738D01*
X20447089Y-184855742D01*
X20446618Y-184857270D01*
X20445300Y-184859456D01*
X20443058Y-184864110D01*
X20442621Y-184863899D01*
X20415817Y-184908372D01*
X19750139Y-185574048D01*
X19744952Y-185578683D01*
X19714361Y-185603079D01*
X19680847Y-185652234D01*
X19645540Y-185700073D01*
X19641534Y-185707652D01*
X19637858Y-185715287D01*
X19620324Y-185772135D01*
X19600685Y-185828259D01*
X19599102Y-185836624D01*
X19597832Y-185845056D01*
X19597832Y-185904511D01*
X19596524Y-185939440D01*
X19574345Y-186005696D01*
X19519866Y-186049443D01*
X19450384Y-186056792D01*
X19387959Y-186025409D01*
X19372845Y-186008439D01*
X19340747Y-185964947D01*
X19279215Y-185919534D01*
X19231478Y-185884303D01*
X19103292Y-185839450D01*
X19103295Y-185839450D01*
X19072865Y-185836597D01*
X17164338Y-185836597D01*
X17133898Y-185839451D01*
X17133897Y-185839451D01*
X17005715Y-185884303D01*
X16896447Y-185964947D01*
X16815803Y-186074215D01*
X16770950Y-186202399D01*
X16768097Y-186232828D01*
X16768097Y-188141355D01*
X16249314Y-188141355D01*
X16249314Y-181537361D01*
X16798096Y-181537361D01*
X16800950Y-181567801D01*
X16800950Y-181567802D01*
X16845802Y-181695984D01*
X16845803Y-181695985D01*
X16926446Y-181805253D01*
X17035714Y-181885896D01*
X17163898Y-181930749D01*
X17163897Y-181930749D01*
X17167867Y-181931121D01*
X17194331Y-181933603D01*
X19102860Y-181933602D01*
X19133294Y-181930749D01*
X19261478Y-181885896D01*
X19370746Y-181805253D01*
X19451389Y-181695985D01*
X19496242Y-181567801D01*
X19499096Y-181537368D01*
X19499095Y-181157597D01*
X19518779Y-181090559D01*
X19571583Y-181044804D01*
X19623095Y-181033598D01*
X19659812Y-181033598D01*
X19666752Y-181033987D01*
X19697266Y-181037425D01*
X19705629Y-181038368D01*
X19705629Y-181038367D01*
X19705630Y-181038368D01*
X19764080Y-181027309D01*
X19815181Y-181019606D01*
X19822884Y-181018446D01*
X19831040Y-181015930D01*
X19839064Y-181013122D01*
X19839066Y-181013122D01*
X19840973Y-181012114D01*
X19891670Y-180985320D01*
X19917970Y-180972653D01*
X19945238Y-180959522D01*
X19945240Y-180959519D01*
X19952289Y-180954714D01*
X19959128Y-180949665D01*
X19959132Y-180949664D01*
X20001182Y-180907613D01*
X20044790Y-180867152D01*
X20044794Y-180867144D01*
X20050587Y-180859882D01*
X20051243Y-180860405D01*
X20060630Y-180848164D01*
X20102099Y-180806695D01*
X31995727Y-180806695D01*
X32016364Y-180963454D01*
X32016365Y-180963456D01*
X32076873Y-181109535D01*
X32173127Y-181234976D01*
X32298568Y-181331230D01*
X32444647Y-181391738D01*
X32523027Y-181402056D01*
X32601408Y-181412376D01*
X32601409Y-181412376D01*
X32601410Y-181412376D01*
X32653663Y-181405496D01*
X32758171Y-181391738D01*
X32904250Y-181331230D01*
X33029691Y-181234976D01*
X33125945Y-181109535D01*
X33186453Y-180963456D01*
X33206698Y-180809681D01*
X33207091Y-180806695D01*
X33207091Y-180806692D01*
X33193332Y-180702185D01*
X33186453Y-180649932D01*
X33125945Y-180503853D01*
X33029691Y-180378412D01*
X32904250Y-180282158D01*
X32888753Y-180275739D01*
X32758171Y-180221650D01*
X32758169Y-180221649D01*
X32601410Y-180201012D01*
X32601408Y-180201012D01*
X32444648Y-180221649D01*
X32444646Y-180221650D01*
X32298569Y-180282157D01*
X32173127Y-180378412D01*
X32076872Y-180503854D01*
X32016365Y-180649931D01*
X32016364Y-180649933D01*
X31995727Y-180806692D01*
X31995727Y-180806695D01*
X20102099Y-180806695D01*
X20956140Y-179952655D01*
X20961299Y-179948045D01*
X20991902Y-179923641D01*
X21025413Y-179874489D01*
X21060723Y-179826646D01*
X21060725Y-179826637D01*
X21064717Y-179819084D01*
X21068398Y-179811442D01*
X21068403Y-179811435D01*
X21085935Y-179754592D01*
X21105576Y-179698464D01*
X21105576Y-179698461D01*
X21107155Y-179690117D01*
X21108427Y-179681673D01*
X21108430Y-179681664D01*
X21108430Y-179668694D01*
X28231727Y-179668694D01*
X28252364Y-179825453D01*
X28252365Y-179825455D01*
X28304038Y-179950206D01*
X28312873Y-179971534D01*
X28409127Y-180096975D01*
X28534568Y-180193229D01*
X28680647Y-180253737D01*
X28759027Y-180264055D01*
X28837408Y-180274375D01*
X28837409Y-180274375D01*
X28837410Y-180274375D01*
X28911422Y-180264631D01*
X28994171Y-180253737D01*
X29140250Y-180193229D01*
X29265691Y-180096975D01*
X29361945Y-179971534D01*
X29422453Y-179825455D01*
X29439172Y-179698462D01*
X29443091Y-179668694D01*
X29443091Y-179668691D01*
X29439091Y-179638308D01*
X30674911Y-179638308D01*
X30695548Y-179795067D01*
X30695549Y-179795069D01*
X30748876Y-179923813D01*
X30756057Y-179941148D01*
X30852311Y-180066589D01*
X30977752Y-180162843D01*
X31123831Y-180223351D01*
X31202211Y-180233670D01*
X31280592Y-180243989D01*
X31280593Y-180243989D01*
X31280594Y-180243989D01*
X31332847Y-180237109D01*
X31437355Y-180223351D01*
X31583434Y-180162843D01*
X31708875Y-180066589D01*
X31805129Y-179941148D01*
X31865637Y-179795069D01*
X31880567Y-179681661D01*
X31886275Y-179638308D01*
X31886275Y-179638305D01*
X31872516Y-179533798D01*
X31865637Y-179481545D01*
X31805129Y-179335466D01*
X31708875Y-179210025D01*
X31583434Y-179113771D01*
X31557901Y-179103195D01*
X31437355Y-179053263D01*
X31437353Y-179053262D01*
X31280594Y-179032625D01*
X31280592Y-179032625D01*
X31123832Y-179053262D01*
X31123830Y-179053263D01*
X30977753Y-179113770D01*
X30852311Y-179210025D01*
X30756056Y-179335467D01*
X30695549Y-179481544D01*
X30695548Y-179481546D01*
X30674911Y-179638305D01*
X30674911Y-179638308D01*
X29439091Y-179638308D01*
X29422453Y-179511932D01*
X29422453Y-179511931D01*
X29361945Y-179365852D01*
X29361944Y-179365851D01*
X29361944Y-179365850D01*
X29301428Y-179286985D01*
X29276233Y-179221816D01*
X29290271Y-179153371D01*
X29301420Y-179136020D01*
X29361954Y-179057132D01*
X29422462Y-178911053D01*
X29443100Y-178754291D01*
X29440305Y-178733064D01*
X29437097Y-178708699D01*
X33283781Y-178708699D01*
X33302216Y-178836925D01*
X33336069Y-178911051D01*
X33356032Y-178954763D01*
X33440865Y-179052667D01*
X33549845Y-179122704D01*
X33654290Y-179153371D01*
X33674139Y-179159199D01*
X33674141Y-179159200D01*
X33674142Y-179159200D01*
X33803687Y-179159200D01*
X33803687Y-179159199D01*
X33927983Y-179122704D01*
X34036963Y-179052667D01*
X34121796Y-178954763D01*
X34175611Y-178836926D01*
X34194047Y-178708700D01*
X34175611Y-178580474D01*
X34121796Y-178462637D01*
X34036963Y-178364733D01*
X33927983Y-178294696D01*
X33927979Y-178294694D01*
X33927978Y-178294694D01*
X33803688Y-178258200D01*
X33803686Y-178258200D01*
X33674142Y-178258200D01*
X33674140Y-178258200D01*
X33549849Y-178294694D01*
X33549846Y-178294695D01*
X33549845Y-178294696D01*
X33501121Y-178326009D01*
X33440864Y-178364733D01*
X33356032Y-178462637D01*
X33356031Y-178462638D01*
X33302216Y-178580474D01*
X33283781Y-178708699D01*
X29437097Y-178708699D01*
X29422462Y-178597530D01*
X29422462Y-178597529D01*
X29361954Y-178451450D01*
X29265700Y-178326009D01*
X29140259Y-178229755D01*
X29107027Y-178215990D01*
X28994180Y-178169247D01*
X28994178Y-178169246D01*
X28837419Y-178148609D01*
X28837417Y-178148609D01*
X28680657Y-178169246D01*
X28680655Y-178169247D01*
X28534578Y-178229754D01*
X28409136Y-178326009D01*
X28312881Y-178451451D01*
X28252374Y-178597528D01*
X28252373Y-178597530D01*
X28231736Y-178754289D01*
X28231736Y-178754292D01*
X28252373Y-178911051D01*
X28252374Y-178911053D01*
X28311032Y-179052667D01*
X28312882Y-179057132D01*
X28373400Y-179136001D01*
X28398593Y-179201167D01*
X28384555Y-179269612D01*
X28373400Y-179286971D01*
X28312872Y-179365853D01*
X28252365Y-179511930D01*
X28252364Y-179511932D01*
X28231727Y-179668691D01*
X28231727Y-179668694D01*
X21108430Y-179668694D01*
X21108429Y-179622197D01*
X21110654Y-179562754D01*
X21110653Y-179562753D01*
X21110654Y-179562750D01*
X21109614Y-179553516D01*
X21110446Y-179553422D01*
X21108428Y-179538128D01*
X21108426Y-179038925D01*
X21128110Y-178971887D01*
X21144736Y-178951254D01*
X21285611Y-178810379D01*
X21346929Y-178776897D01*
X21416621Y-178781881D01*
X21472555Y-178823752D01*
X21486082Y-178846551D01*
X21509925Y-178898759D01*
X21594758Y-178996663D01*
X21703738Y-179066700D01*
X21828032Y-179103195D01*
X21828034Y-179103196D01*
X21828035Y-179103196D01*
X21957580Y-179103196D01*
X21957580Y-179103195D01*
X22081876Y-179066700D01*
X22190856Y-178996663D01*
X22275689Y-178898759D01*
X22329504Y-178780922D01*
X22347940Y-178652696D01*
X22329504Y-178524470D01*
X22275689Y-178406633D01*
X22190856Y-178308729D01*
X22081876Y-178238692D01*
X22081872Y-178238690D01*
X22081871Y-178238690D01*
X21957581Y-178202196D01*
X21957579Y-178202196D01*
X21895321Y-178202196D01*
X21828282Y-178182511D01*
X21782527Y-178129707D01*
X21772101Y-178092080D01*
X21770698Y-178079628D01*
X21771528Y-178079534D01*
X21769513Y-178064233D01*
X21769513Y-177931926D01*
X21769514Y-177423776D01*
X21770775Y-177406158D01*
X21774149Y-177382698D01*
X21770051Y-177354204D01*
X21769595Y-177350013D01*
X21769515Y-177348960D01*
X21769516Y-177348938D01*
X21764719Y-177317110D01*
X21755713Y-177254472D01*
X21755577Y-177253526D01*
X21754652Y-177249342D01*
X21754366Y-177248416D01*
X21749866Y-177239071D01*
X21726897Y-177191375D01*
X21701898Y-177136635D01*
X21701895Y-177136631D01*
X21698516Y-177131371D01*
X21696007Y-177126886D01*
X21695444Y-177126059D01*
X21694055Y-177124562D01*
X25130401Y-177124562D01*
X25148836Y-177252787D01*
X25202651Y-177370623D01*
X25202654Y-177370628D01*
X25274610Y-177453672D01*
X25303634Y-177517228D01*
X25293690Y-177586386D01*
X25274611Y-177616073D01*
X25253453Y-177640491D01*
X25253450Y-177640496D01*
X25199635Y-177758332D01*
X25181200Y-177886558D01*
X25199635Y-178014783D01*
X25234936Y-178092080D01*
X25253451Y-178132621D01*
X25338284Y-178230525D01*
X25447264Y-178300562D01*
X25571558Y-178337057D01*
X25571560Y-178337058D01*
X25571561Y-178337058D01*
X25701106Y-178337058D01*
X25701106Y-178337057D01*
X25825402Y-178300562D01*
X25934382Y-178230525D01*
X26019215Y-178132621D01*
X26073030Y-178014784D01*
X26091466Y-177886558D01*
X26073030Y-177758332D01*
X26019215Y-177640495D01*
X25991728Y-177608773D01*
X25947256Y-177557448D01*
X25918232Y-177493892D01*
X25928176Y-177424733D01*
X25947255Y-177395045D01*
X25968416Y-177370625D01*
X26022231Y-177252788D01*
X26040667Y-177124562D01*
X26022231Y-176996336D01*
X25968416Y-176878499D01*
X25883583Y-176780595D01*
X25774603Y-176710558D01*
X25774599Y-176710556D01*
X25774598Y-176710556D01*
X25650308Y-176674062D01*
X25650306Y-176674062D01*
X25520762Y-176674062D01*
X25520760Y-176674062D01*
X25396469Y-176710556D01*
X25396466Y-176710557D01*
X25396465Y-176710558D01*
X25353973Y-176737866D01*
X25287484Y-176780595D01*
X25202652Y-176878499D01*
X25202651Y-176878500D01*
X25148836Y-176996336D01*
X25130401Y-177124562D01*
X21694055Y-177124562D01*
X21654469Y-177081899D01*
X21617065Y-177038731D01*
X21610360Y-177032921D01*
X21610909Y-177032286D01*
X21610573Y-177032005D01*
X21610339Y-177032300D01*
X21603075Y-177026507D01*
X21597572Y-177023330D01*
X21554837Y-176998656D01*
X21552318Y-176997120D01*
X21508081Y-176968691D01*
X21500016Y-176965008D01*
X21500121Y-176964777D01*
X21488329Y-176959727D01*
X21485466Y-176958604D01*
X21485463Y-176958603D01*
X21434537Y-176946979D01*
X21430899Y-176946030D01*
X21383788Y-176932198D01*
X21383751Y-176932198D01*
X21356157Y-176929089D01*
X21353061Y-176928382D01*
X21322394Y-176930681D01*
X21304456Y-176932025D01*
X21299840Y-176932198D01*
X21254240Y-176932198D01*
X21250401Y-176933326D01*
X21224751Y-176937998D01*
X21217640Y-176938532D01*
X21217639Y-176938532D01*
X21175535Y-176955056D01*
X21170351Y-176956830D01*
X21129951Y-176968692D01*
X21129943Y-176968696D01*
X21123258Y-176972992D01*
X21101533Y-176984098D01*
X21091224Y-176988145D01*
X21091219Y-176988148D01*
X21058586Y-177014171D01*
X21053449Y-177017855D01*
X21020968Y-177038730D01*
X21020966Y-177038731D01*
X21013177Y-177047720D01*
X20996790Y-177063451D01*
X20985049Y-177072815D01*
X20985043Y-177072821D01*
X20977027Y-177084578D01*
X20922996Y-177128877D01*
X20853592Y-177136931D01*
X20790851Y-177106185D01*
X20754693Y-177046399D01*
X20750665Y-177010081D01*
X20751093Y-176998656D01*
X20752189Y-176969354D01*
X20752777Y-176962855D01*
X20753227Y-176959727D01*
X20758149Y-176925495D01*
X20756318Y-176912760D01*
X20755142Y-176890473D01*
X20755741Y-176874490D01*
X20749879Y-176852616D01*
X20746067Y-176838385D01*
X20744584Y-176831154D01*
X20744097Y-176827766D01*
X20739713Y-176797269D01*
X20732732Y-176781983D01*
X20725752Y-176762565D01*
X20720594Y-176743314D01*
X20720594Y-176743313D01*
X20702570Y-176714628D01*
X20698668Y-176707395D01*
X20685898Y-176679432D01*
X20679029Y-176671505D01*
X20672321Y-176663763D01*
X20661040Y-176648532D01*
X20648342Y-176628323D01*
X20628763Y-176611474D01*
X20615931Y-176598685D01*
X20601066Y-176581528D01*
X20576677Y-176565855D01*
X20569747Y-176560686D01*
X20558639Y-176551127D01*
X20545408Y-176539740D01*
X20525330Y-176530979D01*
X20507888Y-176521646D01*
X20492090Y-176511494D01*
X20492089Y-176511493D01*
X20492085Y-176511491D01*
X20460898Y-176502333D01*
X20453587Y-176499676D01*
X20420937Y-176485431D01*
X20403067Y-176483417D01*
X20382029Y-176479176D01*
X20367788Y-176474995D01*
X20359009Y-176473733D01*
X20359320Y-176471567D01*
X20303955Y-176455310D01*
X20258200Y-176402506D01*
X20256963Y-176393900D01*
X21761368Y-176393900D01*
X21779803Y-176522125D01*
X21833618Y-176639961D01*
X21833619Y-176639963D01*
X21918452Y-176737867D01*
X22027432Y-176807904D01*
X22151726Y-176844399D01*
X22151728Y-176844400D01*
X22151729Y-176844400D01*
X22281274Y-176844400D01*
X22281274Y-176844399D01*
X22405570Y-176807904D01*
X22514550Y-176737867D01*
X22599383Y-176639963D01*
X22653198Y-176522126D01*
X22671634Y-176393900D01*
X22941368Y-176393900D01*
X22959803Y-176522125D01*
X23013618Y-176639961D01*
X23013619Y-176639963D01*
X23098452Y-176737867D01*
X23207432Y-176807904D01*
X23331726Y-176844399D01*
X23331728Y-176844400D01*
X23331729Y-176844400D01*
X23461274Y-176844400D01*
X23461274Y-176844399D01*
X23585570Y-176807904D01*
X23694550Y-176737867D01*
X23779383Y-176639963D01*
X23833198Y-176522126D01*
X23851634Y-176393900D01*
X23833198Y-176265674D01*
X23779383Y-176147837D01*
X23694550Y-176049933D01*
X23585570Y-175979896D01*
X23585566Y-175979894D01*
X23585565Y-175979894D01*
X23461275Y-175943400D01*
X23461273Y-175943400D01*
X23331729Y-175943400D01*
X23331727Y-175943400D01*
X23207436Y-175979894D01*
X23207433Y-175979895D01*
X23207432Y-175979896D01*
X23163706Y-176007997D01*
X23098451Y-176049933D01*
X23013619Y-176147837D01*
X23013618Y-176147838D01*
X22959803Y-176265674D01*
X22941368Y-176393900D01*
X22671634Y-176393900D01*
X22653198Y-176265674D01*
X22599383Y-176147837D01*
X22514550Y-176049933D01*
X22405570Y-175979896D01*
X22405566Y-175979894D01*
X22405565Y-175979894D01*
X22281275Y-175943400D01*
X22281273Y-175943400D01*
X22151729Y-175943400D01*
X22151727Y-175943400D01*
X22027436Y-175979894D01*
X22027433Y-175979895D01*
X22027432Y-175979896D01*
X21983706Y-176007997D01*
X21918451Y-176049933D01*
X21833619Y-176147837D01*
X21833618Y-176147838D01*
X21779803Y-176265674D01*
X21761368Y-176393900D01*
X20256963Y-176393900D01*
X20248256Y-176333348D01*
X20277281Y-176269792D01*
X20286657Y-176260092D01*
X20303588Y-176244385D01*
X20310119Y-176233072D01*
X20323797Y-176213868D01*
X20330291Y-176206374D01*
X20330294Y-176206370D01*
X20332077Y-176202464D01*
X20347054Y-176169668D01*
X20349756Y-176164429D01*
X20371497Y-176126779D01*
X20373525Y-176117890D01*
X20381625Y-176093971D01*
X20384108Y-176088534D01*
X20384108Y-176088533D01*
X20385679Y-176077607D01*
X20390350Y-176045117D01*
X20391263Y-176040199D01*
X20401724Y-175994382D01*
X20401338Y-175989228D01*
X20402255Y-175962319D01*
X20402262Y-175962264D01*
X20402544Y-175960309D01*
X20396332Y-175917106D01*
X20395807Y-175913456D01*
X20395349Y-175909259D01*
X20391583Y-175858959D01*
X20391583Y-175858957D01*
X20391143Y-175857836D01*
X20386404Y-175839900D01*
X20384109Y-175832087D01*
X20384108Y-175832085D01*
X20384108Y-175832083D01*
X20371177Y-175803769D01*
X20363000Y-175785863D01*
X20361680Y-175782753D01*
X20358113Y-175773663D01*
X20341977Y-175732538D01*
X20341976Y-175732537D01*
X20341976Y-175732536D01*
X20337331Y-175724490D01*
X20339529Y-175723220D01*
X20318349Y-175671334D01*
X20331108Y-175602639D01*
X20378980Y-175551747D01*
X20394253Y-175544152D01*
X20396650Y-175543159D01*
X20453447Y-175519633D01*
X20578888Y-175423379D01*
X20675142Y-175297938D01*
X20709952Y-175213900D01*
X21761368Y-175213900D01*
X21779803Y-175342125D01*
X21790665Y-175365909D01*
X21833619Y-175459963D01*
X21918452Y-175557867D01*
X22027432Y-175627904D01*
X22043787Y-175632706D01*
X22151726Y-175664399D01*
X22151728Y-175664400D01*
X22151729Y-175664400D01*
X22281274Y-175664400D01*
X22281274Y-175664399D01*
X22405570Y-175627904D01*
X22514550Y-175557867D01*
X22599383Y-175459963D01*
X22653198Y-175342126D01*
X22671634Y-175213900D01*
X22941368Y-175213900D01*
X22959803Y-175342125D01*
X22970665Y-175365909D01*
X23013619Y-175459963D01*
X23098452Y-175557867D01*
X23207432Y-175627904D01*
X23223787Y-175632706D01*
X23331726Y-175664399D01*
X23331728Y-175664400D01*
X23331729Y-175664400D01*
X23461274Y-175664400D01*
X23461274Y-175664399D01*
X23585570Y-175627904D01*
X23694550Y-175557867D01*
X23779383Y-175459963D01*
X23833198Y-175342126D01*
X23851634Y-175213900D01*
X23833198Y-175085674D01*
X23779383Y-174967837D01*
X23694550Y-174869933D01*
X23585570Y-174799896D01*
X23585566Y-174799894D01*
X23585565Y-174799894D01*
X23461275Y-174763400D01*
X23461273Y-174763400D01*
X23331729Y-174763400D01*
X23331727Y-174763400D01*
X23207436Y-174799894D01*
X23207433Y-174799895D01*
X23207432Y-174799896D01*
X23158110Y-174831593D01*
X23098451Y-174869933D01*
X23013619Y-174967837D01*
X23013618Y-174967838D01*
X22959803Y-175085674D01*
X22941368Y-175213900D01*
X22671634Y-175213900D01*
X22653198Y-175085674D01*
X22599383Y-174967837D01*
X22514550Y-174869933D01*
X22405570Y-174799896D01*
X22405566Y-174799894D01*
X22405565Y-174799894D01*
X22281275Y-174763400D01*
X22281273Y-174763400D01*
X22151729Y-174763400D01*
X22151727Y-174763400D01*
X22027436Y-174799894D01*
X22027433Y-174799895D01*
X22027432Y-174799896D01*
X21978110Y-174831593D01*
X21918451Y-174869933D01*
X21833619Y-174967837D01*
X21833618Y-174967838D01*
X21779803Y-175085674D01*
X21761368Y-175213900D01*
X20709952Y-175213900D01*
X20735650Y-175151859D01*
X20754483Y-175008806D01*
X20756288Y-174995098D01*
X20756288Y-174995097D01*
X20752166Y-174963789D01*
X20740700Y-174876696D01*
X20751465Y-174807662D01*
X20797845Y-174755406D01*
X20865114Y-174736521D01*
X20874251Y-174737175D01*
X20876797Y-174737175D01*
X20876798Y-174737175D01*
X20929051Y-174730295D01*
X21033559Y-174716537D01*
X21179638Y-174656029D01*
X21305079Y-174559775D01*
X21399821Y-174436304D01*
X23911873Y-174436304D01*
X23930308Y-174564529D01*
X23966591Y-174643975D01*
X23984124Y-174682367D01*
X24068957Y-174780271D01*
X24177937Y-174850308D01*
X24302231Y-174886803D01*
X24302233Y-174886804D01*
X24302234Y-174886804D01*
X24431779Y-174886804D01*
X24431779Y-174886803D01*
X24556075Y-174850308D01*
X24665055Y-174780271D01*
X24749888Y-174682367D01*
X24803703Y-174564530D01*
X24822139Y-174436304D01*
X24803703Y-174308078D01*
X24749888Y-174190241D01*
X24687234Y-174117933D01*
X24658210Y-174054377D01*
X24668154Y-173985218D01*
X24713907Y-173932418D01*
X24817454Y-173865873D01*
X24902287Y-173767969D01*
X24956102Y-173650132D01*
X24974538Y-173521906D01*
X24956102Y-173393680D01*
X24902287Y-173275843D01*
X24817454Y-173177939D01*
X24708474Y-173107902D01*
X24708470Y-173107900D01*
X24708469Y-173107900D01*
X24584179Y-173071406D01*
X24584177Y-173071406D01*
X24454633Y-173071406D01*
X24454631Y-173071406D01*
X24330340Y-173107900D01*
X24330337Y-173107901D01*
X24330336Y-173107902D01*
X24279082Y-173140840D01*
X24221355Y-173177939D01*
X24136523Y-173275843D01*
X24136522Y-173275844D01*
X24082707Y-173393680D01*
X24064272Y-173521906D01*
X24082707Y-173650131D01*
X24136522Y-173767967D01*
X24136523Y-173767969D01*
X24199176Y-173840276D01*
X24228200Y-173903832D01*
X24218256Y-173972991D01*
X24172501Y-174025792D01*
X24128024Y-174054377D01*
X24068956Y-174092337D01*
X23984124Y-174190241D01*
X23984123Y-174190242D01*
X23930308Y-174308078D01*
X23911873Y-174436304D01*
X21399821Y-174436304D01*
X21401333Y-174434334D01*
X21461841Y-174288255D01*
X21482479Y-174131493D01*
X21461841Y-173974731D01*
X21401333Y-173828652D01*
X21305079Y-173703211D01*
X21179638Y-173606957D01*
X21033559Y-173546449D01*
X21033557Y-173546448D01*
X20876798Y-173525811D01*
X20876796Y-173525811D01*
X20720036Y-173546448D01*
X20720034Y-173546449D01*
X20568683Y-173609141D01*
X20499213Y-173616610D01*
X20436734Y-173585335D01*
X20401082Y-173525246D01*
X20397230Y-173494580D01*
X20397230Y-173107900D01*
X20397230Y-172505898D01*
X27418917Y-172505898D01*
X27439554Y-172662657D01*
X27439555Y-172662659D01*
X27465343Y-172724918D01*
X27500063Y-172808738D01*
X27596317Y-172934179D01*
X27721758Y-173030433D01*
X27867837Y-173090941D01*
X27946217Y-173101260D01*
X28024598Y-173111579D01*
X28024599Y-173111579D01*
X28024600Y-173111579D01*
X28076852Y-173104699D01*
X28181361Y-173090941D01*
X28327440Y-173030433D01*
X28452881Y-172934179D01*
X28549135Y-172808738D01*
X28609643Y-172662659D01*
X28628539Y-172519127D01*
X28630281Y-172505898D01*
X28630281Y-172505895D01*
X28609643Y-172349136D01*
X28609643Y-172349135D01*
X28549135Y-172203056D01*
X28452881Y-172077615D01*
X28327440Y-171981361D01*
X28325296Y-171980473D01*
X28181361Y-171920853D01*
X28181359Y-171920852D01*
X28024600Y-171900215D01*
X28024598Y-171900215D01*
X27867838Y-171920852D01*
X27867836Y-171920853D01*
X27721759Y-171981360D01*
X27596317Y-172077615D01*
X27500062Y-172203057D01*
X27439555Y-172349134D01*
X27439554Y-172349136D01*
X27418917Y-172505895D01*
X27418917Y-172505898D01*
X20397230Y-172505898D01*
X20397231Y-171790562D01*
X21980798Y-171790562D01*
X21999233Y-171918787D01*
X22035868Y-171999005D01*
X22053049Y-172036625D01*
X22137882Y-172134529D01*
X22246862Y-172204566D01*
X22327344Y-172228197D01*
X22371156Y-172241061D01*
X22371158Y-172241062D01*
X22371159Y-172241062D01*
X22500704Y-172241062D01*
X22500704Y-172241061D01*
X22625000Y-172204566D01*
X22733980Y-172134529D01*
X22818813Y-172036625D01*
X22872628Y-171918788D01*
X22891064Y-171790562D01*
X22872628Y-171662336D01*
X22863481Y-171642308D01*
X23200665Y-171642308D01*
X23219100Y-171770533D01*
X23261765Y-171863955D01*
X23272916Y-171888371D01*
X23314829Y-171936742D01*
X23352222Y-171979897D01*
X23357749Y-171986275D01*
X23466729Y-172056312D01*
X23591023Y-172092807D01*
X23591025Y-172092808D01*
X23591026Y-172092808D01*
X23720571Y-172092808D01*
X23720571Y-172092807D01*
X23844867Y-172056312D01*
X23953847Y-171986275D01*
X24038680Y-171888371D01*
X24092495Y-171770534D01*
X24110931Y-171642308D01*
X24092495Y-171514082D01*
X24081453Y-171489903D01*
X26352123Y-171489903D01*
X26372760Y-171646662D01*
X26372761Y-171646664D01*
X26432365Y-171790562D01*
X26433269Y-171792743D01*
X26529523Y-171918184D01*
X26654964Y-172014438D01*
X26801043Y-172074946D01*
X26827659Y-172078450D01*
X26957804Y-172095584D01*
X26957805Y-172095584D01*
X26957806Y-172095584D01*
X27033292Y-172085646D01*
X27114567Y-172074946D01*
X27260646Y-172014438D01*
X27386087Y-171918184D01*
X27482341Y-171792743D01*
X27542849Y-171646664D01*
X27561846Y-171502364D01*
X27563487Y-171489903D01*
X27563487Y-171489900D01*
X27542849Y-171333141D01*
X27542849Y-171333140D01*
X27482341Y-171187061D01*
X27386087Y-171061620D01*
X27260646Y-170965366D01*
X27235883Y-170955109D01*
X27114567Y-170904858D01*
X27114565Y-170904857D01*
X26957806Y-170884220D01*
X26957804Y-170884220D01*
X26801044Y-170904857D01*
X26801042Y-170904858D01*
X26654965Y-170965365D01*
X26529523Y-171061620D01*
X26433268Y-171187062D01*
X26372761Y-171333139D01*
X26372760Y-171333141D01*
X26352123Y-171489900D01*
X26352123Y-171489903D01*
X24081453Y-171489903D01*
X24038680Y-171396245D01*
X23953847Y-171298341D01*
X23844867Y-171228304D01*
X23844863Y-171228302D01*
X23844862Y-171228302D01*
X23720572Y-171191808D01*
X23720570Y-171191808D01*
X23591026Y-171191808D01*
X23591024Y-171191808D01*
X23466733Y-171228302D01*
X23466730Y-171228303D01*
X23466729Y-171228304D01*
X23420101Y-171258270D01*
X23357748Y-171298341D01*
X23272916Y-171396245D01*
X23272915Y-171396246D01*
X23219100Y-171514082D01*
X23200665Y-171642308D01*
X22863481Y-171642308D01*
X22818813Y-171544499D01*
X22733980Y-171446595D01*
X22625000Y-171376558D01*
X22624996Y-171376556D01*
X22624995Y-171376556D01*
X22500705Y-171340062D01*
X22500703Y-171340062D01*
X22371159Y-171340062D01*
X22371157Y-171340062D01*
X22246866Y-171376556D01*
X22246863Y-171376557D01*
X22246862Y-171376558D01*
X22203609Y-171404355D01*
X22137881Y-171446595D01*
X22053049Y-171544499D01*
X22053048Y-171544500D01*
X21999233Y-171662336D01*
X21980798Y-171790562D01*
X20397231Y-171790562D01*
X20397231Y-171108130D01*
X20397619Y-171101227D01*
X20402003Y-171062324D01*
X20390942Y-171003869D01*
X20382081Y-170945078D01*
X20382079Y-170945074D01*
X20379557Y-170936895D01*
X20376755Y-170928890D01*
X20376755Y-170928888D01*
X20348954Y-170876289D01*
X20323158Y-170822723D01*
X20323157Y-170822722D01*
X20323157Y-170822721D01*
X20318358Y-170815683D01*
X20313295Y-170808822D01*
X20271250Y-170766778D01*
X20230786Y-170723169D01*
X20223518Y-170717373D01*
X20224039Y-170716719D01*
X20211799Y-170707330D01*
X19923423Y-170418960D01*
X19883368Y-170378905D01*
X19878731Y-170373717D01*
X19854340Y-170343133D01*
X19805188Y-170309622D01*
X19757340Y-170274309D01*
X19749772Y-170270309D01*
X19742132Y-170266630D01*
X19685278Y-170249094D01*
X19629155Y-170229456D01*
X19620784Y-170227872D01*
X19604626Y-170225437D01*
X19541269Y-170195981D01*
X19515453Y-170155205D01*
X30617963Y-170155205D01*
X30638600Y-170311964D01*
X30638601Y-170311966D01*
X30671907Y-170392375D01*
X30699109Y-170458045D01*
X30795363Y-170583486D01*
X30920804Y-170679740D01*
X31066883Y-170740248D01*
X31143935Y-170750392D01*
X31223644Y-170760886D01*
X31223645Y-170760886D01*
X31223646Y-170760886D01*
X31275899Y-170754006D01*
X31380407Y-170740248D01*
X31526486Y-170679740D01*
X31644630Y-170589084D01*
X31709796Y-170563891D01*
X31778241Y-170577929D01*
X31828231Y-170626742D01*
X31842852Y-170669813D01*
X31854437Y-170750392D01*
X31908252Y-170868228D01*
X31908255Y-170868234D01*
X31943836Y-170909297D01*
X31972860Y-170972853D01*
X31962916Y-171042011D01*
X31925609Y-171088873D01*
X31868321Y-171132831D01*
X31772064Y-171258276D01*
X31711557Y-171404353D01*
X31711556Y-171404355D01*
X31690919Y-171561114D01*
X31690919Y-171561117D01*
X31711556Y-171717876D01*
X31711557Y-171717878D01*
X31772062Y-171863951D01*
X31772065Y-171863957D01*
X31868319Y-171989398D01*
X31993760Y-172085652D01*
X32139839Y-172146160D01*
X32218220Y-172156478D01*
X32296600Y-172166798D01*
X32296601Y-172166798D01*
X32296602Y-172166798D01*
X32348855Y-172159918D01*
X32453363Y-172146160D01*
X32599442Y-172085652D01*
X32652927Y-172044611D01*
X32718095Y-172019417D01*
X32786540Y-172033455D01*
X32803895Y-172044609D01*
X32830641Y-172065132D01*
X32857374Y-172085645D01*
X32857375Y-172085645D01*
X32857376Y-172085646D01*
X33003455Y-172146154D01*
X33081836Y-172156473D01*
X33160216Y-172166792D01*
X33160217Y-172166792D01*
X33160218Y-172166792D01*
X33212471Y-172159912D01*
X33316979Y-172146154D01*
X33463058Y-172085646D01*
X33588499Y-171989392D01*
X33684753Y-171863951D01*
X33745261Y-171717872D01*
X33765898Y-171561116D01*
X33765899Y-171561111D01*
X33765899Y-171561108D01*
X33745261Y-171404349D01*
X33745261Y-171404348D01*
X33684753Y-171258269D01*
X33588499Y-171132828D01*
X33463058Y-171036574D01*
X33316979Y-170976066D01*
X33316977Y-170976065D01*
X33160218Y-170955428D01*
X33160216Y-170955428D01*
X33003456Y-170976065D01*
X33003454Y-170976066D01*
X32857373Y-171036575D01*
X32844167Y-171046708D01*
X32778997Y-171071899D01*
X32710553Y-171057858D01*
X32660565Y-171009042D01*
X32644905Y-170940950D01*
X32668544Y-170875201D01*
X32673691Y-170868736D01*
X32674012Y-170868235D01*
X32674017Y-170868230D01*
X32727832Y-170750393D01*
X32746268Y-170622167D01*
X32727832Y-170493941D01*
X32674017Y-170376104D01*
X32589184Y-170278200D01*
X32480204Y-170208163D01*
X32480200Y-170208161D01*
X32480199Y-170208161D01*
X32355909Y-170171667D01*
X32355907Y-170171667D01*
X32226363Y-170171667D01*
X32226361Y-170171667D01*
X32102068Y-170208161D01*
X32102067Y-170208161D01*
X32020365Y-170260668D01*
X31953326Y-170280352D01*
X31886286Y-170260667D01*
X31840532Y-170207862D01*
X31830817Y-170163205D01*
X31830388Y-170163262D01*
X31829710Y-170158113D01*
X31829327Y-170156352D01*
X31829327Y-170155202D01*
X31814772Y-170044651D01*
X31808689Y-169998442D01*
X31754592Y-169867840D01*
X32845055Y-169867840D01*
X32865692Y-170024599D01*
X32865693Y-170024601D01*
X32920995Y-170158113D01*
X32926201Y-170170680D01*
X33022455Y-170296121D01*
X33147896Y-170392375D01*
X33293975Y-170452883D01*
X33372356Y-170463202D01*
X33450736Y-170473521D01*
X33450737Y-170473521D01*
X33450738Y-170473521D01*
X33502991Y-170466641D01*
X33607499Y-170452883D01*
X33753578Y-170392375D01*
X33879019Y-170296121D01*
X33975273Y-170170680D01*
X34035781Y-170024601D01*
X34044578Y-169957773D01*
X34072844Y-169893879D01*
X34131168Y-169855407D01*
X34151323Y-169851023D01*
X34218152Y-169842225D01*
X34364231Y-169781717D01*
X34489672Y-169685463D01*
X34585926Y-169560022D01*
X34646434Y-169413943D01*
X34667072Y-169257181D01*
X34646434Y-169100419D01*
X34585926Y-168954340D01*
X34489672Y-168828899D01*
X34364231Y-168732645D01*
X34314370Y-168711992D01*
X34218152Y-168672137D01*
X34218150Y-168672136D01*
X34061391Y-168651499D01*
X34061389Y-168651499D01*
X33904629Y-168672136D01*
X33904627Y-168672137D01*
X33758550Y-168732644D01*
X33633108Y-168828899D01*
X33536853Y-168954341D01*
X33476346Y-169100418D01*
X33476346Y-169100420D01*
X33467548Y-169167244D01*
X33439281Y-169231141D01*
X33380956Y-169269611D01*
X33360796Y-169273997D01*
X33293975Y-169282795D01*
X33293974Y-169282795D01*
X33147897Y-169343302D01*
X33022455Y-169439557D01*
X32926200Y-169564999D01*
X32865693Y-169711076D01*
X32865692Y-169711078D01*
X32845055Y-169867837D01*
X32845055Y-169867840D01*
X31754592Y-169867840D01*
X31748181Y-169852363D01*
X31651927Y-169726922D01*
X31526486Y-169630668D01*
X31453352Y-169600375D01*
X31380407Y-169570160D01*
X31380405Y-169570159D01*
X31223646Y-169549522D01*
X31223644Y-169549522D01*
X31066884Y-169570159D01*
X31066882Y-169570160D01*
X30920805Y-169630667D01*
X30795363Y-169726922D01*
X30699108Y-169852364D01*
X30638601Y-169998441D01*
X30638600Y-169998443D01*
X30617963Y-170155202D01*
X30617963Y-170155205D01*
X19515453Y-170155205D01*
X19503894Y-170136948D01*
X19499106Y-170102822D01*
X19499106Y-169722845D01*
X19499106Y-169722840D01*
X19496253Y-169692406D01*
X19451400Y-169564222D01*
X19370757Y-169454954D01*
X19261489Y-169374311D01*
X19261488Y-169374310D01*
X19133302Y-169329457D01*
X19133305Y-169329457D01*
X19102875Y-169326604D01*
X17194348Y-169326604D01*
X17163908Y-169329458D01*
X17163907Y-169329458D01*
X17035725Y-169374310D01*
X16926457Y-169454954D01*
X16845813Y-169564222D01*
X16800960Y-169692406D01*
X16798107Y-169722835D01*
X16798107Y-171631362D01*
X16800961Y-171661802D01*
X16800961Y-171661803D01*
X16845813Y-171789985D01*
X16845814Y-171789986D01*
X16926457Y-171899254D01*
X17035725Y-171979897D01*
X17163909Y-172024750D01*
X17163908Y-172024750D01*
X17167878Y-172025122D01*
X17194342Y-172027604D01*
X19102871Y-172027603D01*
X19133305Y-172024750D01*
X19261489Y-171979897D01*
X19298598Y-171952509D01*
X19364225Y-171928538D01*
X19432395Y-171943853D01*
X19481464Y-171993592D01*
X19496231Y-172052279D01*
X19496230Y-172603910D01*
X19476545Y-172670950D01*
X19423741Y-172716704D01*
X19354583Y-172726648D01*
X19298597Y-172703680D01*
X19261495Y-172676298D01*
X19261494Y-172676297D01*
X19133308Y-172631444D01*
X19133311Y-172631444D01*
X19102881Y-172628591D01*
X17194354Y-172628591D01*
X17163914Y-172631445D01*
X17163913Y-172631445D01*
X17035731Y-172676297D01*
X16926463Y-172756941D01*
X16845819Y-172866209D01*
X16800966Y-172994393D01*
X16798113Y-173024822D01*
X16798113Y-174933349D01*
X16800967Y-174963789D01*
X16800967Y-174963790D01*
X16845819Y-175091972D01*
X16845820Y-175091973D01*
X16926463Y-175201241D01*
X17035731Y-175281884D01*
X17163915Y-175326737D01*
X17163914Y-175326737D01*
X17167884Y-175327109D01*
X17194348Y-175329591D01*
X18594543Y-175329590D01*
X18661582Y-175349275D01*
X18682224Y-175365909D01*
X19035239Y-175718924D01*
X19068724Y-175780247D01*
X19063740Y-175849939D01*
X19021868Y-175905872D01*
X18956404Y-175930289D01*
X18947558Y-175930605D01*
X17194358Y-175930605D01*
X17163918Y-175933459D01*
X17163917Y-175933459D01*
X17035735Y-175978311D01*
X16926467Y-176058955D01*
X16845823Y-176168223D01*
X16800970Y-176296407D01*
X16798117Y-176326836D01*
X16798117Y-178235363D01*
X16800971Y-178265803D01*
X16800971Y-178265804D01*
X16845823Y-178393986D01*
X16845824Y-178393987D01*
X16926467Y-178503255D01*
X17035735Y-178583898D01*
X17163919Y-178628751D01*
X17163918Y-178628751D01*
X17167888Y-178629123D01*
X17194352Y-178631605D01*
X19102881Y-178631604D01*
X19133315Y-178628751D01*
X19261499Y-178583898D01*
X19370767Y-178503255D01*
X19451410Y-178393987D01*
X19496263Y-178265803D01*
X19499117Y-178235370D01*
X19499116Y-177855598D01*
X19518800Y-177788560D01*
X19571604Y-177742805D01*
X19623112Y-177731599D01*
X19918618Y-177731599D01*
X19925560Y-177731988D01*
X19948545Y-177734578D01*
X19964432Y-177736369D01*
X19964432Y-177736368D01*
X19964434Y-177736369D01*
X20003394Y-177728997D01*
X20022876Y-177725312D01*
X20031740Y-177723975D01*
X20081692Y-177716447D01*
X20081695Y-177716445D01*
X20089836Y-177713934D01*
X20097860Y-177711125D01*
X20097871Y-177711124D01*
X20150479Y-177683320D01*
X20204047Y-177657523D01*
X20204050Y-177657519D01*
X20211082Y-177652726D01*
X20217929Y-177647672D01*
X20217938Y-177647668D01*
X20242788Y-177622818D01*
X20260004Y-177605603D01*
X20294708Y-177573402D01*
X20303599Y-177565153D01*
X20303601Y-177565148D01*
X20309396Y-177557883D01*
X20310053Y-177558407D01*
X20319440Y-177546165D01*
X20577889Y-177287722D01*
X20598528Y-177271091D01*
X20601065Y-177269462D01*
X20631509Y-177234326D01*
X20634492Y-177231121D01*
X20645438Y-177220177D01*
X20646767Y-177218375D01*
X20647404Y-177217891D01*
X20648474Y-177216649D01*
X20648739Y-177216877D01*
X20702402Y-177176114D01*
X20772057Y-177170639D01*
X20833614Y-177203692D01*
X20867530Y-177264778D01*
X20869168Y-177310464D01*
X20868515Y-177314792D01*
X20868515Y-177341612D01*
X20867253Y-177359252D01*
X20863883Y-177382695D01*
X20863883Y-177382696D01*
X20867253Y-177406142D01*
X20868514Y-177423784D01*
X20868513Y-177901908D01*
X20848828Y-177968948D01*
X20832194Y-177989589D01*
X20359731Y-178462054D01*
X20354545Y-178466688D01*
X20323956Y-178491084D01*
X20323953Y-178491087D01*
X20290442Y-178540238D01*
X20255131Y-178588082D01*
X20251149Y-178595617D01*
X20247453Y-178603293D01*
X20229918Y-178660139D01*
X20210279Y-178716267D01*
X20208698Y-178724620D01*
X20207426Y-178733066D01*
X20207426Y-178792531D01*
X20205201Y-178851970D01*
X20206242Y-178861206D01*
X20205412Y-178861299D01*
X20207426Y-178876599D01*
X20207428Y-179375799D01*
X20187744Y-179442838D01*
X20171109Y-179463480D01*
X19710776Y-179923813D01*
X19649453Y-179957298D01*
X19579761Y-179952314D01*
X19523828Y-179910442D01*
X19499411Y-179844978D01*
X19499095Y-179836132D01*
X19499095Y-179628844D01*
X19499095Y-179628839D01*
X19496242Y-179598405D01*
X19451389Y-179470221D01*
X19370746Y-179360953D01*
X19290102Y-179301435D01*
X19261477Y-179280309D01*
X19133291Y-179235456D01*
X19133294Y-179235456D01*
X19102864Y-179232603D01*
X17194337Y-179232603D01*
X17163897Y-179235457D01*
X17163896Y-179235457D01*
X17035714Y-179280309D01*
X16926446Y-179360953D01*
X16845802Y-179470221D01*
X16800949Y-179598405D01*
X16798096Y-179628834D01*
X16798096Y-181537361D01*
X16249314Y-181537361D01*
X16249314Y-168897975D01*
X29360727Y-168897975D01*
X29381364Y-169054734D01*
X29381365Y-169054736D01*
X29400287Y-169100419D01*
X29441873Y-169200815D01*
X29538127Y-169326256D01*
X29663568Y-169422510D01*
X29809647Y-169483018D01*
X29888027Y-169493336D01*
X29966408Y-169503656D01*
X29966409Y-169503656D01*
X29966410Y-169503656D01*
X30018662Y-169496776D01*
X30123171Y-169483018D01*
X30269250Y-169422510D01*
X30394691Y-169326256D01*
X30490945Y-169200815D01*
X30551453Y-169054736D01*
X30572091Y-168897974D01*
X30551453Y-168741212D01*
X30490945Y-168595133D01*
X30394691Y-168469692D01*
X30269250Y-168373438D01*
X30136060Y-168318269D01*
X30123171Y-168312930D01*
X30123169Y-168312929D01*
X29966410Y-168292292D01*
X29966408Y-168292292D01*
X29809648Y-168312929D01*
X29809646Y-168312930D01*
X29663569Y-168373437D01*
X29538127Y-168469692D01*
X29441872Y-168595134D01*
X29381365Y-168741211D01*
X29381364Y-168741213D01*
X29360727Y-168897972D01*
X29360727Y-168897975D01*
X16249314Y-168897975D01*
X16249314Y-166359105D01*
X17693502Y-166359105D01*
X17712666Y-166590396D01*
X17712668Y-166590407D01*
X17769644Y-166815400D01*
X17862877Y-167027948D01*
X17989820Y-167222250D01*
X18147021Y-167393015D01*
X18147025Y-167393018D01*
X18177359Y-167416628D01*
X18330177Y-167535571D01*
X18330180Y-167535573D01*
X18330182Y-167535574D01*
X18367601Y-167555824D01*
X18534301Y-167646037D01*
X18644061Y-167683717D01*
X18753819Y-167721398D01*
X18753821Y-167721398D01*
X18753823Y-167721399D01*
X18982755Y-167759601D01*
X18982756Y-167759601D01*
X19214852Y-167759601D01*
X19214853Y-167759601D01*
X19443785Y-167721399D01*
X19469451Y-167712588D01*
X28175324Y-167712588D01*
X28195961Y-167869347D01*
X28195962Y-167869349D01*
X28256470Y-168015428D01*
X28352724Y-168140869D01*
X28478165Y-168237123D01*
X28624244Y-168297631D01*
X28702624Y-168307950D01*
X28781005Y-168318269D01*
X28781006Y-168318269D01*
X28781007Y-168318269D01*
X28833260Y-168311389D01*
X28937768Y-168297631D01*
X29083847Y-168237123D01*
X29209288Y-168140869D01*
X29305542Y-168015428D01*
X29366050Y-167869349D01*
X29386688Y-167712587D01*
X29366050Y-167555825D01*
X29305542Y-167409746D01*
X29262277Y-167353362D01*
X36875088Y-167353362D01*
X36893523Y-167481587D01*
X36939362Y-167581959D01*
X36947339Y-167599425D01*
X37032172Y-167697329D01*
X37141152Y-167767366D01*
X37265446Y-167803861D01*
X37265448Y-167803862D01*
X37265449Y-167803862D01*
X37394994Y-167803862D01*
X37394994Y-167803861D01*
X37519290Y-167767366D01*
X37628270Y-167697329D01*
X37713103Y-167599425D01*
X37766918Y-167481588D01*
X37785354Y-167353362D01*
X37766918Y-167225136D01*
X37713103Y-167107299D01*
X37628270Y-167009395D01*
X37519290Y-166939358D01*
X37519286Y-166939356D01*
X37519285Y-166939356D01*
X37394995Y-166902862D01*
X37394993Y-166902862D01*
X37265449Y-166902862D01*
X37265447Y-166902862D01*
X37141156Y-166939356D01*
X37141153Y-166939357D01*
X37141152Y-166939358D01*
X37089898Y-166972296D01*
X37032171Y-167009395D01*
X36947339Y-167107299D01*
X36947338Y-167107300D01*
X36893523Y-167225136D01*
X36875088Y-167353362D01*
X29262277Y-167353362D01*
X29209288Y-167284305D01*
X29083847Y-167188051D01*
X28937768Y-167127543D01*
X28937766Y-167127542D01*
X28781007Y-167106905D01*
X28781005Y-167106905D01*
X28624245Y-167127542D01*
X28624243Y-167127543D01*
X28478166Y-167188050D01*
X28352724Y-167284305D01*
X28256469Y-167409747D01*
X28195962Y-167555824D01*
X28195961Y-167555826D01*
X28175324Y-167712585D01*
X28175324Y-167712588D01*
X19469451Y-167712588D01*
X19663307Y-167646037D01*
X19867431Y-167535571D01*
X20050589Y-167393013D01*
X20207785Y-167222253D01*
X20334730Y-167027949D01*
X20427963Y-166815400D01*
X20484940Y-166590404D01*
X20485456Y-166584178D01*
X20504106Y-166359105D01*
X20504106Y-166359092D01*
X20484941Y-166127801D01*
X20484939Y-166127790D01*
X20427963Y-165902797D01*
X20334730Y-165690249D01*
X20207787Y-165495947D01*
X20050586Y-165325182D01*
X20050582Y-165325179D01*
X19921549Y-165224749D01*
X19867431Y-165182627D01*
X19867428Y-165182625D01*
X19867425Y-165182623D01*
X19663313Y-165072164D01*
X19663310Y-165072162D01*
X19663307Y-165072161D01*
X19663304Y-165072160D01*
X19663302Y-165072159D01*
X19443788Y-164996799D01*
X19272085Y-164968147D01*
X19214853Y-164958597D01*
X18982755Y-164958597D01*
X18936968Y-164966237D01*
X18753819Y-164996799D01*
X18534305Y-165072159D01*
X18534294Y-165072164D01*
X18330182Y-165182623D01*
X18330173Y-165182630D01*
X18147025Y-165325179D01*
X18147021Y-165325182D01*
X17989820Y-165495947D01*
X17862877Y-165690249D01*
X17769644Y-165902797D01*
X17712668Y-166127790D01*
X17712666Y-166127801D01*
X17693502Y-166359092D01*
X17693502Y-166359105D01*
X16249314Y-166359105D01*
X16249314Y-164398302D01*
X16249457Y-164394092D01*
X16266073Y-164149893D01*
X16267215Y-164141544D01*
X16298312Y-163991077D01*
X16316329Y-163903902D01*
X16318582Y-163895815D01*
X16399439Y-163667000D01*
X16402771Y-163659284D01*
X16513864Y-163443552D01*
X16518221Y-163436343D01*
X16657509Y-163237651D01*
X16662804Y-163231094D01*
X16697034Y-163194150D01*
X16827723Y-163053099D01*
X16833845Y-163047331D01*
X17021365Y-162893304D01*
X17028200Y-162888426D01*
X17234867Y-162761214D01*
X17242298Y-162757308D01*
X17464282Y-162659265D01*
X17472189Y-162656396D01*
X17692730Y-162592969D01*
X17727001Y-162588140D01*
X17741493Y-162588140D01*
X17773029Y-162574452D01*
X17969797Y-162532102D01*
X17969798Y-162532101D01*
X17969798Y-162532102D01*
X18481423Y-162384039D01*
X18966236Y-162206358D01*
X18981510Y-162200760D01*
X18981510Y-162200761D01*
X19467649Y-161983149D01*
X19509110Y-161961009D01*
X19937477Y-161732263D01*
X19937483Y-161732259D01*
X19937489Y-161732256D01*
X20329886Y-161486208D01*
X20388723Y-161449315D01*
X20390468Y-161448044D01*
X20695256Y-161225979D01*
X20819201Y-161135674D01*
X21149759Y-160857674D01*
X21226828Y-160792861D01*
X21226827Y-160792862D01*
X21609635Y-160422529D01*
X21965762Y-160026479D01*
X22020463Y-159956400D01*
X22135388Y-159809166D01*
X22192150Y-159768437D01*
X22261928Y-159764859D01*
X22320810Y-159797787D01*
G37*
%TD.AperFunction*%
%TD*%
M02*
