M48
; DRILL file {KiCad 7.0.7} date Mon Dec  4 17:41:01 2023
; FORMAT={-:-/ absolute / inch / decimal}
; #@! TF.CreationDate,2023-12-04T17:41:01-05:00
; #@! TF.GenerationSoftware,Kicad,Pcbnew,7.0.7
; #@! TF.FileFunction,Plated,1,4,PTH
FMAT,2
INCH
; #@! TA.AperFunction,Plated,PTH,ViaDrill
T1C0.0079
; #@! TA.AperFunction,Plated,PTH,ComponentDrill
T2C0.0079
; #@! TA.AperFunction,Plated,PTH,ComponentDrill
T3C0.0098
; #@! TA.AperFunction,Plated,PTH,ViaDrill
T4C0.0157
; #@! TA.AperFunction,Plated,PTH,ComponentDrill
T5C0.0295
; #@! TA.AperFunction,Plated,PTH,ComponentDrill
T6C0.0394
; #@! TA.AperFunction,Plated,PTH,ComponentDrill
T7C0.0433
%
G90
G05
T1
X0.7853Y-6.9276
X0.7993Y-6.9656
X0.8212Y-7.2496
X0.8212Y-7.2856
X0.8393Y-6.9836
X0.8597Y-7.2216
X0.8619Y-7.0336
X0.8833Y-6.7634
X0.9313Y-6.7576
X0.9392Y-7.4036
X0.9593Y-6.8676
X0.9653Y-6.8316
X0.9872Y-7.3556
X0.9912Y-7.3176
X1.0073Y-6.9734
X1.0093Y-7.0034
X1.1061Y-7.1741
X1.1358Y-7.1982
X1.1393Y-6.9074
X1.1457Y-7.259
X1.2035Y-6.7564
X1.2275Y-6.7564
X1.2315Y-6.9064
X1.2713Y-6.7174
X1.3283Y-7.0358
X1.3315Y-6.8844
X1.3575Y-6.9644
X1.3895Y-6.9644
X1.3995Y-6.7984
X1.4588Y-6.0216
X1.4697Y-6.5887
X1.4755Y-6.8984
X1.4763Y-6.8484
X1.4963Y-7.1195
X1.4969Y-6.3566
X1.5209Y-6.3366
X1.5234Y-6.4029
X1.5375Y-6.8204
X1.5394Y-6.0329
X1.5524Y-6.2651
X1.5533Y-6.7094
X1.5555Y-6.9724
X1.5555Y-7.0324
X1.5555Y-7.0084
X1.5555Y-6.9504
X1.5574Y-6.1749
X1.5614Y-6.4349
X1.5819Y-6.9096
X1.5824Y-6.2931
X1.6135Y-6.8724
X1.6213Y-6.9214
X1.6303Y-6.7075
X1.6564Y-6.0531
X1.6864Y-6.0831
X1.7093Y-6.3874
X1.7453Y-6.5594
X1.7573Y-6.5134
X1.7693Y-6.8194
X1.7873Y-6.4874
X1.7933Y-6.5474
X1.8093Y-6.8174
X1.8099Y-6.3311
X1.8453Y-6.7594
X1.8679Y-6.3578
X1.8926Y-5.631
X1.9386Y-5.853
X1.9453Y-6.0074
X1.9513Y-6.6074
X1.9613Y-6.2634
X1.9646Y-5.6262
X1.9779Y-5.8172
X2.0239Y-6.5156
X2.0253Y-6.5554
T2
X0.8747Y-6.8982
X0.8747Y-6.9446
X0.9211Y-6.8982
X0.9211Y-6.9446
X1.6543Y-5.7323
X1.674Y-5.7664
X1.6937Y-5.8005
X1.6986Y-5.7068
X1.7183Y-5.7409
X1.738Y-5.7749
T3
X0.8972Y-7.2479
X0.8972Y-7.2873
T4
X0.7933Y-6.8896
X0.8219Y-6.8556
X0.8399Y-7.4096
X0.8739Y-7.4096
X0.8879Y-7.0696
X0.9055Y-6.5476
X0.9154Y-6.5072
X0.9197Y-6.585
X0.9575Y-6.5996
X0.9879Y-7.1116
X0.996Y-6.5878
X1.0219Y-7.1116
X1.0613Y-6.7516
X1.1033Y-6.7916
X1.1077Y-6.2493
X1.1331Y-6.6029
X1.1353Y-7.0736
X1.1353Y-7.0376
X1.1501Y-6.2917
X1.1685Y-6.4091
X1.1798Y-6.6495
X1.1939Y-6.3356
X1.2293Y-6.699
X1.2315Y-7.0724
X1.2419Y-6.9556
X1.2459Y-6.3816
X1.2715Y-6.7544
X1.2835Y-7.1184
X1.3055Y-6.7544
X1.317Y-6.6877
X1.3254Y-6.0287
X1.341Y-6.6637
X1.3707Y-6.0739
X1.3707Y-6.634
X1.3735Y-7.1184
X1.3947Y-6.6099
X1.4075Y-7.1284
X1.4109Y-6.3506
X1.4145Y-6.1178
X1.4349Y-6.3766
X1.4415Y-7.1284
X1.4609Y-6.4006
X1.4768Y-6.1857
X1.4796Y-6.262
X1.4869Y-6.4246
X1.5033Y-5.6461
X1.5135Y-6.7424
X1.5259Y-6.5416
X1.5277Y-6.477
X1.5309Y-5.8922
X1.637Y-6.6091
X1.6984Y-6.1171
X1.703Y-6.4948
X1.7373Y-6.3374
X1.7444Y-6.0691
X1.7619Y-6.2296
X1.7699Y-6.3374
X1.8059Y-6.0356
X1.8682Y-5.6005
X1.8744Y-6.0331
X1.9224Y-6.1391
X1.9224Y-6.0791
X1.9224Y-6.1991
X1.9415Y-5.7927
X2.0098Y-5.6978
T5
X0.9748Y-7.5781
X1.0231Y-7.5652
X1.0714Y-7.5522
X1.6505Y-7.222
X1.6859Y-7.1867
X1.7212Y-7.1513
T6
X0.9292Y-6.4056
X0.9999Y-6.3349
X1.1933Y-7.4856
X1.2308Y-5.8585
X1.2799Y-7.4356
X1.3174Y-5.8085
X1.3665Y-7.3856
X1.4531Y-7.3356
X1.5397Y-7.2856
X1.7938Y-7.0369
X1.8438Y-6.9503
X1.8938Y-6.8637
X1.9438Y-6.7771
X1.9938Y-6.6905
X2.1119Y-5.8896
X2.1119Y-5.9896
X2.1119Y-6.0896
X2.1119Y-6.1896
X2.1119Y-6.2896
T7
X0.7133Y-7.3696
X0.7145Y-7.2396
X0.7145Y-7.1096
X0.7145Y-6.7196
X0.7145Y-6.8496
X0.7145Y-6.9796
T0
M30
