%TF.GenerationSoftware,KiCad,Pcbnew,7.0.7*%
%TF.CreationDate,2023-12-04T17:40:57-05:00*%
%TF.ProjectId,PEEKbot_APS,5045454b-626f-4745-9f41-50532e6b6963,rev?*%
%TF.SameCoordinates,Original*%
%TF.FileFunction,AssemblyDrawing,Top*%
%FSLAX46Y46*%
G04 Gerber Fmt 4.6, Leading zero omitted, Abs format (unit mm)*
G04 Created by KiCad (PCBNEW 7.0.7) date 2023-12-04 17:40:57*
%MOMM*%
%LPD*%
G01*
G04 APERTURE LIST*
%ADD10C,0.100000*%
%ADD11C,0.100000*%
%TD*%
G04 APERTURE END LIST*
D10*
%TO.C,C10*%
X40786810Y-181567019D02*
X41918181Y-180435648D01*
X41352495Y-182132704D02*
X40786810Y-181567019D01*
X41918181Y-180435648D02*
X42483866Y-181001333D01*
X42483866Y-181001333D02*
X41352495Y-182132704D01*
%TO.C,R9*%
X39537298Y-174440693D02*
X39537298Y-172840693D01*
X40362298Y-174440693D02*
X39537298Y-174440693D01*
X39537298Y-172840693D02*
X40362298Y-172840693D01*
X40362298Y-172840693D02*
X40362298Y-174440693D01*
%TO.C,R11*%
X38328992Y-172786400D02*
X36728992Y-172786400D01*
X38328992Y-171961400D02*
X38328992Y-172786400D01*
X36728992Y-172786400D02*
X36728992Y-171961400D01*
X36728992Y-171961400D02*
X38328992Y-171961400D01*
%TO.C,H2*%
X19298613Y-173979091D02*
G75*
G03*
X19298613Y-173979091I-1150000J0D01*
G01*
%TO.C,J1*%
X33376719Y-146117849D02*
X34244145Y-146350275D01*
X29527236Y-148340349D02*
X33376719Y-146117849D01*
X34244145Y-146350275D02*
X35196645Y-148000053D01*
X35196645Y-148000053D02*
X30797236Y-150540053D01*
X30797236Y-150540053D02*
X29527236Y-148340349D01*
%TO.C,SW1*%
X42586576Y-149206906D02*
X41220550Y-148840880D01*
X47505600Y-146366906D02*
X42586576Y-149206906D01*
X41220550Y-148840880D02*
X39020550Y-145030368D01*
X41766886Y-147717162D02*
X42459707Y-147317162D01*
X41853489Y-147667162D02*
X41520155Y-147089812D01*
X41940092Y-147617162D02*
X41606758Y-147039812D01*
X42026694Y-147567162D02*
X41693361Y-146989812D01*
X42113297Y-147517162D02*
X41779963Y-146939812D01*
X42199899Y-147467162D02*
X41866566Y-146889812D01*
X42286502Y-147417162D02*
X41953168Y-146839812D01*
X42373104Y-147367162D02*
X42039771Y-146789812D01*
X42459707Y-147317162D02*
X41459707Y-145585112D01*
X42866739Y-147082162D02*
X43559559Y-146682162D01*
X42953341Y-147032162D02*
X42620008Y-146454812D01*
X43039944Y-146982162D02*
X42706610Y-146404812D01*
X43126546Y-146932162D02*
X42793213Y-146354812D01*
X43213149Y-146882162D02*
X42879815Y-146304812D01*
X43299751Y-146832162D02*
X42966418Y-146254812D01*
X43386354Y-146782162D02*
X43053020Y-146204812D01*
X43472956Y-146732162D02*
X43139623Y-146154812D01*
X43559559Y-146682162D02*
X42559559Y-144950112D01*
X43966591Y-146447162D02*
X44659411Y-146047162D01*
X44053194Y-146397162D02*
X43719860Y-145819812D01*
X44139796Y-146347162D02*
X43806463Y-145769812D01*
X44226399Y-146297162D02*
X43893065Y-145719812D01*
X44313001Y-146247162D02*
X43979668Y-145669812D01*
X44399604Y-146197162D02*
X44066270Y-145619812D01*
X44486206Y-146147162D02*
X44152873Y-145569812D01*
X44572809Y-146097162D02*
X44239475Y-145519812D01*
X44659411Y-146047162D02*
X43659411Y-144315112D01*
X45066443Y-145812162D02*
X45759264Y-145412162D01*
X45153046Y-145762162D02*
X44819712Y-145184812D01*
X45239648Y-145712162D02*
X44906315Y-145134812D01*
X45326251Y-145662162D02*
X44992917Y-145084812D01*
X45412853Y-145612162D02*
X45079520Y-145034812D01*
X45499456Y-145562162D02*
X45166122Y-144984812D01*
X45586058Y-145512162D02*
X45252725Y-144934812D01*
X45672661Y-145462162D02*
X45339328Y-144884812D01*
X45759264Y-145412162D02*
X44759264Y-143680112D01*
X41433553Y-147139812D02*
X42126373Y-146739812D01*
X42533405Y-146504812D02*
X43226226Y-146104812D01*
X43633257Y-145869812D02*
X44326078Y-145469812D01*
X44733110Y-145234812D02*
X45425930Y-144834812D01*
X40766886Y-145985112D02*
X41766886Y-147717162D01*
X41459707Y-145585112D02*
X40766886Y-145985112D01*
X41866739Y-145350112D02*
X42866739Y-147082162D01*
X42559559Y-144950112D02*
X41866739Y-145350112D01*
X42966591Y-144715112D02*
X43966591Y-146447162D01*
X43659411Y-144315112D02*
X42966591Y-144715112D01*
X44066443Y-144080112D02*
X45066443Y-145812162D01*
X44759264Y-143680112D02*
X44066443Y-144080112D01*
X39020550Y-145030368D02*
X44805600Y-141690368D01*
X44805600Y-141690368D02*
X47505600Y-146366906D01*
%TO.C,C8*%
X24663355Y-190307494D02*
X26208836Y-189893383D01*
X24870410Y-191080235D02*
X24663355Y-190307494D01*
X26208836Y-189893383D02*
X26415891Y-190666124D01*
X26415891Y-190666124D02*
X24870410Y-191080235D01*
%TO.C,R7*%
X38766437Y-146206836D02*
X39566437Y-147592476D01*
X38051967Y-146619336D02*
X38766437Y-146206836D01*
X39566437Y-147592476D02*
X38851967Y-148004976D01*
X38851967Y-148004976D02*
X38051967Y-146619336D01*
%TO.C,R8*%
X36993322Y-144981294D02*
X35607682Y-145781294D01*
X36580822Y-144266824D02*
X36993322Y-144981294D01*
X35607682Y-145781294D02*
X35195182Y-145066824D01*
X35195182Y-145066824D02*
X36580822Y-144266824D01*
%TO.C,Q2*%
X33000714Y-174168693D02*
X33400714Y-173768693D01*
X33000714Y-176668693D02*
X33000714Y-174168693D01*
X33400714Y-173768693D02*
X34600714Y-173768693D01*
X34600714Y-173768693D02*
X34600714Y-176668693D01*
X34600714Y-176668693D02*
X33000714Y-176668693D01*
%TO.C,C13*%
X31716396Y-169536389D02*
X30585025Y-168405018D01*
X32282081Y-168970704D02*
X31716396Y-169536389D01*
X30585025Y-168405018D02*
X31150710Y-167839333D01*
X31150710Y-167839333D02*
X32282081Y-168970704D01*
%TO.C,R12*%
X38381691Y-177206011D02*
X36781691Y-177206011D01*
X38381691Y-176381011D02*
X38381691Y-177206011D01*
X36781691Y-177206011D02*
X36781691Y-176381011D01*
X36781691Y-176381011D02*
X38381691Y-176381011D01*
%TO.C,R13*%
X36779813Y-178217487D02*
X36779813Y-178717487D01*
X36779813Y-178717487D02*
X38379813Y-178717487D01*
X37079813Y-177917487D02*
X36779813Y-178217487D01*
X38379813Y-177917487D02*
X37079813Y-177917487D01*
X38379813Y-178717487D02*
X38379813Y-177917487D01*
%TO.C,VR1*%
X21564211Y-173157492D02*
X23814211Y-173157492D01*
X23814211Y-173157492D02*
X23814211Y-169357492D01*
X20814211Y-172407492D02*
X21564211Y-173157492D01*
X20814211Y-169357492D02*
X20814211Y-172407492D01*
X23814211Y-169357492D02*
X20814211Y-169357492D01*
X23814211Y-171157492D02*
G75*
G03*
X23814211Y-171157492I-1500000J0D01*
G01*
%TO.C,C2*%
X47182119Y-163649625D02*
X45796479Y-162849625D01*
X47582119Y-162956805D02*
X47182119Y-163649625D01*
X45796479Y-162849625D02*
X46196479Y-162156805D01*
X46196479Y-162156805D02*
X47582119Y-162956805D01*
%TO.C,H4*%
X19298607Y-170677104D02*
G75*
G03*
X19298607Y-170677104I-1150000J0D01*
G01*
%TO.C,R15*%
X32817411Y-172266196D02*
X34417411Y-172266196D01*
X32817411Y-173091196D02*
X32817411Y-172266196D01*
X34417411Y-172266196D02*
X34417411Y-173091196D01*
X34417411Y-173091196D02*
X32817411Y-173091196D01*
%TO.C,H5*%
X19268597Y-187187097D02*
G75*
G03*
X19268597Y-187187097I-1150000J0D01*
G01*
%TO.C,H3*%
X19298617Y-177281105D02*
G75*
G03*
X19298617Y-177281105I-1150000J0D01*
G01*
%TO.C,R6*%
X48216198Y-144400577D02*
X49016198Y-145786217D01*
X47501728Y-144813077D02*
X48216198Y-144400577D01*
X49016198Y-145786217D02*
X48301728Y-146198717D01*
X48301728Y-146198717D02*
X47501728Y-144813077D01*
%TO.C,C11*%
X26893104Y-172905899D02*
X25293104Y-172905899D01*
X26893104Y-172105899D02*
X26893104Y-172905899D01*
X25293104Y-172905899D02*
X25293104Y-172105899D01*
X25293104Y-172105899D02*
X26893104Y-172105899D01*
%TO.C,U4*%
X41022924Y-183572021D02*
X41560325Y-184109422D01*
X42635127Y-184109422D02*
X41560325Y-184109422D01*
X44388752Y-182355797D02*
X42635127Y-184109422D01*
X44388752Y-182355797D02*
X42635127Y-184109422D01*
X43851351Y-180743593D02*
X41022924Y-183572021D01*
X43851351Y-180743593D02*
X44388752Y-181280995D01*
X44388752Y-181280995D02*
X44388752Y-182355797D01*
%TO.C,R16*%
X31286707Y-172742294D02*
X31286707Y-174342294D01*
X30461707Y-172742294D02*
X31286707Y-172742294D01*
X31286707Y-174342294D02*
X30461707Y-174342294D01*
X30461707Y-174342294D02*
X30461707Y-172742294D01*
%TO.C,R25*%
X32753666Y-150476838D02*
X34139306Y-149676838D01*
X33166166Y-151191308D02*
X32753666Y-150476838D01*
X34139306Y-149676838D02*
X34551806Y-150391308D01*
X34551806Y-150391308D02*
X33166166Y-151191308D01*
%TO.C,C18*%
X23787909Y-187456509D02*
X21787909Y-187456509D01*
X23787909Y-186206509D02*
X23787909Y-187456509D01*
X21787909Y-187456509D02*
X21787909Y-186206509D01*
X21787909Y-186206509D02*
X23787909Y-186206509D01*
%TO.C,L1*%
X29340647Y-164526522D02*
X33583288Y-168769163D01*
X29340647Y-164526522D02*
X33583288Y-160283881D01*
X33583288Y-168769163D02*
X37825929Y-164526522D01*
X37825929Y-164526522D02*
X33583288Y-160283881D01*
%TO.C,S1*%
X47490998Y-165653797D02*
X47057986Y-165403797D01*
X47057986Y-165403797D02*
X46557986Y-166269822D01*
X44286704Y-163803797D02*
X43786704Y-164669822D01*
X43853692Y-163553797D02*
X44286704Y-163803797D01*
X47240998Y-166086809D02*
X46807986Y-165836809D01*
X43603692Y-163986809D02*
X44036704Y-164236809D01*
X46411575Y-165723412D02*
X44333115Y-164523412D01*
X44333115Y-164523412D02*
X42420679Y-165035848D01*
X45938370Y-166143027D02*
X46304396Y-167509053D01*
X44206320Y-165143027D02*
X45938370Y-166143027D01*
X46740998Y-166952835D02*
X47490998Y-165653797D01*
X43103692Y-164852835D02*
X43853692Y-163553797D01*
X46924011Y-167635848D02*
X46411575Y-165723412D01*
X42420679Y-165035848D02*
X41220679Y-167114308D01*
X46304396Y-167509053D02*
X45304396Y-169241103D01*
X42840294Y-165509053D02*
X44206320Y-165143027D01*
X45304396Y-169241103D02*
X43938370Y-169607129D01*
X41840294Y-167241103D02*
X42840294Y-165509053D01*
X45724011Y-169714308D02*
X46924011Y-167635848D01*
X41220679Y-167114308D02*
X41733115Y-169026744D01*
X45040998Y-169897321D02*
X44290998Y-171196359D01*
X41403692Y-167797321D02*
X40653692Y-169096359D01*
X43938370Y-169607129D02*
X42206320Y-168607129D01*
X42206320Y-168607129D02*
X41840294Y-167241103D01*
X43811575Y-170226744D02*
X45724011Y-169714308D01*
X41733115Y-169026744D02*
X43811575Y-170226744D01*
X44540998Y-170763347D02*
X44107986Y-170513347D01*
X40903692Y-168663347D02*
X41336704Y-168913347D01*
X44290998Y-171196359D02*
X43857986Y-170946359D01*
X43857986Y-170946359D02*
X44357986Y-170080334D01*
X41086704Y-169346359D02*
X41586704Y-168480334D01*
X40653692Y-169096359D02*
X41086704Y-169346359D01*
X45072345Y-167375078D02*
G75*
G03*
X45072345Y-167375078I-1000000J0D01*
G01*
%TO.C,L2*%
X27413835Y-156687388D02*
X31656476Y-160930029D01*
X27413835Y-156687388D02*
X31656476Y-152444747D01*
X31656476Y-160930029D02*
X35899117Y-156687388D01*
X35899117Y-156687388D02*
X31656476Y-152444747D01*
%TO.C,J3*%
X54912826Y-160390108D02*
X54277826Y-161025108D01*
X54912826Y-148325108D02*
X54912826Y-160390108D01*
X54277826Y-161025108D02*
X52372826Y-161025108D01*
X52372826Y-161025108D02*
X52372826Y-148325108D01*
X52372826Y-148325108D02*
X54912826Y-148325108D01*
%TO.C,R5*%
X49536044Y-143638580D02*
X50336044Y-145024220D01*
X48821574Y-144051080D02*
X49536044Y-143638580D01*
X50336044Y-145024220D02*
X49621574Y-145436720D01*
X49621574Y-145436720D02*
X48821574Y-144051080D01*
%TO.C,H6*%
X19298593Y-183885098D02*
G75*
G03*
X19298593Y-183885098I-1150000J0D01*
G01*
%TO.C,Q1*%
X32938914Y-177658700D02*
X33338914Y-177258700D01*
X32938914Y-180158700D02*
X32938914Y-177658700D01*
X33338914Y-177258700D02*
X34538914Y-177258700D01*
X34538914Y-177258700D02*
X34538914Y-180158700D01*
X34538914Y-180158700D02*
X32938914Y-180158700D01*
%TO.C,F1*%
X26168327Y-165313861D02*
X24754113Y-166728075D01*
X25284443Y-164429977D02*
X26168327Y-165313861D01*
X24754113Y-166728075D02*
X23870229Y-165844191D01*
X23870229Y-165844191D02*
X25284443Y-164429977D01*
%TO.C,R18*%
X38329002Y-180355600D02*
X36729002Y-180355600D01*
X38329002Y-179530600D02*
X38329002Y-180355600D01*
X36729002Y-180355600D02*
X36729002Y-179530600D01*
X36729002Y-179530600D02*
X38329002Y-179530600D01*
%TO.C,J4*%
X49860752Y-168754693D02*
X50728178Y-168522267D01*
X43828252Y-179203289D02*
X49860752Y-168754693D01*
X50728178Y-168522267D02*
X52377956Y-169474767D01*
X52377956Y-169474767D02*
X46027956Y-180473289D01*
X46027956Y-180473289D02*
X43828252Y-179203289D01*
%TO.C,J5*%
X24050251Y-164048515D02*
X23152225Y-164048515D01*
X27193340Y-160905426D02*
X24050251Y-164048515D01*
X23152225Y-164048515D02*
X21805187Y-162701477D01*
X21805187Y-162701477D02*
X25397289Y-159109375D01*
X25397289Y-159109375D02*
X27193340Y-160905426D01*
%TO.C,U5*%
X36869221Y-173958303D02*
X36869221Y-175658303D01*
X37369221Y-173458303D02*
X36869221Y-173958303D01*
X38219221Y-173458303D02*
X37369221Y-173458303D01*
X38219221Y-173458303D02*
X38219221Y-175658303D01*
X38219221Y-175658303D02*
X36869221Y-175658303D01*
%TO.C,U2*%
X23915456Y-192148488D02*
X24112158Y-192882592D01*
X25042964Y-193419993D02*
X24112158Y-192882592D01*
X27438460Y-192778122D02*
X25042964Y-193419993D01*
X27438460Y-192778122D02*
X25042964Y-193419993D01*
X27779159Y-191113212D02*
X23915456Y-192148488D01*
X27779159Y-191113212D02*
X27975862Y-191847316D01*
X27975862Y-191847316D02*
X27438460Y-192778122D01*
%TO.C,C20*%
X34703011Y-159055659D02*
X36117225Y-157641445D01*
X35586895Y-159939543D02*
X34703011Y-159055659D01*
X36117225Y-157641445D02*
X37001109Y-158525329D01*
X37001109Y-158525329D02*
X35586895Y-159939543D01*
%TO.C,J2*%
X30395384Y-191550840D02*
X29527958Y-191318414D01*
X40843980Y-185518340D02*
X30395384Y-191550840D01*
X29527958Y-191318414D02*
X28575458Y-189668636D01*
X28575458Y-189668636D02*
X39573980Y-183318636D01*
X39573980Y-183318636D02*
X40843980Y-185518340D01*
%TO.C,H1*%
X19298596Y-180583103D02*
G75*
G03*
X19298596Y-180583103I-1150000J0D01*
G01*
%TD*%
%TO.C,JP3*%
X27524588Y-173737102D02*
X28024588Y-173737102D01*
X28024588Y-173742191D01*
X28095745Y-173742191D01*
X28232296Y-173782286D01*
X28352018Y-173859227D01*
X28445215Y-173966782D01*
X28504334Y-174096236D01*
X28524588Y-174237102D01*
X28524588Y-174737102D01*
X28504334Y-174877968D01*
X28445215Y-175007422D01*
X28352018Y-175114977D01*
X28232296Y-175191918D01*
X28095745Y-175232013D01*
X28024588Y-175232013D01*
X28024588Y-175237102D01*
X27524588Y-175237102D01*
X27524588Y-173737102D01*
X26724588Y-175232013D02*
X26653431Y-175232013D01*
X26516880Y-175191918D01*
X26397158Y-175114977D01*
X26303961Y-175007422D01*
X26244842Y-174877968D01*
X26224588Y-174737102D01*
X26224588Y-174237102D01*
X26244842Y-174096236D01*
X26303961Y-173966782D01*
X26397158Y-173859227D01*
X26516880Y-173782286D01*
X26653431Y-173742191D01*
X26724588Y-173742191D01*
X26724588Y-173737102D01*
X27224588Y-173737102D01*
X27224588Y-175237102D01*
X26724588Y-175237102D01*
X26724588Y-175232013D01*
%TD*%
D11*
%TO.C,C10*%
D10*
X40477450Y-182106188D02*
X40425967Y-182029137D01*
X40407888Y-181938250D01*
X40425967Y-181847363D01*
X40477450Y-181770312D01*
X40901714Y-181346048D01*
X40978765Y-181294565D01*
X41069652Y-181276486D01*
X41160539Y-181294565D01*
X41237590Y-181346048D01*
X41573466Y-181681924D01*
X41624949Y-181758975D01*
X41643028Y-181849862D01*
X41624949Y-181940749D01*
X41573466Y-182017800D01*
X41149202Y-182442064D01*
X41072151Y-182493547D01*
X40981264Y-182511626D01*
X40890377Y-182493547D01*
X40813326Y-182442064D01*
X40477450Y-182106188D01*
D11*
D10*
X41697210Y-180886428D02*
X41645727Y-180809377D01*
X41627648Y-180718490D01*
X41645727Y-180627603D01*
X41697210Y-180550552D01*
X42121474Y-180126288D01*
X42198525Y-180074805D01*
X42289412Y-180056726D01*
X42380299Y-180074805D01*
X42457350Y-180126288D01*
X42793226Y-180462164D01*
X42844709Y-180539215D01*
X42862788Y-180630102D01*
X42844709Y-180720989D01*
X42793226Y-180798040D01*
X42368962Y-181222304D01*
X42291911Y-181273787D01*
X42201024Y-181291866D01*
X42110137Y-181273787D01*
X42033086Y-181222304D01*
X41697210Y-180886428D01*
%TD*%
D11*
%TO.C,R9*%
D10*
X39712298Y-175040693D02*
X39621411Y-175022614D01*
X39544360Y-174971131D01*
X39492877Y-174894080D01*
X39474798Y-174803193D01*
X39474798Y-174303193D01*
X39492877Y-174212306D01*
X39544360Y-174135255D01*
X39621411Y-174083772D01*
X39712298Y-174065693D01*
X40187298Y-174065693D01*
X40278185Y-174083772D01*
X40355236Y-174135255D01*
X40406719Y-174212306D01*
X40424798Y-174303193D01*
X40424798Y-174803193D01*
X40406719Y-174894080D01*
X40355236Y-174971131D01*
X40278185Y-175022614D01*
X40187298Y-175040693D01*
X39712298Y-175040693D01*
D11*
D10*
X39712298Y-173215693D02*
X39621411Y-173197614D01*
X39544360Y-173146131D01*
X39492877Y-173069080D01*
X39474798Y-172978193D01*
X39474798Y-172478193D01*
X39492877Y-172387306D01*
X39544360Y-172310255D01*
X39621411Y-172258772D01*
X39712298Y-172240693D01*
X40187298Y-172240693D01*
X40278185Y-172258772D01*
X40355236Y-172310255D01*
X40406719Y-172387306D01*
X40424798Y-172478193D01*
X40424798Y-172978193D01*
X40406719Y-173069080D01*
X40355236Y-173146131D01*
X40278185Y-173197614D01*
X40187298Y-173215693D01*
X39712298Y-173215693D01*
%TD*%
D11*
%TO.C,R11*%
D10*
X38928992Y-172611400D02*
X38910913Y-172702287D01*
X38859430Y-172779338D01*
X38782379Y-172830821D01*
X38691492Y-172848900D01*
X38191492Y-172848900D01*
X38100605Y-172830821D01*
X38023554Y-172779338D01*
X37972071Y-172702287D01*
X37953992Y-172611400D01*
X37953992Y-172136400D01*
X37972071Y-172045513D01*
X38023554Y-171968462D01*
X38100605Y-171916979D01*
X38191492Y-171898900D01*
X38691492Y-171898900D01*
X38782379Y-171916979D01*
X38859430Y-171968462D01*
X38910913Y-172045513D01*
X38928992Y-172136400D01*
X38928992Y-172611400D01*
D11*
D10*
X37103992Y-172611400D02*
X37085913Y-172702287D01*
X37034430Y-172779338D01*
X36957379Y-172830821D01*
X36866492Y-172848900D01*
X36366492Y-172848900D01*
X36275605Y-172830821D01*
X36198554Y-172779338D01*
X36147071Y-172702287D01*
X36128992Y-172611400D01*
X36128992Y-172136400D01*
X36147071Y-172045513D01*
X36198554Y-171968462D01*
X36275605Y-171916979D01*
X36366492Y-171898900D01*
X36866492Y-171898900D01*
X36957379Y-171916979D01*
X37034430Y-171968462D01*
X37085913Y-172045513D01*
X37103992Y-172136400D01*
X37103992Y-172611400D01*
%TD*%
D11*
%TO.C,H2*%
D10*
X19298613Y-174879090D02*
X19279583Y-174974761D01*
X19225389Y-175055867D01*
X19144283Y-175110061D01*
X19048611Y-175129090D01*
X17248614Y-175129091D01*
X17152943Y-175110061D01*
X17071837Y-175055867D01*
X17017643Y-174974761D01*
X16998614Y-174879089D01*
X16998613Y-173079092D01*
X17017643Y-172983421D01*
X17071837Y-172902315D01*
X17152943Y-172848121D01*
X17248615Y-172829092D01*
X19048612Y-172829091D01*
X19144283Y-172848121D01*
X19225389Y-172902315D01*
X19279583Y-172983421D01*
X19298612Y-173079093D01*
X19298613Y-174879090D01*
%TD*%
%TO.C,J1*%
X32300671Y-147224079D02*
X33772915Y-146374079D01*
X34622915Y-147846323D01*
X33150671Y-148696323D01*
X32300671Y-147224079D01*
X30837088Y-148069079D02*
X30837088Y-148069079D01*
X30837088Y-148069079D02*
G75*
G03*
X31687088Y-149541323I425000J-736122D01*
G01*
X31687088Y-149541323D02*
X31687088Y-149541323D01*
X31687088Y-149541323D02*
G75*
G03*
X30837088Y-148069079I-425000J736122D01*
G01*
%TD*%
%TO.C,SW1*%
X44164887Y-150310620D02*
X43506707Y-150690620D01*
X42871707Y-149590768D01*
X43529887Y-149210768D01*
X44164887Y-150310620D01*
X45264739Y-149675620D02*
X44606559Y-150055620D01*
X43971559Y-148955768D01*
X44629739Y-148575768D01*
X45264739Y-149675620D01*
X46364591Y-149040620D02*
X45706411Y-149420620D01*
X45071411Y-148320768D01*
X45729591Y-147940768D01*
X46364591Y-149040620D01*
X47464443Y-148405620D02*
X46806263Y-148785620D01*
X46171263Y-147685768D01*
X46829443Y-147305768D01*
X47464443Y-148405620D01*
X43654443Y-141806506D02*
X42996263Y-142186506D01*
X42361263Y-141086654D01*
X43019443Y-140706654D01*
X43654443Y-141806506D01*
X42554591Y-142441506D02*
X41896411Y-142821506D01*
X41261411Y-141721654D01*
X41919591Y-141341654D01*
X42554591Y-142441506D01*
X41454739Y-143076506D02*
X40796559Y-143456506D01*
X40161559Y-142356654D01*
X40819739Y-141976654D01*
X41454739Y-143076506D01*
X40354887Y-143711506D02*
X39696707Y-144091506D01*
X39061707Y-142991654D01*
X39719887Y-142611654D01*
X40354887Y-143711506D01*
%TD*%
D11*
%TO.C,C8*%
D10*
X24125857Y-190619748D02*
X24119797Y-190527279D01*
X24149584Y-190439528D01*
X24210684Y-190369857D01*
X24293795Y-190328871D01*
X24873351Y-190173580D01*
X24965820Y-190167519D01*
X25053570Y-190197306D01*
X25123241Y-190258406D01*
X25164228Y-190341517D01*
X25287167Y-190800332D01*
X25293227Y-190892801D01*
X25263440Y-190980552D01*
X25202340Y-191050223D01*
X25119229Y-191091209D01*
X24539673Y-191246500D01*
X24447204Y-191252561D01*
X24359454Y-191222774D01*
X24289783Y-191161674D01*
X24248796Y-191078563D01*
X24125857Y-190619748D01*
D11*
D10*
X25792079Y-190173286D02*
X25786019Y-190080817D01*
X25815806Y-189993066D01*
X25876906Y-189923395D01*
X25960017Y-189882409D01*
X26539573Y-189727118D01*
X26632042Y-189721057D01*
X26719792Y-189750844D01*
X26789463Y-189811944D01*
X26830450Y-189895055D01*
X26953389Y-190353870D01*
X26959449Y-190446339D01*
X26929662Y-190534090D01*
X26868562Y-190603761D01*
X26785451Y-190644747D01*
X26205895Y-190800038D01*
X26113426Y-190806099D01*
X26025676Y-190776312D01*
X25956005Y-190715212D01*
X25915018Y-190632101D01*
X25792079Y-190173286D01*
%TD*%
D11*
%TO.C,R7*%
D10*
X38314883Y-145774721D02*
X38402633Y-145744934D01*
X38495103Y-145750994D01*
X38578214Y-145791981D01*
X38639314Y-145861652D01*
X38889314Y-146294664D01*
X38919101Y-146382414D01*
X38913041Y-146474884D01*
X38872054Y-146557995D01*
X38802383Y-146619095D01*
X38391021Y-146856595D01*
X38303271Y-146886382D01*
X38210801Y-146880322D01*
X38127690Y-146839335D01*
X38066590Y-146769664D01*
X37816590Y-146336652D01*
X37786803Y-146248902D01*
X37792863Y-146156432D01*
X37833850Y-146073321D01*
X37903521Y-146012221D01*
X38314883Y-145774721D01*
D11*
D10*
X39227383Y-147355217D02*
X39315133Y-147325430D01*
X39407603Y-147331490D01*
X39490714Y-147372477D01*
X39551814Y-147442148D01*
X39801814Y-147875160D01*
X39831601Y-147962910D01*
X39825541Y-148055380D01*
X39784554Y-148138491D01*
X39714883Y-148199591D01*
X39303521Y-148437091D01*
X39215771Y-148466878D01*
X39123301Y-148460818D01*
X39040190Y-148419831D01*
X38979090Y-148350160D01*
X38729090Y-147917148D01*
X38699303Y-147829398D01*
X38705363Y-147736928D01*
X38746350Y-147653817D01*
X38816021Y-147592717D01*
X39227383Y-147355217D01*
%TD*%
D11*
%TO.C,R8*%
D10*
X37425437Y-144529740D02*
X37455224Y-144617490D01*
X37449164Y-144709960D01*
X37408177Y-144793071D01*
X37338506Y-144854171D01*
X36905494Y-145104171D01*
X36817744Y-145133958D01*
X36725274Y-145127898D01*
X36642163Y-145086911D01*
X36581063Y-145017240D01*
X36343563Y-144605878D01*
X36313776Y-144518128D01*
X36319836Y-144425658D01*
X36360823Y-144342547D01*
X36430494Y-144281447D01*
X36863506Y-144031447D01*
X36951256Y-144001660D01*
X37043726Y-144007720D01*
X37126837Y-144048707D01*
X37187937Y-144118378D01*
X37425437Y-144529740D01*
D11*
D10*
X35844941Y-145442240D02*
X35874728Y-145529990D01*
X35868668Y-145622460D01*
X35827681Y-145705571D01*
X35758010Y-145766671D01*
X35324998Y-146016671D01*
X35237248Y-146046458D01*
X35144778Y-146040398D01*
X35061667Y-145999411D01*
X35000567Y-145929740D01*
X34763067Y-145518378D01*
X34733280Y-145430628D01*
X34739340Y-145338158D01*
X34780327Y-145255047D01*
X34849998Y-145193947D01*
X35283010Y-144943947D01*
X35370760Y-144914160D01*
X35463230Y-144920220D01*
X35546341Y-144961207D01*
X35607441Y-145030878D01*
X35844941Y-145442240D01*
%TD*%
D11*
%TO.C,Q2*%
D10*
X32000714Y-174118693D02*
X32012132Y-174061290D01*
X32044648Y-174012627D01*
X32093311Y-173980111D01*
X32150714Y-173968693D01*
X33175714Y-173968693D01*
X33233117Y-173980111D01*
X33281780Y-174012627D01*
X33314296Y-174061290D01*
X33325714Y-174118693D01*
X33325714Y-174418693D01*
X33314296Y-174476096D01*
X33281780Y-174524759D01*
X33233117Y-174557275D01*
X33175714Y-174568693D01*
X32150714Y-174568693D01*
X32093311Y-174557275D01*
X32044648Y-174524759D01*
X32012132Y-174476096D01*
X32000714Y-174418693D01*
X32000714Y-174118693D01*
D11*
D10*
X32000714Y-176018693D02*
X32012132Y-175961290D01*
X32044648Y-175912627D01*
X32093311Y-175880111D01*
X32150714Y-175868693D01*
X33175714Y-175868693D01*
X33233117Y-175880111D01*
X33281780Y-175912627D01*
X33314296Y-175961290D01*
X33325714Y-176018693D01*
X33325714Y-176318693D01*
X33314296Y-176376096D01*
X33281780Y-176424759D01*
X33233117Y-176457275D01*
X33175714Y-176468693D01*
X32150714Y-176468693D01*
X32093311Y-176457275D01*
X32044648Y-176424759D01*
X32012132Y-176376096D01*
X32000714Y-176318693D01*
X32000714Y-176018693D01*
D11*
D10*
X34275714Y-175068693D02*
X34287132Y-175011290D01*
X34319648Y-174962627D01*
X34368311Y-174930111D01*
X34425714Y-174918693D01*
X35450714Y-174918693D01*
X35508117Y-174930111D01*
X35556780Y-174962627D01*
X35589296Y-175011290D01*
X35600714Y-175068693D01*
X35600714Y-175368693D01*
X35589296Y-175426096D01*
X35556780Y-175474759D01*
X35508117Y-175507275D01*
X35450714Y-175518693D01*
X34425714Y-175518693D01*
X34368311Y-175507275D01*
X34319648Y-175474759D01*
X34287132Y-175426096D01*
X34275714Y-175368693D01*
X34275714Y-175068693D01*
%TD*%
D11*
%TO.C,C13*%
D10*
X32255565Y-169845749D02*
X32178514Y-169897232D01*
X32087627Y-169915311D01*
X31996740Y-169897232D01*
X31919689Y-169845749D01*
X31495425Y-169421485D01*
X31443942Y-169344434D01*
X31425863Y-169253547D01*
X31443942Y-169162660D01*
X31495425Y-169085609D01*
X31831301Y-168749733D01*
X31908352Y-168698250D01*
X31999239Y-168680171D01*
X32090126Y-168698250D01*
X32167177Y-168749733D01*
X32591441Y-169173997D01*
X32642924Y-169251048D01*
X32661003Y-169341935D01*
X32642924Y-169432822D01*
X32591441Y-169509873D01*
X32255565Y-169845749D01*
D11*
D10*
X31035805Y-168625989D02*
X30958754Y-168677472D01*
X30867867Y-168695551D01*
X30776980Y-168677472D01*
X30699929Y-168625989D01*
X30275665Y-168201725D01*
X30224182Y-168124674D01*
X30206103Y-168033787D01*
X30224182Y-167942900D01*
X30275665Y-167865849D01*
X30611541Y-167529973D01*
X30688592Y-167478490D01*
X30779479Y-167460411D01*
X30870366Y-167478490D01*
X30947417Y-167529973D01*
X31371681Y-167954237D01*
X31423164Y-168031288D01*
X31441243Y-168122175D01*
X31423164Y-168213062D01*
X31371681Y-168290113D01*
X31035805Y-168625989D01*
%TD*%
D11*
%TO.C,R12*%
D10*
X38981691Y-177031011D02*
X38963612Y-177121898D01*
X38912129Y-177198949D01*
X38835078Y-177250432D01*
X38744191Y-177268511D01*
X38244191Y-177268511D01*
X38153304Y-177250432D01*
X38076253Y-177198949D01*
X38024770Y-177121898D01*
X38006691Y-177031011D01*
X38006691Y-176556011D01*
X38024770Y-176465124D01*
X38076253Y-176388073D01*
X38153304Y-176336590D01*
X38244191Y-176318511D01*
X38744191Y-176318511D01*
X38835078Y-176336590D01*
X38912129Y-176388073D01*
X38963612Y-176465124D01*
X38981691Y-176556011D01*
X38981691Y-177031011D01*
D11*
D10*
X37156691Y-177031011D02*
X37138612Y-177121898D01*
X37087129Y-177198949D01*
X37010078Y-177250432D01*
X36919191Y-177268511D01*
X36419191Y-177268511D01*
X36328304Y-177250432D01*
X36251253Y-177198949D01*
X36199770Y-177121898D01*
X36181691Y-177031011D01*
X36181691Y-176556011D01*
X36199770Y-176465124D01*
X36251253Y-176388073D01*
X36328304Y-176336590D01*
X36419191Y-176318511D01*
X36919191Y-176318511D01*
X37010078Y-176336590D01*
X37087129Y-176388073D01*
X37138612Y-176465124D01*
X37156691Y-176556011D01*
X37156691Y-177031011D01*
%TD*%
D11*
%TO.C,R13*%
D10*
X36179813Y-178079987D02*
X36197892Y-177989100D01*
X36249375Y-177912049D01*
X36326426Y-177860566D01*
X36417313Y-177842487D01*
X36992313Y-177842487D01*
X37083200Y-177860566D01*
X37160251Y-177912049D01*
X37211734Y-177989100D01*
X37229813Y-178079987D01*
X37229813Y-178554987D01*
X37211734Y-178645874D01*
X37160251Y-178722925D01*
X37083200Y-178774408D01*
X36992313Y-178792487D01*
X36417313Y-178792487D01*
X36326426Y-178774408D01*
X36249375Y-178722925D01*
X36197892Y-178645874D01*
X36179813Y-178554987D01*
X36179813Y-178079987D01*
D11*
D10*
X37929813Y-178079987D02*
X37947892Y-177989100D01*
X37999375Y-177912049D01*
X38076426Y-177860566D01*
X38167313Y-177842487D01*
X38742313Y-177842487D01*
X38833200Y-177860566D01*
X38910251Y-177912049D01*
X38961734Y-177989100D01*
X38979813Y-178079987D01*
X38979813Y-178554987D01*
X38961734Y-178645874D01*
X38910251Y-178722925D01*
X38833200Y-178774408D01*
X38742313Y-178792487D01*
X38167313Y-178792487D01*
X38076426Y-178774408D01*
X37999375Y-178722925D01*
X37947892Y-178645874D01*
X37929813Y-178554987D01*
X37929813Y-178079987D01*
%TD*%
%TO.C,VR1*%
X20714211Y-172357492D02*
X20714211Y-173557492D01*
X21914211Y-173557492D01*
X21914211Y-172357492D01*
X20714211Y-172357492D01*
X21514211Y-168957492D02*
X21514211Y-170457492D01*
X23114211Y-170457492D01*
X23114211Y-168957492D01*
X21514211Y-168957492D01*
X22714211Y-172357492D02*
X22714211Y-173557492D01*
X23914211Y-173557492D01*
X23914211Y-172357492D01*
X22714211Y-172357492D01*
%TD*%
%TO.C,TP2*%
X37794159Y-168712087D02*
G75*
G03*
X37794159Y-168712087I-750000J0D01*
G01*
%TD*%
D11*
%TO.C,C2*%
D10*
X47782985Y-163808896D02*
X47721884Y-163878567D01*
X47638773Y-163919554D01*
X47546304Y-163925614D01*
X47458554Y-163895827D01*
X46938938Y-163595827D01*
X46869267Y-163534727D01*
X46828281Y-163451616D01*
X46822221Y-163359146D01*
X46852007Y-163271396D01*
X47089507Y-162860034D01*
X47150608Y-162790363D01*
X47233719Y-162749376D01*
X47326188Y-162743316D01*
X47413938Y-162773103D01*
X47933554Y-163073103D01*
X48003225Y-163134203D01*
X48044211Y-163217314D01*
X48050271Y-163309784D01*
X48020485Y-163397534D01*
X47782985Y-163808896D01*
D11*
D10*
X46289091Y-162946396D02*
X46227990Y-163016067D01*
X46144879Y-163057054D01*
X46052410Y-163063114D01*
X45964660Y-163033327D01*
X45445044Y-162733327D01*
X45375373Y-162672227D01*
X45334387Y-162589116D01*
X45328327Y-162496646D01*
X45358113Y-162408896D01*
X45595613Y-161997534D01*
X45656714Y-161927863D01*
X45739825Y-161886876D01*
X45832294Y-161880816D01*
X45920044Y-161910603D01*
X46439660Y-162210603D01*
X46509331Y-162271703D01*
X46550317Y-162354814D01*
X46556377Y-162447284D01*
X46526591Y-162535034D01*
X46289091Y-162946396D01*
%TD*%
D11*
%TO.C,H4*%
D10*
X19298607Y-171577103D02*
X19279577Y-171672774D01*
X19225383Y-171753880D01*
X19144277Y-171808074D01*
X19048605Y-171827103D01*
X17248608Y-171827104D01*
X17152937Y-171808074D01*
X17071831Y-171753880D01*
X17017637Y-171672774D01*
X16998608Y-171577102D01*
X16998607Y-169777105D01*
X17017637Y-169681434D01*
X17071831Y-169600328D01*
X17152937Y-169546134D01*
X17248609Y-169527105D01*
X19048606Y-169527104D01*
X19144277Y-169546134D01*
X19225383Y-169600328D01*
X19279577Y-169681434D01*
X19298606Y-169777106D01*
X19298607Y-171577103D01*
%TD*%
D11*
%TO.C,R15*%
D10*
X32217411Y-172441196D02*
X32235490Y-172350309D01*
X32286973Y-172273258D01*
X32364024Y-172221775D01*
X32454911Y-172203696D01*
X32954911Y-172203696D01*
X33045798Y-172221775D01*
X33122849Y-172273258D01*
X33174332Y-172350309D01*
X33192411Y-172441196D01*
X33192411Y-172916196D01*
X33174332Y-173007083D01*
X33122849Y-173084134D01*
X33045798Y-173135617D01*
X32954911Y-173153696D01*
X32454911Y-173153696D01*
X32364024Y-173135617D01*
X32286973Y-173084134D01*
X32235490Y-173007083D01*
X32217411Y-172916196D01*
X32217411Y-172441196D01*
D11*
D10*
X34042411Y-172441196D02*
X34060490Y-172350309D01*
X34111973Y-172273258D01*
X34189024Y-172221775D01*
X34279911Y-172203696D01*
X34779911Y-172203696D01*
X34870798Y-172221775D01*
X34947849Y-172273258D01*
X34999332Y-172350309D01*
X35017411Y-172441196D01*
X35017411Y-172916196D01*
X34999332Y-173007083D01*
X34947849Y-173084134D01*
X34870798Y-173135617D01*
X34779911Y-173153696D01*
X34279911Y-173153696D01*
X34189024Y-173135617D01*
X34111973Y-173084134D01*
X34060490Y-173007083D01*
X34042411Y-172916196D01*
X34042411Y-172441196D01*
%TD*%
D11*
%TO.C,H5*%
D10*
X19268597Y-188087096D02*
X19249567Y-188182767D01*
X19195373Y-188263873D01*
X19114267Y-188318067D01*
X19018595Y-188337096D01*
X17218598Y-188337097D01*
X17122927Y-188318067D01*
X17041821Y-188263873D01*
X16987627Y-188182767D01*
X16968598Y-188087095D01*
X16968597Y-186287098D01*
X16987627Y-186191427D01*
X17041821Y-186110321D01*
X17122927Y-186056127D01*
X17218599Y-186037098D01*
X19018596Y-186037097D01*
X19114267Y-186056127D01*
X19195373Y-186110321D01*
X19249567Y-186191427D01*
X19268596Y-186287099D01*
X19268597Y-188087096D01*
%TD*%
D11*
%TO.C,H3*%
D10*
X19298617Y-178181104D02*
X19279587Y-178276775D01*
X19225393Y-178357881D01*
X19144287Y-178412075D01*
X19048615Y-178431104D01*
X17248618Y-178431105D01*
X17152947Y-178412075D01*
X17071841Y-178357881D01*
X17017647Y-178276775D01*
X16998618Y-178181103D01*
X16998617Y-176381106D01*
X17017647Y-176285435D01*
X17071841Y-176204329D01*
X17152947Y-176150135D01*
X17248619Y-176131106D01*
X19048616Y-176131105D01*
X19144287Y-176150135D01*
X19225393Y-176204329D01*
X19279587Y-176285435D01*
X19298616Y-176381107D01*
X19298617Y-178181104D01*
%TD*%
D11*
%TO.C,R6*%
D10*
X47764644Y-143968462D02*
X47852394Y-143938675D01*
X47944864Y-143944735D01*
X48027975Y-143985722D01*
X48089075Y-144055393D01*
X48339075Y-144488405D01*
X48368862Y-144576155D01*
X48362802Y-144668625D01*
X48321815Y-144751736D01*
X48252144Y-144812836D01*
X47840782Y-145050336D01*
X47753032Y-145080123D01*
X47660562Y-145074063D01*
X47577451Y-145033076D01*
X47516351Y-144963405D01*
X47266351Y-144530393D01*
X47236564Y-144442643D01*
X47242624Y-144350173D01*
X47283611Y-144267062D01*
X47353282Y-144205962D01*
X47764644Y-143968462D01*
D11*
D10*
X48677144Y-145548958D02*
X48764894Y-145519171D01*
X48857364Y-145525231D01*
X48940475Y-145566218D01*
X49001575Y-145635889D01*
X49251575Y-146068901D01*
X49281362Y-146156651D01*
X49275302Y-146249121D01*
X49234315Y-146332232D01*
X49164644Y-146393332D01*
X48753282Y-146630832D01*
X48665532Y-146660619D01*
X48573062Y-146654559D01*
X48489951Y-146613572D01*
X48428851Y-146543901D01*
X48178851Y-146110889D01*
X48149064Y-146023139D01*
X48155124Y-145930669D01*
X48196111Y-145847558D01*
X48265782Y-145786458D01*
X48677144Y-145548958D01*
%TD*%
D11*
%TO.C,C11*%
D10*
X27493104Y-172743399D02*
X27475025Y-172834286D01*
X27423542Y-172911337D01*
X27346491Y-172962820D01*
X27255604Y-172980899D01*
X26655604Y-172980899D01*
X26564717Y-172962820D01*
X26487666Y-172911337D01*
X26436183Y-172834286D01*
X26418104Y-172743399D01*
X26418104Y-172268399D01*
X26436183Y-172177512D01*
X26487666Y-172100461D01*
X26564717Y-172048978D01*
X26655604Y-172030899D01*
X27255604Y-172030899D01*
X27346491Y-172048978D01*
X27423542Y-172100461D01*
X27475025Y-172177512D01*
X27493104Y-172268399D01*
X27493104Y-172743399D01*
D11*
D10*
X25768104Y-172743399D02*
X25750025Y-172834286D01*
X25698542Y-172911337D01*
X25621491Y-172962820D01*
X25530604Y-172980899D01*
X24930604Y-172980899D01*
X24839717Y-172962820D01*
X24762666Y-172911337D01*
X24711183Y-172834286D01*
X24693104Y-172743399D01*
X24693104Y-172268399D01*
X24711183Y-172177512D01*
X24762666Y-172100461D01*
X24839717Y-172048978D01*
X24930604Y-172030899D01*
X25530604Y-172030899D01*
X25621491Y-172048978D01*
X25698542Y-172100461D01*
X25750025Y-172177512D01*
X25768104Y-172268399D01*
X25768104Y-172743399D01*
%TD*%
D11*
%TO.C,U4*%
D10*
X41268573Y-183527756D02*
X41214401Y-183446682D01*
X41195378Y-183351050D01*
X41214401Y-183255418D01*
X41268573Y-183174344D01*
X41657623Y-182785294D01*
X41738697Y-182731122D01*
X41834329Y-182712099D01*
X41929961Y-182731122D01*
X42011035Y-182785294D01*
X42576861Y-183351120D01*
X42631033Y-183432194D01*
X42650056Y-183527826D01*
X42631033Y-183623458D01*
X42576861Y-183704532D01*
X42187811Y-184093582D01*
X42106737Y-184147754D01*
X42011105Y-184166777D01*
X41915473Y-184147754D01*
X41834399Y-184093582D01*
X41268573Y-183527756D01*
X42361124Y-182824255D02*
X42537900Y-183001031D01*
X42537900Y-183001031D02*
G75*
G03*
X43280362Y-182258569I371231J371231D01*
G01*
X43280362Y-182258569D02*
X43103586Y-182081793D01*
X43103586Y-182081793D02*
G75*
G03*
X42361124Y-182824255I-371231J-371231D01*
G01*
X43259149Y-181926230D02*
X43435925Y-182103006D01*
X43435925Y-182103006D02*
G75*
G03*
X44178387Y-181360544I371231J371231D01*
G01*
X44178387Y-181360544D02*
X44001611Y-181183768D01*
X44001611Y-181183768D02*
G75*
G03*
X43259149Y-181926230I-371231J-371231D01*
G01*
%TD*%
D11*
%TO.C,R16*%
D10*
X31111707Y-172142294D02*
X31202594Y-172160373D01*
X31279645Y-172211856D01*
X31331128Y-172288907D01*
X31349207Y-172379794D01*
X31349207Y-172879794D01*
X31331128Y-172970681D01*
X31279645Y-173047732D01*
X31202594Y-173099215D01*
X31111707Y-173117294D01*
X30636707Y-173117294D01*
X30545820Y-173099215D01*
X30468769Y-173047732D01*
X30417286Y-172970681D01*
X30399207Y-172879794D01*
X30399207Y-172379794D01*
X30417286Y-172288907D01*
X30468769Y-172211856D01*
X30545820Y-172160373D01*
X30636707Y-172142294D01*
X31111707Y-172142294D01*
D11*
D10*
X31111707Y-173967294D02*
X31202594Y-173985373D01*
X31279645Y-174036856D01*
X31331128Y-174113907D01*
X31349207Y-174204794D01*
X31349207Y-174704794D01*
X31331128Y-174795681D01*
X31279645Y-174872732D01*
X31202594Y-174924215D01*
X31111707Y-174942294D01*
X30636707Y-174942294D01*
X30545820Y-174924215D01*
X30468769Y-174872732D01*
X30417286Y-174795681D01*
X30399207Y-174704794D01*
X30399207Y-174204794D01*
X30417286Y-174113907D01*
X30468769Y-174036856D01*
X30545820Y-173985373D01*
X30636707Y-173967294D01*
X31111707Y-173967294D01*
%TD*%
D11*
%TO.C,R25*%
D10*
X32321551Y-150928392D02*
X32291764Y-150840642D01*
X32297824Y-150748172D01*
X32338811Y-150665061D01*
X32408482Y-150603961D01*
X32841494Y-150353961D01*
X32929244Y-150324174D01*
X33021714Y-150330234D01*
X33104825Y-150371221D01*
X33165925Y-150440892D01*
X33403425Y-150852254D01*
X33433212Y-150940004D01*
X33427152Y-151032474D01*
X33386165Y-151115585D01*
X33316494Y-151176685D01*
X32883482Y-151426685D01*
X32795732Y-151456472D01*
X32703262Y-151450412D01*
X32620151Y-151409425D01*
X32559051Y-151339754D01*
X32321551Y-150928392D01*
D11*
D10*
X33902047Y-150015892D02*
X33872260Y-149928142D01*
X33878320Y-149835672D01*
X33919307Y-149752561D01*
X33988978Y-149691461D01*
X34421990Y-149441461D01*
X34509740Y-149411674D01*
X34602210Y-149417734D01*
X34685321Y-149458721D01*
X34746421Y-149528392D01*
X34983921Y-149939754D01*
X35013708Y-150027504D01*
X35007648Y-150119974D01*
X34966661Y-150203085D01*
X34896990Y-150264185D01*
X34463978Y-150514185D01*
X34376228Y-150543972D01*
X34283758Y-150537912D01*
X34200647Y-150496925D01*
X34139547Y-150427254D01*
X33902047Y-150015892D01*
%TD*%
D11*
%TO.C,C18*%
D10*
X24412909Y-187306509D02*
X24393879Y-187402180D01*
X24339686Y-187483286D01*
X24258580Y-187537479D01*
X24162909Y-187556509D01*
X23487909Y-187556509D01*
X23392238Y-187537479D01*
X23311132Y-187483286D01*
X23256939Y-187402180D01*
X23237909Y-187306509D01*
X23237909Y-186356509D01*
X23256939Y-186260838D01*
X23311132Y-186179732D01*
X23392238Y-186125539D01*
X23487909Y-186106509D01*
X24162909Y-186106509D01*
X24258580Y-186125539D01*
X24339686Y-186179732D01*
X24393879Y-186260838D01*
X24412909Y-186356509D01*
X24412909Y-187306509D01*
D11*
D10*
X22337909Y-187306509D02*
X22318879Y-187402180D01*
X22264686Y-187483286D01*
X22183580Y-187537479D01*
X22087909Y-187556509D01*
X21412909Y-187556509D01*
X21317238Y-187537479D01*
X21236132Y-187483286D01*
X21181939Y-187402180D01*
X21162909Y-187306509D01*
X21162909Y-186356509D01*
X21181939Y-186260838D01*
X21236132Y-186179732D01*
X21317238Y-186125539D01*
X21412909Y-186106509D01*
X22087909Y-186106509D01*
X22183580Y-186125539D01*
X22264686Y-186179732D01*
X22318879Y-186260838D01*
X22337909Y-186356509D01*
X22337909Y-187306509D01*
%TD*%
%TO.C,JP4*%
X27524627Y-176277092D02*
X28024627Y-176277092D01*
X28024627Y-176282181D01*
X28095784Y-176282181D01*
X28232335Y-176322276D01*
X28352057Y-176399217D01*
X28445254Y-176506772D01*
X28504373Y-176636226D01*
X28524627Y-176777092D01*
X28524627Y-177277092D01*
X28504373Y-177417958D01*
X28445254Y-177547412D01*
X28352057Y-177654967D01*
X28232335Y-177731908D01*
X28095784Y-177772003D01*
X28024627Y-177772003D01*
X28024627Y-177777092D01*
X27524627Y-177777092D01*
X27524627Y-176277092D01*
X26724627Y-177772003D02*
X26653470Y-177772003D01*
X26516919Y-177731908D01*
X26397197Y-177654967D01*
X26304000Y-177547412D01*
X26244881Y-177417958D01*
X26224627Y-177277092D01*
X26224627Y-176777092D01*
X26244881Y-176636226D01*
X26304000Y-176506772D01*
X26397197Y-176399217D01*
X26516919Y-176322276D01*
X26653470Y-176282181D01*
X26724627Y-176282181D01*
X26724627Y-176277092D01*
X27224627Y-176277092D01*
X27224627Y-177777092D01*
X26724627Y-177777092D01*
X26724627Y-177772003D01*
%TD*%
%TO.C,L1*%
X33088313Y-168627742D02*
X29482068Y-165021497D01*
X31143769Y-163359796D01*
X34750014Y-166966041D01*
X33088313Y-168627742D01*
X36022807Y-165693248D02*
X32416562Y-162087003D01*
X34078263Y-160425302D01*
X37684508Y-164031547D01*
X36022807Y-165693248D01*
%TD*%
%TO.C,S1*%
X47284780Y-164610976D02*
X48150806Y-165110976D01*
X47300806Y-166583220D01*
X46434780Y-166083220D01*
X47284780Y-164610976D01*
X44134780Y-170066936D02*
X45000806Y-170566936D01*
X44150806Y-172039180D01*
X43284780Y-171539180D01*
X44134780Y-170066936D01*
X43993884Y-162710976D02*
X44859910Y-163210976D01*
X44009910Y-164683220D01*
X43143884Y-164183220D01*
X43993884Y-162710976D01*
X40843884Y-168166936D02*
X41709910Y-168666936D01*
X40859910Y-170139180D01*
X39993884Y-169639180D01*
X40843884Y-168166936D01*
%TD*%
%TO.C,L2*%
X31161501Y-160788608D02*
X27555256Y-157182363D01*
X29216957Y-155520662D01*
X32823202Y-159126907D01*
X31161501Y-160788608D01*
X34095995Y-157854114D02*
X30489750Y-154247869D01*
X32151451Y-152586168D01*
X35757696Y-156192413D01*
X34095995Y-157854114D01*
%TD*%
%TO.C,J3*%
X52792826Y-158905108D02*
X52792826Y-160605108D01*
X54492826Y-160605108D01*
X54492826Y-158905108D01*
X52792826Y-158905108D01*
X54492826Y-157215108D02*
X54492826Y-157215108D01*
X54492826Y-157215108D02*
G75*
G03*
X52792826Y-157215108I-850000J0D01*
G01*
X52792826Y-157215108D02*
X52792826Y-157215108D01*
X52792826Y-157215108D02*
G75*
G03*
X54492826Y-157215108I850000J0D01*
G01*
X54492826Y-154675108D02*
X54492826Y-154675108D01*
X54492826Y-154675108D02*
G75*
G03*
X52792826Y-154675108I-850000J0D01*
G01*
X52792826Y-154675108D02*
X52792826Y-154675108D01*
X52792826Y-154675108D02*
G75*
G03*
X54492826Y-154675108I850000J0D01*
G01*
X54492826Y-152135108D02*
X54492826Y-152135108D01*
X54492826Y-152135108D02*
G75*
G03*
X52792826Y-152135108I-850000J0D01*
G01*
X52792826Y-152135108D02*
X52792826Y-152135108D01*
X52792826Y-152135108D02*
G75*
G03*
X54492826Y-152135108I850000J0D01*
G01*
X54492826Y-149595108D02*
X54492826Y-149595108D01*
X54492826Y-149595108D02*
G75*
G03*
X52792826Y-149595108I-850000J0D01*
G01*
X52792826Y-149595108D02*
X52792826Y-149595108D01*
X52792826Y-149595108D02*
G75*
G03*
X54492826Y-149595108I850000J0D01*
G01*
%TD*%
D11*
%TO.C,R5*%
D10*
X49084490Y-143206465D02*
X49172240Y-143176678D01*
X49264710Y-143182738D01*
X49347821Y-143223725D01*
X49408921Y-143293396D01*
X49658921Y-143726408D01*
X49688708Y-143814158D01*
X49682648Y-143906628D01*
X49641661Y-143989739D01*
X49571990Y-144050839D01*
X49160628Y-144288339D01*
X49072878Y-144318126D01*
X48980408Y-144312066D01*
X48897297Y-144271079D01*
X48836197Y-144201408D01*
X48586197Y-143768396D01*
X48556410Y-143680646D01*
X48562470Y-143588176D01*
X48603457Y-143505065D01*
X48673128Y-143443965D01*
X49084490Y-143206465D01*
D11*
D10*
X49996990Y-144786961D02*
X50084740Y-144757174D01*
X50177210Y-144763234D01*
X50260321Y-144804221D01*
X50321421Y-144873892D01*
X50571421Y-145306904D01*
X50601208Y-145394654D01*
X50595148Y-145487124D01*
X50554161Y-145570235D01*
X50484490Y-145631335D01*
X50073128Y-145868835D01*
X49985378Y-145898622D01*
X49892908Y-145892562D01*
X49809797Y-145851575D01*
X49748697Y-145781904D01*
X49498697Y-145348892D01*
X49468910Y-145261142D01*
X49474970Y-145168672D01*
X49515957Y-145085561D01*
X49585628Y-145024461D01*
X49996990Y-144786961D01*
%TD*%
D11*
%TO.C,H6*%
D10*
X19298593Y-184785097D02*
X19279563Y-184880768D01*
X19225369Y-184961874D01*
X19144263Y-185016068D01*
X19048591Y-185035097D01*
X17248594Y-185035098D01*
X17152923Y-185016068D01*
X17071817Y-184961874D01*
X17017623Y-184880768D01*
X16998594Y-184785096D01*
X16998593Y-182985099D01*
X17017623Y-182889428D01*
X17071817Y-182808322D01*
X17152923Y-182754128D01*
X17248595Y-182735099D01*
X19048592Y-182735098D01*
X19144263Y-182754128D01*
X19225369Y-182808322D01*
X19279563Y-182889428D01*
X19298592Y-182985100D01*
X19298593Y-184785097D01*
%TD*%
%TO.C,TP3*%
X53732402Y-145785099D02*
G75*
G03*
X53732402Y-145785099I-750000J0D01*
G01*
%TD*%
D11*
%TO.C,Q1*%
D10*
X31938914Y-177608700D02*
X31950332Y-177551297D01*
X31982848Y-177502634D01*
X32031511Y-177470118D01*
X32088914Y-177458700D01*
X33113914Y-177458700D01*
X33171317Y-177470118D01*
X33219980Y-177502634D01*
X33252496Y-177551297D01*
X33263914Y-177608700D01*
X33263914Y-177908700D01*
X33252496Y-177966103D01*
X33219980Y-178014766D01*
X33171317Y-178047282D01*
X33113914Y-178058700D01*
X32088914Y-178058700D01*
X32031511Y-178047282D01*
X31982848Y-178014766D01*
X31950332Y-177966103D01*
X31938914Y-177908700D01*
X31938914Y-177608700D01*
D11*
D10*
X31938914Y-179508700D02*
X31950332Y-179451297D01*
X31982848Y-179402634D01*
X32031511Y-179370118D01*
X32088914Y-179358700D01*
X33113914Y-179358700D01*
X33171317Y-179370118D01*
X33219980Y-179402634D01*
X33252496Y-179451297D01*
X33263914Y-179508700D01*
X33263914Y-179808700D01*
X33252496Y-179866103D01*
X33219980Y-179914766D01*
X33171317Y-179947282D01*
X33113914Y-179958700D01*
X32088914Y-179958700D01*
X32031511Y-179947282D01*
X31982848Y-179914766D01*
X31950332Y-179866103D01*
X31938914Y-179808700D01*
X31938914Y-179508700D01*
D11*
D10*
X34213914Y-178558700D02*
X34225332Y-178501297D01*
X34257848Y-178452634D01*
X34306511Y-178420118D01*
X34363914Y-178408700D01*
X35388914Y-178408700D01*
X35446317Y-178420118D01*
X35494980Y-178452634D01*
X35527496Y-178501297D01*
X35538914Y-178558700D01*
X35538914Y-178858700D01*
X35527496Y-178916103D01*
X35494980Y-178964766D01*
X35446317Y-178997282D01*
X35388914Y-179008700D01*
X34363914Y-179008700D01*
X34306511Y-178997282D01*
X34257848Y-178964766D01*
X34225332Y-178916103D01*
X34213914Y-178858700D01*
X34213914Y-178558700D01*
%TD*%
D11*
%TO.C,F1*%
D10*
X26504202Y-164765853D02*
X26558395Y-164846959D01*
X26577426Y-164942630D01*
X26558395Y-165038301D01*
X26504202Y-165119407D01*
X26026905Y-165596704D01*
X25945799Y-165650897D01*
X25850128Y-165669928D01*
X25754457Y-165650897D01*
X25673351Y-165596704D01*
X25001600Y-164924953D01*
X24947407Y-164843847D01*
X24928376Y-164748176D01*
X24947407Y-164652505D01*
X25001600Y-164571399D01*
X25478897Y-164094102D01*
X25560003Y-164039909D01*
X25655674Y-164020878D01*
X25751345Y-164039909D01*
X25832451Y-164094102D01*
X26504202Y-164765853D01*
D11*
D10*
X25036956Y-166233099D02*
X25091149Y-166314205D01*
X25110180Y-166409876D01*
X25091149Y-166505547D01*
X25036956Y-166586653D01*
X24559659Y-167063950D01*
X24478553Y-167118143D01*
X24382882Y-167137174D01*
X24287211Y-167118143D01*
X24206105Y-167063950D01*
X23534354Y-166392199D01*
X23480161Y-166311093D01*
X23461130Y-166215422D01*
X23480161Y-166119751D01*
X23534354Y-166038645D01*
X24011651Y-165561348D01*
X24092757Y-165507155D01*
X24188428Y-165488124D01*
X24284099Y-165507155D01*
X24365205Y-165561348D01*
X25036956Y-166233099D01*
%TD*%
%TO.C,TP4*%
X52868813Y-143041899D02*
G75*
G03*
X52868813Y-143041899I-750000J0D01*
G01*
%TD*%
D11*
%TO.C,R18*%
D10*
X38929002Y-180180600D02*
X38910923Y-180271487D01*
X38859440Y-180348538D01*
X38782389Y-180400021D01*
X38691502Y-180418100D01*
X38191502Y-180418100D01*
X38100615Y-180400021D01*
X38023564Y-180348538D01*
X37972081Y-180271487D01*
X37954002Y-180180600D01*
X37954002Y-179705600D01*
X37972081Y-179614713D01*
X38023564Y-179537662D01*
X38100615Y-179486179D01*
X38191502Y-179468100D01*
X38691502Y-179468100D01*
X38782389Y-179486179D01*
X38859440Y-179537662D01*
X38910923Y-179614713D01*
X38929002Y-179705600D01*
X38929002Y-180180600D01*
D11*
D10*
X37104002Y-180180600D02*
X37085923Y-180271487D01*
X37034440Y-180348538D01*
X36957389Y-180400021D01*
X36866502Y-180418100D01*
X36366502Y-180418100D01*
X36275615Y-180400021D01*
X36198564Y-180348538D01*
X36147081Y-180271487D01*
X36129002Y-180180600D01*
X36129002Y-179705600D01*
X36147081Y-179614713D01*
X36198564Y-179537662D01*
X36275615Y-179486179D01*
X36366502Y-179468100D01*
X36866502Y-179468100D01*
X36957389Y-179486179D01*
X37034440Y-179537662D01*
X37085923Y-179614713D01*
X37104002Y-179705600D01*
X37104002Y-180180600D01*
%TD*%
%TO.C,J4*%
X49481982Y-170250741D02*
X50331982Y-168778497D01*
X51804226Y-169628497D01*
X50954226Y-171100741D01*
X49481982Y-170250741D01*
X48636982Y-171714324D02*
X48636982Y-171714324D01*
X48636982Y-171714324D02*
G75*
G03*
X50109226Y-172564324I736122J-425000D01*
G01*
X50109226Y-172564324D02*
X50109226Y-172564324D01*
X50109226Y-172564324D02*
G75*
G03*
X48636982Y-171714324I-736122J425000D01*
G01*
X47366982Y-173914028D02*
X47366982Y-173914028D01*
X47366982Y-173914028D02*
G75*
G03*
X48839226Y-174764028I736122J-425000D01*
G01*
X48839226Y-174764028D02*
X48839226Y-174764028D01*
X48839226Y-174764028D02*
G75*
G03*
X47366982Y-173914028I-736122J425000D01*
G01*
X46096982Y-176113733D02*
X46096982Y-176113733D01*
X46096982Y-176113733D02*
G75*
G03*
X47569226Y-176963733I736122J-425000D01*
G01*
X47569226Y-176963733D02*
X47569226Y-176963733D01*
X47569226Y-176963733D02*
G75*
G03*
X46096982Y-176113733I-736122J425000D01*
G01*
X44826982Y-178313437D02*
X44826982Y-178313437D01*
X44826982Y-178313437D02*
G75*
G03*
X46299226Y-179163437I736122J-425000D01*
G01*
X46299226Y-179163437D02*
X46299226Y-179163437D01*
X46299226Y-179163437D02*
G75*
G03*
X44826982Y-178313437I-736122J425000D01*
G01*
%TD*%
%TO.C,J5*%
X24803320Y-162701477D02*
X23601238Y-163903559D01*
X22399156Y-162701477D01*
X23601238Y-161499395D01*
X24803320Y-162701477D01*
X25998330Y-161506467D02*
X25998330Y-161506467D01*
X25998330Y-161506467D02*
G75*
G03*
X24796248Y-160304385I-601041J601041D01*
G01*
X24796248Y-160304385D02*
X24796248Y-160304385D01*
X24796248Y-160304385D02*
G75*
G03*
X25998330Y-161506467I601041J-601041D01*
G01*
%TD*%
%TO.C,U5*%
X36269221Y-173708303D02*
X36269221Y-174108303D01*
X36919221Y-174108303D01*
X36919221Y-173708303D01*
X36269221Y-173708303D01*
X36269221Y-174358303D02*
X36269221Y-174758303D01*
X36919221Y-174758303D01*
X36919221Y-174358303D01*
X36269221Y-174358303D01*
X36269221Y-175008303D02*
X36269221Y-175408303D01*
X36919221Y-175408303D01*
X36919221Y-175008303D01*
X36269221Y-175008303D01*
X38169221Y-175008303D02*
X38169221Y-175408303D01*
X38819221Y-175408303D01*
X38819221Y-175008303D01*
X38169221Y-175008303D01*
X38169221Y-174358303D02*
X38169221Y-174758303D01*
X38819221Y-174758303D01*
X38819221Y-174358303D01*
X38169221Y-174358303D01*
X38169221Y-173708303D02*
X38169221Y-174108303D01*
X38819221Y-174108303D01*
X38819221Y-173708303D01*
X38169221Y-173708303D01*
%TD*%
D11*
%TO.C,U2*%
D10*
X24150326Y-192232978D02*
X24143950Y-192135680D01*
X24175292Y-192043349D01*
X24239582Y-191970041D01*
X24327032Y-191926914D01*
X24858485Y-191784512D01*
X24955783Y-191778135D01*
X25048114Y-191809477D01*
X25121422Y-191873767D01*
X25164549Y-191961218D01*
X25371656Y-192734152D01*
X25378032Y-192831450D01*
X25346690Y-192923781D01*
X25282400Y-192997089D01*
X25194950Y-193040216D01*
X24663497Y-193182618D01*
X24566199Y-193188995D01*
X24473868Y-193157653D01*
X24400560Y-193093363D01*
X24357433Y-193005912D01*
X24150326Y-192232978D01*
X25448254Y-192170004D02*
X25512958Y-192411486D01*
X25512958Y-192411486D02*
G75*
G03*
X26527180Y-192139726I507111J135880D01*
G01*
X26527180Y-192139726D02*
X26462476Y-191898244D01*
X26462476Y-191898244D02*
G75*
G03*
X25448254Y-192170004I-507111J-135880D01*
G01*
X26674980Y-191841304D02*
X26739684Y-192082786D01*
X26739684Y-192082786D02*
G75*
G03*
X27753906Y-191811026I507111J135880D01*
G01*
X27753906Y-191811026D02*
X27689202Y-191569544D01*
X27689202Y-191569544D02*
G75*
G03*
X26674980Y-191841304I-507111J-135880D01*
G01*
%TD*%
D11*
%TO.C,C20*%
D10*
X34367136Y-159603667D02*
X34312943Y-159522561D01*
X34293912Y-159426890D01*
X34312943Y-159331219D01*
X34367136Y-159250113D01*
X34844433Y-158772816D01*
X34925539Y-158718623D01*
X35021210Y-158699592D01*
X35116881Y-158718623D01*
X35197987Y-158772816D01*
X35869738Y-159444567D01*
X35923931Y-159525673D01*
X35942962Y-159621344D01*
X35923931Y-159717015D01*
X35869738Y-159798121D01*
X35392441Y-160275418D01*
X35311335Y-160329611D01*
X35215664Y-160348642D01*
X35119993Y-160329611D01*
X35038887Y-160275418D01*
X34367136Y-159603667D01*
D11*
D10*
X35834382Y-158136421D02*
X35780189Y-158055315D01*
X35761158Y-157959644D01*
X35780189Y-157863973D01*
X35834382Y-157782867D01*
X36311679Y-157305570D01*
X36392785Y-157251377D01*
X36488456Y-157232346D01*
X36584127Y-157251377D01*
X36665233Y-157305570D01*
X37336984Y-157977321D01*
X37391177Y-158058427D01*
X37410208Y-158154098D01*
X37391177Y-158249769D01*
X37336984Y-158330875D01*
X36859687Y-158808172D01*
X36778581Y-158862365D01*
X36682910Y-158881396D01*
X36587239Y-158862365D01*
X36506133Y-158808172D01*
X35834382Y-158136421D01*
%TD*%
%TO.C,J2*%
X31471432Y-190444610D02*
X29999188Y-191294610D01*
X29149188Y-189822366D01*
X30621432Y-188972366D01*
X31471432Y-190444610D01*
X32935015Y-189599610D02*
X32935015Y-189599610D01*
X32935015Y-189599610D02*
G75*
G03*
X32085015Y-188127366I-425000J736122D01*
G01*
X32085015Y-188127366D02*
X32085015Y-188127366D01*
X32085015Y-188127366D02*
G75*
G03*
X32935015Y-189599610I425000J-736122D01*
G01*
X35134719Y-188329610D02*
X35134719Y-188329610D01*
X35134719Y-188329610D02*
G75*
G03*
X34284719Y-186857366I-425000J736122D01*
G01*
X34284719Y-186857366D02*
X34284719Y-186857366D01*
X34284719Y-186857366D02*
G75*
G03*
X35134719Y-188329610I425000J-736122D01*
G01*
X37334424Y-187059610D02*
X37334424Y-187059610D01*
X37334424Y-187059610D02*
G75*
G03*
X36484424Y-185587366I-425000J736122D01*
G01*
X36484424Y-185587366D02*
X36484424Y-185587366D01*
X36484424Y-185587366D02*
G75*
G03*
X37334424Y-187059610I425000J-736122D01*
G01*
X39534128Y-185789610D02*
X39534128Y-185789610D01*
X39534128Y-185789610D02*
G75*
G03*
X38684128Y-184317366I-425000J736122D01*
G01*
X38684128Y-184317366D02*
X38684128Y-184317366D01*
X38684128Y-184317366D02*
G75*
G03*
X39534128Y-185789610I425000J-736122D01*
G01*
%TD*%
D11*
%TO.C,H1*%
D10*
X19298596Y-181483102D02*
X19279566Y-181578773D01*
X19225372Y-181659879D01*
X19144266Y-181714073D01*
X19048594Y-181733102D01*
X17248597Y-181733103D01*
X17152926Y-181714073D01*
X17071820Y-181659879D01*
X17017626Y-181578773D01*
X16998597Y-181483101D01*
X16998596Y-179683104D01*
X17017626Y-179587433D01*
X17071820Y-179506327D01*
X17152926Y-179452133D01*
X17248598Y-179433104D01*
X19048595Y-179433103D01*
X19144266Y-179452133D01*
X19225372Y-179506327D01*
X19279566Y-179587433D01*
X19298595Y-179683105D01*
X19298596Y-181483102D01*
%TD*%
%TO.C,JP5*%
X27042293Y-185108296D02*
X27542293Y-185108296D01*
X27542293Y-185113385D01*
X27613450Y-185113385D01*
X27750001Y-185153480D01*
X27869723Y-185230421D01*
X27962920Y-185337976D01*
X28022039Y-185467430D01*
X28042293Y-185608296D01*
X28042293Y-186108296D01*
X28022039Y-186249162D01*
X27962920Y-186378616D01*
X27869723Y-186486171D01*
X27750001Y-186563112D01*
X27613450Y-186603207D01*
X27542293Y-186603207D01*
X27542293Y-186608296D01*
X27042293Y-186608296D01*
X27042293Y-185108296D01*
X26242293Y-186603207D02*
X26171136Y-186603207D01*
X26034585Y-186563112D01*
X25914863Y-186486171D01*
X25821666Y-186378616D01*
X25762547Y-186249162D01*
X25742293Y-186108296D01*
X25742293Y-185608296D01*
X25762547Y-185467430D01*
X25821666Y-185337976D01*
X25914863Y-185230421D01*
X26034585Y-185153480D01*
X26171136Y-185113385D01*
X26242293Y-185113385D01*
X26242293Y-185108296D01*
X26742293Y-185108296D01*
X26742293Y-186608296D01*
X26242293Y-186608296D01*
X26242293Y-186603207D01*
%TD*%
%TO.C,U8*%
X23087916Y-184096304D02*
G75*
G03*
X23087916Y-184096304I-300000J0D01*
G01*
X22337916Y-183796304D02*
X22337916Y-185396304D01*
X23237916Y-185396304D01*
X23237916Y-183796304D01*
X22337916Y-183796304D01*
X23087916Y-185096304D02*
G75*
G03*
X23087916Y-185096304I-300000J0D01*
G01*
%TD*%
%TO.C,U1*%
X44395019Y-146683615D02*
G75*
G03*
X44395019Y-146683615I-250000J0D01*
G01*
X43895019Y-145817590D02*
G75*
G03*
X43895019Y-145817590I-250000J0D01*
G01*
X43395019Y-144951565D02*
G75*
G03*
X43395019Y-144951565I-250000J0D01*
G01*
X43236525Y-144610058D02*
X44486525Y-146775122D01*
X42927679Y-147675122D01*
X41677679Y-145510058D01*
X43236525Y-144610058D01*
X43269185Y-147333615D02*
G75*
G03*
X43269185Y-147333615I-250000J0D01*
G01*
X42769185Y-146467590D02*
G75*
G03*
X42769185Y-146467590I-250000J0D01*
G01*
X42269185Y-145601565D02*
G75*
G03*
X42269185Y-145601565I-250000J0D01*
G01*
%TD*%
%TO.C,U6*%
X22466501Y-175213900D02*
G75*
G03*
X22466501Y-175213900I-250000J0D01*
G01*
X22466501Y-176393900D02*
G75*
G03*
X22466501Y-176393900I-250000J0D01*
G01*
X21966501Y-174963900D02*
X21966501Y-176643900D01*
X23646501Y-176643900D01*
X23646501Y-174963900D01*
X21966501Y-174963900D01*
X23646501Y-175213900D02*
G75*
G03*
X23646501Y-175213900I-250000J0D01*
G01*
X23646501Y-176393900D02*
G75*
G03*
X23646501Y-176393900I-250000J0D01*
G01*
%TD*%
M02*
